{"glyphs":{"0":{"ha":851,"x_min":154,"x_max":869,"o":"m 439 -18 q 226 91 299 -18 q 154 367 154 200 q 180 583 154 476 q 256 783 206 690 q 392 934 306 876 q 586 992 478 992 q 722 957 664 992 q 811 864 781 922 q 856 743 842 806 q 869 613 869 681 q 856 449 869 532 q 809 281 842 367 q 728 131 776 196 q 606 24 681 65 q 439 -18 531 -18 m 458 161 q 562 208 515 161 q 635 324 608 254 q 675 465 661 394 q 689 594 689 536 q 658 750 689 688 q 561 813 626 813 q 456 763 503 813 q 385 640 410 713 q 347 498 360 567 q 335 376 335 429 q 365 223 335 285 q 458 161 396 161 z "},"1":{"ha":519,"x_min":156,"x_max":526,"o":"m 171 0 l 297 719 l 156 719 l 182 868 q 378 972 328 868 l 526 972 l 356 0 l 171 0 z "},"2":{"ha":788,"x_min":68,"x_max":844,"o":"m 68 0 q 123 195 86 111 q 218 341 160 279 q 327 440 276 403 q 461 528 378 478 q 511 556 471 533 q 567 590 551 579 q 609 623 583 601 q 645 668 635 644 q 656 719 656 692 q 628 792 656 765 q 546 819 600 819 q 368 701 424 819 l 221 778 q 569 989 344 989 q 766 915 688 989 q 844 732 844 840 q 842 680 844 704 q 829 633 839 656 q 814 592 819 610 q 790 555 808 575 q 762 524 771 535 q 725 492 753 513 q 687 464 697 472 q 640 435 676 456 q 593 407 604 414 q 539 376 582 400 q 328 181 363 276 l 747 181 l 715 0 l 68 0 z "},"3":{"ha":772,"x_min":85,"x_max":807,"o":"m 419 -17 q 200 44 286 -17 q 85 211 114 104 l 258 279 q 419 157 296 157 q 529 199 482 157 q 576 310 576 242 q 544 388 576 357 q 450 418 513 418 l 363 418 l 393 592 l 481 592 q 577 631 536 592 q 618 722 618 669 q 590 789 618 761 q 515 817 563 817 q 368 722 424 817 l 217 788 q 353 935 268 881 q 539 989 438 989 q 731 925 654 989 q 807 758 807 861 q 760 608 807 672 q 635 508 714 543 q 734 422 703 481 q 765 296 765 363 q 666 72 765 161 q 419 -17 567 -17 z "},"4":{"ha":842,"x_min":50,"x_max":863,"o":"m 499 0 l 533 194 l 50 194 l 75 338 l 646 972 l 854 972 l 749 368 l 863 368 l 832 194 l 718 194 l 683 0 l 499 0 m 564 368 l 625 718 l 315 368 l 564 368 z "},"5":{"ha":778,"x_min":88,"x_max":822,"o":"m 406 -17 q 203 45 290 -17 q 88 204 115 107 l 256 274 q 425 161 304 161 q 550 208 496 161 q 604 338 604 256 q 568 436 604 400 q 474 472 532 472 q 326 401 400 472 l 174 483 l 283 972 l 822 972 l 792 792 l 419 792 l 375 611 q 525 646 438 646 q 721 566 649 646 q 793 354 793 486 q 684 82 793 181 q 406 -17 575 -17 z "},"6":{"ha":790,"x_min":115,"x_max":800,"o":"m 429 -17 q 197 73 278 -17 q 115 310 115 163 q 140 483 115 394 q 218 658 164 571 q 349 814 272 744 q 541 931 426 883 q 790 989 656 979 l 758 811 q 541 734 642 794 q 383 568 440 674 q 544 617 453 617 q 730 544 660 617 q 800 356 800 471 q 692 84 800 185 q 429 -17 583 -17 m 439 157 q 565 200 513 157 q 617 315 617 243 q 583 404 617 368 q 489 440 549 440 q 363 397 415 440 q 311 282 311 353 q 346 192 311 226 q 439 157 381 157 z "},"7":{"ha":693,"x_min":156,"x_max":829,"o":"m 203 0 q 575 792 286 453 l 156 792 l 186 972 l 829 972 l 800 807 q 536 421 639 647 q 400 0 433 194 l 203 0 z "},"8":{"ha":811,"x_min":114,"x_max":853,"o":"m 429 -17 q 203 66 293 -17 q 114 265 114 149 q 181 451 114 381 q 356 542 249 521 q 231 724 231 592 q 324 913 231 838 q 563 989 418 989 q 777 922 701 989 q 853 751 853 854 q 797 603 853 663 q 664 526 742 544 q 768 450 724 508 q 813 308 813 392 q 711 80 813 176 q 429 -17 610 -17 m 532 608 q 626 640 588 608 q 664 725 664 672 q 635 794 664 764 q 550 824 606 824 q 459 792 499 824 q 419 708 419 760 q 449 638 419 668 q 532 608 479 608 m 446 153 q 572 195 525 153 q 619 307 619 238 q 581 399 619 360 q 475 439 543 439 q 353 394 399 439 q 307 285 307 349 q 344 190 307 228 q 446 153 382 153 z "},"9":{"ha":790,"x_min":156,"x_max":849,"o":"m 197 -17 l 229 165 q 603 422 492 174 q 431 367 535 367 q 232 442 308 367 q 156 642 156 517 q 265 894 156 799 q 531 989 375 989 q 765 901 681 989 q 849 657 849 814 q 829 484 849 571 q 761 307 810 397 q 641 147 713 217 q 455 32 569 78 q 197 -17 340 -14 m 471 539 q 604 585 556 539 q 653 696 653 632 q 619 781 653 747 q 521 814 586 814 q 397 768 447 814 q 346 657 346 722 q 382 569 346 600 q 471 539 418 539 z "}," ":{"ha":307,"x_min":0,"x_max":0,"o":""},"!":{"ha":400,"x_min":106,"x_max":460,"o":"m 197 268 l 232 675 l 288 989 l 460 989 l 404 675 l 296 268 l 197 268 m 203 -17 q 133 11 160 -17 q 106 79 106 39 q 142 174 106 136 q 229 213 178 213 q 303 185 275 213 q 331 117 331 158 q 294 21 331 58 q 203 -17 258 -17 z "},"\"":{"ha":597,"x_min":192,"x_max":708,"o":"m 192 568 l 231 972 l 439 972 l 336 568 l 192 568 m 461 568 l 500 972 l 708 972 l 606 568 l 461 568 z "},"#":{"ha":933,"x_min":99,"x_max":1010,"o":"m 161 0 l 240 244 l 99 244 l 149 400 l 290 400 l 354 596 l 213 596 l 260 751 l 404 751 l 474 972 l 625 972 l 554 751 l 715 751 l 788 972 l 939 972 l 868 751 l 1010 751 l 961 596 l 819 596 l 756 400 l 897 400 l 847 244 l 706 244 l 626 0 l 475 0 l 554 244 l 393 244 l 314 0 l 161 0 m 443 400 l 604 400 l 667 596 l 506 596 l 443 400 z "},"$":{"ha":801,"x_min":115,"x_max":826,"o":"m 290 -128 l 313 -3 q 115 249 147 46 l 282 308 q 439 161 317 161 q 548 194 507 161 q 589 285 589 228 q 562 356 589 325 q 494 407 535 388 q 406 453 454 426 q 318 508 358 479 q 251 590 278 538 q 224 713 224 643 q 292 885 224 803 q 486 986 361 967 l 504 1090 l 678 1090 l 658 975 q 826 767 796 929 l 654 710 q 526 814 622 814 q 447 788 478 814 q 417 725 417 763 q 444 665 417 692 q 511 621 471 639 q 599 576 551 603 q 686 519 646 550 q 753 433 726 489 q 781 306 781 378 q 709 99 781 186 q 497 -12 638 13 l 478 -128 l 290 -128 z "},"%":{"ha":1125,"x_min":150,"x_max":1147,"o":"m 333 -17 l 150 -17 l 964 989 l 1147 989 l 333 -17 m 382 481 q 235 546 286 481 q 185 694 185 611 q 254 898 185 807 q 446 989 324 989 q 592 924 542 989 q 643 775 643 858 q 569 565 643 650 q 382 481 496 481 m 396 625 q 467 667 439 625 q 494 764 494 710 q 478 822 494 800 q 431 844 461 844 q 360 802 388 844 q 333 706 333 760 q 396 625 333 625 m 858 -17 q 712 49 763 -17 q 661 197 661 114 q 731 401 661 310 q 922 492 800 492 q 1069 426 1018 492 q 1119 278 1119 361 q 1046 68 1119 153 q 858 -17 972 -17 m 872 128 q 943 170 915 128 q 971 267 971 213 q 954 325 971 303 q 907 347 938 347 q 837 305 864 347 q 810 208 810 263 q 872 128 810 128 z "},"&":{"ha":958,"x_min":119,"x_max":928,"o":"m 703 0 l 649 92 q 361 -17 524 -17 q 185 50 250 -17 q 119 222 119 117 q 186 418 119 340 q 372 551 253 496 q 319 731 319 635 q 398 918 319 847 q 581 989 476 989 q 742 934 683 989 q 800 788 800 879 q 606 517 800 629 l 685 392 q 711 486 706 454 l 882 486 q 782 236 853 344 l 928 0 l 703 0 m 488 754 q 532 635 488 701 q 633 779 633 697 q 615 832 633 814 q 568 850 597 850 q 511 824 535 850 q 488 754 488 797 m 413 157 q 571 219 501 157 l 447 425 q 306 258 306 351 q 333 184 306 211 q 413 157 361 157 z "},"'":{"ha":328,"x_min":192,"x_max":439,"o":"m 231 972 l 439 972 l 336 568 l 192 568 l 231 972 z "},"(":{"ha":496,"x_min":143,"x_max":618,"o":"m 226 -181 q 167 -3 192 -118 q 143 228 143 113 q 228 668 143 476 q 436 989 314 860 l 618 989 q 533 885 575 943 q 438 729 492 826 q 351 501 383 632 q 318 232 318 371 q 344 -10 318 111 q 394 -181 369 -131 l 226 -181 z "},")":{"ha":496,"x_min":19,"x_max":494,"o":"m 19 -181 q 104 -75 61 -136 q 200 83 147 -14 q 286 310 253 179 q 319 576 319 440 q 294 818 319 697 q 243 989 268 939 l 411 989 q 470 811 446 926 q 494 581 494 696 q 409 140 494 332 q 201 -181 324 -51 l 19 -181 z "},"*":{"ha":733,"x_min":186,"x_max":800,"o":"m 481 526 l 471 592 l 444 526 l 326 385 l 206 489 l 324 621 l 393 651 l 339 653 l 186 710 l 247 858 l 401 803 l 444 772 l 431 829 l 463 1001 l 626 1001 l 596 835 l 561 772 l 614 810 l 768 857 l 800 704 l 638 653 l 567 651 l 614 624 l 700 472 l 560 382 l 481 526 z "},"+":{"ha":840,"x_min":190,"x_max":810,"o":"m 590 389 l 590 150 l 410 150 l 410 389 l 190 389 l 190 564 l 410 564 l 410 803 l 590 803 l 590 564 l 810 564 l 810 389 l 590 389 z "},",":{"ha":329,"x_min":22,"x_max":300,"o":"m 85 -196 l 22 -139 q 81 -80 46 -119 q 132 -10 115 -40 q 72 79 72 11 q 110 175 72 138 q 196 213 147 213 q 272 184 243 213 q 300 107 300 156 q 237 -60 300 24 q 85 -196 174 -144 z "},"-":{"ha":550,"x_min":157,"x_max":538,"o":"m 157 324 l 188 497 l 538 497 l 507 324 l 157 324 z "},".":{"ha":321,"x_min":67,"x_max":292,"o":"m 164 -17 q 94 11 121 -17 q 67 79 67 39 q 103 174 67 136 q 190 213 139 213 q 264 185 236 213 q 292 117 292 158 q 256 21 292 58 q 164 -17 219 -17 z "},"/":{"ha":696,"x_min":-51,"x_max":863,"o":"m -51 -181 l 679 989 l 863 989 l 131 -181 l -51 -181 z "},":":{"ha":321,"x_min":67,"x_max":372,"o":"m 244 446 q 174 474 201 446 q 147 542 147 501 q 183 637 147 599 q 271 675 219 675 q 344 647 317 675 q 372 579 372 619 q 336 483 372 521 q 244 446 300 446 m 164 -17 q 94 11 121 -17 q 67 79 67 39 q 103 174 67 136 q 190 213 139 213 q 264 185 236 213 q 292 117 292 158 q 256 21 292 58 q 164 -17 219 -17 z "},";":{"ha":321,"x_min":17,"x_max":372,"o":"m 244 446 q 174 474 201 446 q 147 542 147 501 q 183 637 147 599 q 271 675 219 675 q 344 647 317 675 q 372 579 372 619 q 336 483 372 521 q 244 446 300 446 m 79 -196 l 17 -139 q 75 -80 40 -119 q 126 -10 110 -40 q 67 79 67 11 q 104 175 67 138 q 190 213 142 213 q 266 184 238 213 q 294 107 294 156 q 231 -60 294 24 q 79 -196 168 -144 z "},"<":{"ha":840,"x_min":201,"x_max":821,"o":"m 821 136 l 201 403 l 201 550 l 821 817 l 821 628 l 457 476 l 821 324 l 821 136 z "},"=":{"ha":840,"x_min":190,"x_max":810,"o":"m 190 543 l 190 718 l 810 718 l 810 543 l 190 543 m 190 235 l 190 410 l 810 410 l 810 235 l 190 235 z "},">":{"ha":840,"x_min":190,"x_max":810,"o":"m 810 403 l 190 136 l 190 325 l 554 476 l 190 629 l 190 817 l 810 550 l 810 403 z "},"?":{"ha":674,"x_min":142,"x_max":757,"o":"m 285 263 l 294 313 q 344 445 308 388 q 418 535 379 503 q 494 595 457 568 q 555 653 531 622 q 579 722 579 685 q 555 789 579 763 q 482 815 531 815 q 374 772 418 815 q 315 651 329 729 l 142 651 q 271 900 169 811 q 513 989 372 989 q 691 919 625 989 q 757 744 757 850 q 731 628 757 679 q 665 544 704 578 q 584 481 625 511 q 510 407 543 450 q 467 311 476 364 l 458 263 l 285 263 m 331 -17 q 260 11 288 -17 q 233 79 233 39 q 269 174 233 136 q 357 213 306 213 q 431 185 403 213 q 458 117 458 158 q 422 21 458 58 q 331 -17 386 -17 z "},"@":{"ha":1117,"x_min":149,"x_max":1143,"o":"m 586 -17 q 263 95 378 -17 q 149 399 149 207 q 219 685 149 551 q 428 906 289 819 q 744 992 567 992 q 1037 890 931 992 q 1143 636 1143 788 q 1043 338 1143 457 q 800 219 943 219 q 730 238 760 219 q 696 292 700 256 q 551 219 644 219 q 437 270 479 219 q 394 413 394 321 q 483 645 394 546 q 692 744 571 744 q 797 683 772 744 l 811 726 l 947 726 l 860 479 q 821 363 821 372 q 839 344 821 344 q 956 423 901 344 q 1011 618 1011 501 q 942 787 1011 721 q 736 853 872 853 q 418 724 543 853 q 293 404 293 594 q 370 197 293 275 q 594 119 447 119 q 781 142 683 119 l 717 -3 q 586 -17 650 -17 m 590 356 q 692 414 649 356 q 736 536 736 472 q 721 588 736 568 q 678 608 706 608 q 577 554 621 608 q 533 431 533 500 q 549 376 533 397 q 590 356 564 356 z "},"A":{"ha":953,"x_min":31,"x_max":929,"o":"m 31 0 l 558 972 l 743 972 l 929 0 l 736 0 l 700 201 l 340 201 l 232 0 l 31 0 m 428 372 l 671 372 l 622 643 q 618 667 621 649 q 613 699 615 685 q 610 721 610 714 q 574 646 594 686 l 428 372 z "},"B":{"ha":913,"x_min":93,"x_max":943,"o":"m 264 972 l 675 972 q 877 908 811 972 q 943 751 943 843 q 906 606 943 672 q 794 503 869 539 q 885 424 854 478 q 917 304 917 371 q 822 86 917 172 q 543 0 728 0 l 93 0 l 264 972 m 590 590 q 714 624 672 590 q 756 706 756 657 q 732 769 756 742 q 653 797 708 797 l 421 797 l 385 590 l 590 590 m 542 175 q 670 208 624 175 q 717 303 717 242 q 594 415 717 415 l 354 415 l 311 175 l 542 175 z "},"C":{"ha":849,"x_min":144,"x_max":935,"o":"m 482 -15 q 231 100 317 -15 q 144 393 144 215 q 201 684 144 550 q 368 903 257 818 q 622 988 479 988 q 827 924 749 988 q 935 768 906 861 l 767 696 q 702 778 743 749 q 614 807 661 807 q 463 742 528 807 q 369 587 399 676 q 339 404 339 497 q 378 239 339 308 q 497 169 418 169 q 613 205 563 169 q 689 290 663 240 l 854 219 q 482 -15 714 -15 z "},"D":{"ha":936,"x_min":93,"x_max":960,"o":"m 264 972 l 565 972 q 859 847 758 972 q 960 529 960 722 q 930 342 960 433 q 841 173 900 251 q 679 47 782 94 q 444 0 576 0 l 93 0 l 264 972 m 443 178 q 675 281 593 178 q 757 521 757 385 q 702 720 757 646 q 540 794 647 794 l 417 794 l 308 178 l 443 178 z "},"E":{"ha":807,"x_min":93,"x_max":901,"o":"m 93 0 l 264 972 l 901 972 l 871 794 l 424 794 l 388 590 l 647 590 l 615 413 l 356 413 l 315 178 l 790 178 l 758 0 l 93 0 z "},"F":{"ha":747,"x_min":93,"x_max":890,"o":"m 93 0 l 264 972 l 890 972 l 860 794 l 424 794 l 388 594 l 663 594 l 629 408 l 356 408 l 283 0 l 93 0 z "},"G":{"ha":901,"x_min":144,"x_max":947,"o":"m 501 -17 q 336 18 407 -17 q 225 114 265 53 q 165 251 185 175 q 144 415 144 326 q 198 696 144 568 q 363 906 251 824 q 624 989 475 989 q 947 778 846 989 l 781 688 q 608 808 721 808 q 406 691 481 808 q 331 417 331 574 q 374 233 331 303 q 511 164 418 164 q 638 206 586 164 q 708 318 690 247 l 713 335 l 542 335 l 574 503 l 943 503 l 939 475 q 501 -17 864 -17 z "},"H":{"ha":950,"x_min":93,"x_max":1029,"o":"m 93 0 l 264 972 l 454 972 l 386 589 l 771 589 l 839 972 l 1029 972 l 858 0 l 668 0 l 740 411 l 356 411 l 283 0 l 93 0 z "},"I":{"ha":375,"x_min":93,"x_max":454,"o":"m 93 0 l 264 972 l 454 972 l 283 0 l 93 0 z "},"J":{"ha":739,"x_min":50,"x_max":818,"o":"m 368 -17 q 161 40 243 -17 q 50 197 79 97 l 217 272 q 361 165 260 165 q 514 326 486 165 l 628 972 l 818 972 l 697 285 q 644 131 682 194 q 556 38 606 68 q 460 -4 506 8 q 368 -17 415 -17 z "},"K":{"ha":940,"x_min":93,"x_max":1028,"o":"m 697 0 l 539 461 l 325 238 l 283 0 l 93 0 l 264 972 l 454 972 l 376 529 l 800 972 l 1028 972 l 681 608 l 899 0 l 697 0 z "},"L":{"ha":731,"x_min":93,"x_max":760,"o":"m 93 0 l 264 972 l 454 972 l 314 178 l 760 178 l 728 0 l 93 0 z "},"M":{"ha":1067,"x_min":93,"x_max":1146,"o":"m 531 -17 l 393 500 q 379 576 381 568 q 368 500 375 535 l 281 0 l 93 0 l 264 972 l 456 972 l 578 472 q 594 383 586 439 q 632 454 606 410 l 957 972 l 1146 972 l 975 0 l 786 0 l 874 500 q 890 576 886 563 q 849 500 867 528 l 531 -17 z "},"N":{"ha":943,"x_min":93,"x_max":1022,"o":"m 93 0 l 264 972 l 440 972 l 703 413 q 729 339 722 371 q 738 413 731 368 l 836 972 l 1022 972 l 851 0 l 685 0 l 414 567 q 388 640 403 590 q 379 567 388 608 l 279 0 l 93 0 z "},"O":{"ha":960,"x_min":144,"x_max":983,"o":"m 518 -17 q 345 19 419 -17 q 228 117 271 56 q 165 253 186 179 q 144 414 144 328 q 199 697 144 568 q 363 908 253 826 q 621 989 474 989 q 890 865 797 989 q 983 565 983 742 q 855 152 983 321 q 518 -17 726 -17 m 517 164 q 719 280 642 164 q 797 565 797 396 q 751 737 797 665 q 608 808 704 808 q 407 689 483 808 q 331 414 331 569 q 376 237 331 310 q 517 164 422 164 z "},"P":{"ha":854,"x_min":93,"x_max":944,"o":"m 93 0 l 264 972 l 671 972 q 877 890 810 972 q 944 694 944 807 q 847 456 944 554 q 583 358 750 358 l 346 358 l 283 0 l 93 0 m 603 536 q 714 580 676 536 q 751 676 751 624 q 649 794 751 794 l 424 794 l 378 536 l 603 536 z "},"Q":{"ha":960,"x_min":144,"x_max":983,"o":"m 675 -117 l 622 -4 q 518 -17 572 -17 q 345 19 419 -17 q 228 117 271 56 q 165 253 186 179 q 144 414 144 328 q 199 697 144 568 q 363 908 253 826 q 621 989 474 989 q 890 865 797 989 q 983 565 983 742 q 930 283 983 413 q 779 75 876 153 l 832 -36 l 675 -117 m 517 164 q 542 165 533 164 l 488 281 l 647 360 l 697 250 q 797 565 797 365 q 751 737 797 665 q 608 808 704 808 q 407 689 483 808 q 331 414 331 569 q 376 237 331 310 q 517 164 422 164 z "},"R":{"ha":903,"x_min":93,"x_max":972,"o":"m 972 683 q 953 565 972 622 q 879 451 935 507 q 736 375 824 396 l 833 0 l 629 0 l 538 363 l 347 363 l 283 0 l 93 0 l 264 972 l 692 972 q 823 947 767 972 q 911 880 879 922 q 958 788 943 838 q 972 683 972 739 m 628 540 q 746 581 713 540 q 779 676 779 622 q 752 762 779 729 q 668 794 725 794 l 422 794 l 378 540 l 628 540 z "},"S":{"ha":811,"x_min":100,"x_max":839,"o":"m 668 708 q 622 785 658 756 q 526 815 585 815 q 426 788 463 815 q 390 718 390 760 q 433 652 390 681 q 535 599 475 624 q 657 541 596 574 q 760 445 718 508 q 803 293 803 382 q 700 69 803 154 q 428 -17 597 -17 q 215 56 299 -17 q 100 250 132 129 l 274 314 q 339 202 297 240 q 454 164 381 164 q 563 194 521 164 q 604 275 604 224 q 563 356 604 322 q 462 415 521 390 q 343 470 403 439 q 242 562 283 501 q 200 708 200 622 q 292 910 200 831 q 539 989 383 989 q 749 923 675 989 q 839 764 824 857 l 668 708 z "},"T":{"ha":797,"x_min":182,"x_max":926,"o":"m 633 792 l 493 0 l 304 0 l 444 792 l 182 792 l 213 972 l 926 972 l 896 792 l 633 792 z "},"U":{"ha":943,"x_min":154,"x_max":1028,"o":"m 490 -17 q 249 62 343 -17 q 154 294 154 140 q 169 439 154 350 l 265 972 l 453 972 l 354 404 q 343 313 343 342 q 388 201 343 235 q 504 167 433 167 q 656 213 597 167 q 735 372 715 258 l 840 972 l 1028 972 l 919 356 q 860 171 900 246 q 762 56 821 96 q 638 0 703 17 q 490 -17 574 -17 z "},"V":{"ha":904,"x_min":206,"x_max":1047,"o":"m 365 0 l 206 972 l 401 972 l 488 390 q 499 254 499 307 q 551 383 522 325 l 844 972 l 1047 972 l 560 0 l 365 0 z "},"W":{"ha":1126,"x_min":208,"x_max":1263,"o":"m 238 0 l 208 972 l 399 972 l 400 425 q 399 384 400 407 q 399 353 399 361 q 425 426 406 379 l 649 972 l 810 972 l 844 426 q 846 353 846 401 q 871 425 853 376 l 1067 972 l 1263 972 l 892 0 l 719 0 l 678 536 q 675 646 675 581 q 636 543 664 608 l 410 0 l 238 0 z "},"X":{"ha":914,"x_min":39,"x_max":1026,"o":"m 39 0 l 435 510 l 238 972 l 449 972 l 571 685 l 796 972 l 1026 972 l 653 493 l 865 0 l 654 0 l 517 318 l 269 0 l 39 0 z "},"Y":{"ha":914,"x_min":190,"x_max":1063,"o":"m 361 0 l 431 392 l 190 972 l 388 972 l 549 575 l 849 972 l 1063 972 l 619 388 l 551 0 l 361 0 z "},"Z":{"ha":850,"x_min":56,"x_max":953,"o":"m 56 0 l 81 143 l 668 794 l 225 794 l 256 972 l 953 972 l 928 829 l 336 178 l 814 178 l 782 0 l 56 0 z "},"[":{"ha":519,"x_min":99,"x_max":642,"o":"m 99 -181 l 306 989 l 642 989 l 611 815 l 453 815 l 307 -7 l 465 -7 l 435 -181 l 99 -181 z "},"\\":{"ha":696,"x_min":156,"x_max":649,"o":"m 472 -181 l 156 989 l 331 989 l 649 -181 l 472 -181 z "},"]":{"ha":519,"x_min":22,"x_max":565,"o":"m 22 -181 l 53 -7 l 211 -7 l 357 815 l 199 815 l 229 989 l 565 989 l 358 -181 l 22 -181 z "},"^":{"ha":840,"x_min":165,"x_max":843,"o":"m 665 472 l 504 754 l 343 472 l 165 472 l 439 989 l 569 989 l 843 472 l 665 472 z "},"_":{"ha":667,"x_min":-50,"x_max":654,"o":"m -50 -246 l -26 -107 l 654 -107 l 631 -246 l -50 -246 z "},"`":{"ha":633,"x_min":299,"x_max":674,"o":"m 504 800 l 299 1017 l 522 1017 l 674 800 l 504 800 z "},"a":{"ha":731,"x_min":82,"x_max":739,"o":"m 479 0 l 490 56 q 410 4 461 25 q 301 -17 358 -17 q 145 40 208 -17 q 82 190 82 96 q 169 382 82 311 q 399 453 256 453 q 551 411 483 453 l 557 439 q 563 483 563 465 q 457 568 563 568 q 233 497 347 568 l 207 643 q 486 726 339 726 q 565 717 525 726 q 646 684 604 707 q 713 615 688 661 q 739 506 739 569 q 729 422 739 481 l 656 0 l 479 0 m 351 142 q 514 200 443 142 l 528 275 q 396 300 471 300 q 299 277 339 300 q 260 207 260 254 q 285 160 260 178 q 351 142 310 142 z "},"b":{"ha":754,"x_min":93,"x_max":775,"o":"m 429 -17 q 336 6 378 -17 q 278 61 294 28 l 267 0 l 93 0 l 258 943 l 449 1003 l 388 658 q 544 726 449 726 q 709 643 643 726 q 775 418 775 560 q 673 97 775 211 q 429 -17 571 -17 m 414 157 q 545 228 496 157 q 594 403 594 299 q 563 513 594 474 q 476 553 531 553 q 408 535 442 553 q 358 494 375 517 l 308 213 q 414 157 339 157 z "},"c":{"ha":715,"x_min":111,"x_max":746,"o":"m 390 -17 q 185 71 260 -17 q 111 299 111 158 q 215 602 111 478 q 485 726 318 726 q 656 669 586 726 q 746 518 725 611 l 571 461 q 463 553 551 553 q 342 483 390 553 q 293 313 293 414 q 322 201 293 246 q 401 157 350 157 q 536 260 494 157 l 697 207 q 577 43 660 103 q 390 -17 494 -17 z "},"d":{"ha":754,"x_min":113,"x_max":844,"o":"m 339 -17 q 173 63 233 -17 q 113 275 113 143 q 217 604 113 482 q 464 726 321 726 q 604 658 564 726 l 654 943 l 844 1003 l 668 0 l 493 0 l 504 64 q 339 -17 446 -17 m 401 157 q 528 215 481 157 l 576 493 q 474 553 550 553 q 340 481 389 553 q 290 300 290 408 q 318 195 290 233 q 401 157 346 157 z "},"e":{"ha":733,"x_min":99,"x_max":760,"o":"m 394 -17 q 178 62 258 -17 q 99 286 99 140 q 205 594 99 461 q 488 726 311 726 q 688 647 615 726 q 760 442 760 568 q 733 285 760 360 l 281 285 l 281 271 q 320 176 281 211 q 417 142 360 142 q 576 215 507 142 l 668 99 q 394 -17 557 -17 m 307 438 l 588 438 q 585 471 588 451 q 468 568 567 568 q 366 535 408 568 q 307 438 324 501 z "},"f":{"ha":468,"x_min":132,"x_max":622,"o":"m 407 551 l 310 0 l 132 0 l 229 551 l 138 551 l 165 710 l 257 710 l 276 818 q 323 924 288 883 q 397 978 358 965 q 478 992 435 992 q 622 954 554 992 l 596 807 q 503 831 540 831 q 447 782 457 831 l 435 710 l 572 710 l 544 551 l 407 551 z "},"g":{"ha":754,"x_min":113,"x_max":796,"o":"m 221 -128 q 411 -85 347 -119 q 490 18 475 -50 l 497 51 q 339 -17 440 -17 q 174 63 235 -17 q 113 275 113 142 q 214 600 113 474 q 464 726 315 726 q 604 657 560 726 l 613 710 l 796 710 l 675 39 q 553 -194 646 -124 q 283 -278 460 -264 l 221 -128 m 397 157 q 525 214 475 157 l 575 494 q 467 553 540 553 q 338 482 385 553 q 290 300 290 411 q 317 198 290 239 q 397 157 344 157 z "},"h":{"ha":774,"x_min":93,"x_max":768,"o":"m 93 0 l 258 943 l 449 1003 l 383 638 q 560 726 453 726 q 715 663 661 726 q 768 503 768 600 q 757 406 768 467 l 685 0 l 507 0 l 576 392 q 583 460 583 436 q 493 557 583 557 q 399 519 443 557 q 343 408 356 482 l 271 0 l 93 0 z "},"i":{"ha":363,"x_min":93,"x_max":440,"o":"m 324 794 q 262 819 286 794 q 238 881 238 844 q 273 965 238 929 q 351 1001 308 1001 q 416 976 392 1001 q 440 915 440 951 q 405 831 440 867 q 324 794 369 794 m 93 0 l 218 710 l 397 710 l 272 0 l 93 0 z "},"j":{"ha":363,"x_min":-117,"x_max":438,"o":"m 321 794 q 259 819 283 794 q 235 881 235 844 q 270 965 235 929 q 349 1001 306 1001 q 413 976 389 1001 q 438 915 438 951 q 402 831 438 867 q 321 794 367 794 m -54 -307 l -117 -157 q 35 -103 -12 -140 q 96 14 82 -65 l 218 710 l 397 710 l 276 32 q 183 -195 250 -118 q -54 -307 117 -272 z "},"k":{"ha":740,"x_min":93,"x_max":800,"o":"m 547 492 l 706 0 l 518 0 l 403 367 l 324 297 l 271 0 l 93 0 l 258 943 l 449 1003 l 365 529 l 568 710 l 800 710 l 547 492 z "},"l":{"ha":372,"x_min":93,"x_max":449,"o":"m 93 0 l 258 943 l 449 1003 l 271 0 l 93 0 z "},"m":{"ha":1164,"x_min":93,"x_max":1158,"o":"m 93 0 l 218 710 l 393 710 l 382 644 q 567 726 454 726 q 660 698 618 726 q 721 622 701 669 q 946 726 808 726 q 1092 674 1025 726 q 1158 511 1158 621 q 1153 446 1158 478 l 1074 0 l 890 0 l 964 418 q 968 458 968 442 q 941 534 968 513 q 883 556 914 556 q 837 547 861 556 q 785 506 813 539 q 747 419 757 472 l 674 0 l 490 0 l 564 418 q 568 458 568 442 q 541 534 568 513 q 483 556 514 556 q 450 550 468 556 q 410 531 432 544 q 369 489 388 518 q 344 419 351 460 l 271 0 l 93 0 z "},"n":{"ha":774,"x_min":93,"x_max":768,"o":"m 93 0 l 218 710 l 397 710 l 385 639 q 560 726 453 726 q 715 663 661 726 q 768 503 768 600 q 757 406 768 467 l 685 0 l 507 0 l 576 392 q 583 460 583 436 q 493 557 583 557 q 399 519 443 557 q 343 408 356 482 l 271 0 l 93 0 z "},"o":{"ha":746,"x_min":113,"x_max":758,"o":"m 393 -17 q 183 63 254 -17 q 113 294 113 143 q 217 606 113 485 q 488 726 321 726 q 685 643 613 726 q 758 424 758 560 q 656 106 758 228 q 393 -17 554 -17 m 408 158 q 531 225 482 158 q 581 393 581 292 q 461 553 581 553 q 340 485 389 553 q 290 321 290 418 q 408 158 290 158 z "},"p":{"ha":754,"x_min":43,"x_max":772,"o":"m 425 -17 q 281 51 325 -17 l 233 -218 l 43 -278 l 217 710 l 396 710 l 385 653 q 547 726 449 726 q 708 646 643 726 q 772 429 772 565 q 669 103 772 222 q 425 -17 565 -17 m 417 157 q 546 226 497 157 q 594 410 594 296 q 566 515 594 476 q 481 553 538 553 q 410 534 446 553 q 356 488 374 515 l 308 215 q 417 157 335 157 z "},"q":{"ha":754,"x_min":110,"x_max":792,"o":"m 332 -17 q 172 67 233 -17 q 110 292 110 151 q 214 608 110 490 q 458 726 318 726 q 604 650 564 726 l 614 710 l 792 710 l 629 -218 l 439 -278 l 497 51 q 332 -17 433 -17 m 403 157 q 475 174 442 157 q 526 215 508 192 l 575 493 q 540 535 567 517 q 479 553 514 553 q 344 482 397 553 q 290 307 290 411 q 319 197 290 236 q 403 157 349 157 z "},"r":{"ha":558,"x_min":89,"x_max":650,"o":"m 89 0 l 214 710 l 392 710 l 379 643 q 440 703 400 679 q 526 728 479 728 q 650 672 597 728 l 597 507 q 486 551 547 551 q 394 515 436 551 q 336 396 351 479 l 267 0 l 89 0 z "},"s":{"ha":644,"x_min":69,"x_max":672,"o":"m 335 -17 q 174 19 247 -17 q 69 114 100 56 l 199 213 q 353 136 261 136 q 424 152 394 136 q 454 200 454 168 q 407 256 454 228 q 303 308 360 285 q 199 383 246 332 q 151 501 151 433 q 231 665 151 604 q 435 726 310 726 q 578 692 514 726 q 672 613 642 657 l 538 514 q 415 576 494 576 q 350 560 375 576 q 325 515 325 543 q 357 474 325 494 q 434 434 389 454 q 524 388 479 414 q 600 317 568 361 q 632 218 632 274 q 552 46 632 108 q 335 -17 472 -17 z "},"t":{"ha":510,"x_min":115,"x_max":581,"o":"m 306 -17 q 198 21 239 -17 q 157 119 157 58 q 168 225 157 165 l 225 551 l 115 551 l 143 710 l 253 710 l 293 943 l 482 1003 l 431 710 l 581 710 l 553 551 l 403 551 l 347 236 q 339 179 339 190 q 388 139 339 139 q 493 167 429 139 l 460 14 q 306 -17 392 -17 z "},"u":{"ha":774,"x_min":122,"x_max":811,"o":"m 508 0 l 519 67 q 315 -17 440 -17 q 181 40 239 -17 q 122 204 122 97 q 129 276 122 232 l 206 710 l 385 710 l 315 318 q 307 251 307 274 q 399 157 307 157 q 503 190 458 157 q 560 290 549 222 l 633 710 l 811 710 l 686 0 l 508 0 z "},"v":{"ha":732,"x_min":151,"x_max":838,"o":"m 279 0 l 151 710 l 331 710 l 399 289 q 406 224 404 249 q 436 289 425 268 l 651 710 l 838 710 l 469 0 l 279 0 z "},"w":{"ha":988,"x_min":158,"x_max":1079,"o":"m 229 0 l 158 710 l 329 710 l 349 364 q 350 271 350 336 q 386 364 356 288 l 532 710 l 700 710 l 728 364 q 731 271 731 336 q 747 315 735 282 q 765 364 758 349 l 904 710 l 1079 710 l 776 0 l 617 0 l 582 354 q 578 460 578 392 q 538 354 554 392 l 388 0 l 229 0 z "},"x":{"ha":774,"x_min":39,"x_max":843,"o":"m 39 0 l 349 372 l 178 710 l 371 710 l 468 515 l 631 710 l 843 710 l 549 357 l 731 0 l 538 0 l 429 214 l 251 0 l 39 0 z "},"y":{"ha":746,"x_min":131,"x_max":861,"o":"m 131 -269 l 285 14 l 151 710 l 329 710 l 406 300 q 415 235 414 261 q 446 300 424 258 l 668 710 l 861 710 l 326 -269 l 131 -269 z "},"z":{"ha":701,"x_min":63,"x_max":760,"o":"m 63 0 l 88 142 l 497 549 l 185 549 l 213 710 l 760 710 l 736 572 l 325 161 l 661 161 l 633 0 l 63 0 z "},"{":{"ha":507,"x_min":110,"x_max":628,"o":"m 421 -181 q 235 -107 303 -171 q 168 78 168 -43 q 176 167 168 119 l 189 236 q 192 265 192 256 q 150 322 192 322 l 110 322 l 139 486 l 179 486 q 222 510 204 486 q 247 572 240 533 l 268 694 q 385 910 293 832 q 628 989 478 989 l 599 822 q 440 686 464 815 l 422 586 q 394 488 411 526 q 351 433 378 450 q 305 412 325 417 q 249 404 285 407 l 247 400 q 364 271 364 386 q 358 221 364 260 l 339 111 q 336 82 336 92 q 450 -18 336 -12 l 421 -181 z "},"|":{"ha":400,"x_min":196,"x_max":376,"o":"m 196 -525 l 196 1475 l 376 1475 l 376 -525 l 196 -525 z "},"}":{"ha":507,"x_min":21,"x_max":539,"o":"m 21 -181 l 51 -14 q 208 124 188 -7 l 225 221 q 284 363 242 318 q 407 408 326 408 l 408 413 q 322 460 353 422 q 290 557 290 499 q 293 590 290 568 l 310 686 q 311 697 310 690 q 313 710 313 704 q 314 719 314 715 q 199 826 314 819 l 228 989 q 417 924 350 986 q 485 744 485 861 q 476 663 485 706 l 461 572 q 458 532 458 550 q 500 486 458 486 l 539 486 l 510 322 l 475 322 q 403 236 417 322 l 376 92 q 263 -109 353 -37 q 21 -181 172 -181 z "},"~":{"ha":840,"x_min":193,"x_max":817,"o":"m 629 351 q 492 389 568 351 q 389 426 415 426 q 329 351 336 426 l 193 351 q 240 531 193 460 q 381 603 286 603 q 516 565 442 603 q 621 528 590 528 q 681 603 674 528 l 817 603 q 771 422 817 493 q 629 351 725 351 z "}," ":{"ha":307,"x_min":0,"x_max":0,"o":""},"¡":{"ha":400,"x_min":67,"x_max":421,"o":"m 297 499 q 223 526 250 499 q 196 594 196 553 q 232 690 196 653 q 324 728 268 728 q 394 700 367 728 q 421 632 421 672 q 385 537 421 575 q 297 499 349 499 m 67 -278 l 122 36 l 231 443 l 329 443 l 294 36 l 239 -278 l 67 -278 z "},"¢":{"ha":729,"x_min":142,"x_max":776,"o":"m 276 -17 l 303 135 q 183 246 225 168 q 142 429 142 324 q 219 698 142 582 q 428 846 297 814 l 454 989 l 621 989 l 594 846 q 713 774 665 826 q 776 649 761 722 l 601 592 q 493 683 582 683 q 372 614 421 683 q 324 443 324 544 q 352 332 324 376 q 432 288 381 288 q 567 390 525 288 l 725 339 q 624 190 693 247 q 467 118 556 132 l 443 -17 l 276 -17 z "},"£":{"ha":800,"x_min":106,"x_max":910,"o":"m 106 0 l 136 172 q 228 255 192 197 q 279 374 265 313 l 165 374 l 196 540 l 274 540 q 265 590 274 544 q 257 667 257 635 q 351 895 257 801 q 629 989 444 989 q 910 886 792 989 l 815 719 q 726 785 782 754 q 603 815 669 815 q 478 776 518 815 q 438 676 438 736 q 448 610 438 661 q 461 540 458 560 l 688 540 l 657 374 l 461 374 q 356 176 438 264 l 790 176 l 760 0 l 106 0 z "},"¤":{"ha":867,"x_min":83,"x_max":946,"o":"m 454 118 q 297 158 363 118 l 189 61 l 83 196 l 199 297 q 188 392 188 339 q 260 628 188 515 l 178 732 l 325 863 l 401 765 q 575 807 485 807 q 731 765 669 807 l 839 863 l 946 728 l 831 626 q 840 524 840 581 q 769 293 840 400 l 851 192 l 703 61 l 625 160 q 454 118 544 118 m 485 294 q 610 353 558 294 q 661 496 661 411 q 630 592 661 554 q 544 631 599 631 q 419 572 471 631 q 368 429 368 514 q 400 333 368 371 q 485 294 432 294 z "},"¥":{"ha":811,"x_min":160,"x_max":961,"o":"m 600 478 l 757 478 l 732 342 l 553 342 l 538 251 l 717 251 l 693 115 l 514 115 l 493 0 l 317 0 l 338 115 l 160 115 l 183 251 l 361 251 l 376 342 l 199 342 l 224 478 l 379 478 l 190 972 l 385 972 l 511 626 l 753 972 l 961 972 l 600 478 z "},"¦":{"ha":400,"x_min":197,"x_max":378,"o":"m 197 508 l 197 1146 l 378 1146 l 378 508 l 197 508 m 197 -312 l 197 325 l 378 325 l 378 -312 l 197 -312 z "},"§":{"ha":707,"x_min":60,"x_max":763,"o":"m 356 -167 q 179 -124 257 -167 q 60 -4 101 -81 l 210 90 q 360 7 268 7 q 442 26 410 7 q 474 83 474 44 q 435 139 474 113 q 313 207 397 165 q 253 239 276 225 q 203 276 229 253 q 165 329 178 299 q 151 397 151 360 q 269 583 151 511 q 208 735 208 642 q 293 918 208 847 q 506 989 378 989 q 660 953 592 989 q 763 863 728 918 l 617 757 q 494 815 569 815 q 422 797 450 815 q 394 750 394 779 q 431 700 394 724 q 539 644 467 676 q 669 564 622 608 q 715 442 715 519 q 613 251 715 318 q 667 99 667 190 q 583 -90 667 -12 q 356 -167 500 -167 m 494 338 q 529 394 529 353 q 495 448 529 425 q 394 497 461 471 q 340 444 340 486 q 376 395 340 418 q 494 338 413 372 z "},"¨":{"ha":633,"x_min":282,"x_max":735,"o":"m 367 807 q 306 831 329 807 q 282 892 282 856 q 317 974 282 939 q 393 1010 351 1010 q 457 985 433 1010 q 481 925 481 961 q 446 842 481 876 q 367 807 411 807 m 621 807 q 559 831 582 807 q 536 892 536 856 q 570 975 536 940 q 649 1010 604 1010 q 711 985 688 1010 q 735 925 735 961 q 699 842 735 878 q 621 807 664 807 z "},"©":{"ha":1125,"x_min":139,"x_max":1144,"o":"m 1000 128 q 928 56 1000 128 q 642 -17 856 -17 q 283 128 428 -17 q 139 486 139 272 q 283 844 139 700 q 642 989 428 989 q 1000 844 856 989 q 1144 486 1144 700 q 1000 128 1144 272 m 373 213 q 426 158 373 213 q 642 103 479 103 q 910 213 804 103 q 1017 486 1017 322 q 910 760 1017 650 q 642 869 804 869 q 373 760 479 869 q 267 486 267 650 q 373 213 267 322 m 646 183 q 527 209 578 183 q 449 280 476 235 q 408 376 421 325 q 394 486 394 428 q 457 697 394 606 q 646 789 519 789 q 856 660 794 789 l 729 600 q 646 653 697 653 q 566 602 592 653 q 540 486 540 551 q 568 370 540 421 q 646 319 596 319 q 729 372 700 319 l 857 328 q 646 183 792 183 z "},"ª":{"ha":588,"x_min":153,"x_max":657,"o":"m 444 393 l 451 435 q 319 379 404 379 q 201 424 250 379 q 153 551 153 469 q 221 710 153 654 q 382 767 289 767 q 506 739 458 767 l 510 767 q 513 792 513 786 q 433 860 513 860 q 264 801 351 860 l 242 921 q 472 989 347 989 q 602 947 547 989 q 657 814 657 904 q 651 760 657 786 l 588 393 l 444 393 m 353 507 q 474 557 415 507 l 485 619 q 385 642 438 642 q 314 622 343 642 q 285 565 285 601 q 303 524 285 540 q 353 507 322 507 z "},"«":{"ha":750,"x_min":103,"x_max":854,"o":"m 243 0 l 103 356 l 368 710 l 554 710 l 285 347 l 422 0 l 243 0 m 543 0 l 403 356 l 668 710 l 854 710 l 585 347 l 722 0 l 543 0 z "},"¬":{"ha":840,"x_min":190,"x_max":810,"o":"m 629 224 l 629 492 l 190 492 l 190 667 l 810 667 l 810 224 l 629 224 z "},"­":{"ha":550,"x_min":157,"x_max":538,"o":"m 157 324 l 188 497 l 538 497 l 507 324 l 157 324 z "},"®":{"ha":1125,"x_min":139,"x_max":1144,"o":"m 1000 128 q 928 56 1000 128 q 642 -17 856 -17 q 283 128 428 -17 q 139 486 139 272 q 283 844 139 700 q 642 989 428 989 q 1000 844 856 989 q 1144 486 1144 700 q 1000 128 1144 272 m 373 213 q 426 158 373 213 q 642 103 479 103 q 910 213 804 103 q 1017 486 1017 322 q 910 760 1017 650 q 642 869 804 869 q 373 760 479 869 q 267 486 267 650 q 373 213 267 322 m 432 193 l 432 779 l 681 779 q 829 727 785 779 q 874 596 874 675 q 844 495 874 540 q 753 429 814 450 l 888 193 l 738 193 l 617 413 l 574 413 l 574 193 l 432 193 m 574 542 l 672 542 q 715 558 701 542 q 729 596 729 574 q 716 633 729 617 q 672 650 703 650 l 574 650 l 574 542 z "},"¯":{"ha":633,"x_min":292,"x_max":757,"o":"m 292 814 l 317 961 l 757 961 l 732 814 l 292 814 z "},"°":{"ha":550,"x_min":178,"x_max":685,"o":"m 421 610 q 243 679 308 610 q 178 858 178 749 q 255 1051 178 974 q 442 1128 332 1128 q 619 1058 554 1128 q 685 879 685 989 q 608 687 685 764 q 421 610 531 610 m 421 776 q 490 806 461 776 q 518 879 518 835 q 498 938 518 915 q 442 961 478 961 q 373 932 401 961 q 344 858 344 903 q 365 799 344 822 q 421 776 385 776 z "},"±":{"ha":840,"x_min":192,"x_max":811,"o":"m 592 468 l 592 267 l 411 267 l 411 468 l 192 468 l 192 643 l 411 643 l 411 844 l 592 844 l 592 643 l 811 643 l 811 468 l 592 468 m 192 0 l 192 175 l 811 175 l 811 0 l 192 0 z "},"²":{"ha":493,"x_min":140,"x_max":631,"o":"m 140 617 q 217 813 163 739 q 397 960 271 888 q 472 1032 472 1003 q 428 1074 472 1074 q 343 1006 374 1074 l 217 1039 q 317 1165 253 1118 q 461 1213 382 1213 q 585 1165 539 1213 q 631 1051 631 1117 q 597 947 631 989 q 468 847 563 904 q 356 758 379 793 l 575 758 l 550 617 l 140 617 z "},"³":{"ha":474,"x_min":154,"x_max":599,"o":"m 293 814 q 315 761 296 779 q 363 743 333 743 q 409 759 392 743 q 426 800 426 775 q 365 854 426 854 l 313 854 l 336 982 l 383 982 q 431 999 414 982 q 449 1038 449 1015 q 437 1065 449 1054 q 407 1076 425 1076 q 338 1026 367 1076 l 224 1074 q 446 1213 303 1213 q 556 1172 514 1213 q 599 1072 599 1131 q 570 981 599 1021 q 503 921 542 940 q 551 875 531 908 q 572 797 572 842 q 512 662 572 717 q 354 607 451 607 q 154 778 182 607 l 293 814 z "},"´":{"ha":633,"x_min":325,"x_max":775,"o":"m 493 800 l 325 800 l 551 1017 l 775 1017 l 493 800 z "},"µ":{"ha":774,"x_min":36,"x_max":811,"o":"m 508 0 l 519 67 q 363 -17 461 -17 q 268 21 303 -17 l 226 -218 l 36 -278 l 210 710 l 385 710 l 315 315 q 308 254 308 281 q 404 157 308 157 q 504 193 461 157 q 561 307 547 229 l 633 710 l 811 710 l 686 0 l 508 0 z "},"¶":{"ha":863,"x_min":139,"x_max":933,"o":"m 264 -278 l 379 381 q 201 460 264 386 q 139 638 139 533 q 158 749 139 693 q 216 856 176 804 q 328 940 256 908 q 496 972 400 972 l 933 972 l 750 -67 l 561 -150 l 728 799 l 629 799 l 454 -194 l 264 -278 z "},"·":{"ha":321,"x_min":133,"x_max":358,"o":"m 231 371 q 160 399 188 371 q 133 467 133 426 q 169 562 133 524 q 257 600 206 600 q 331 572 303 600 q 358 504 358 544 q 322 408 358 446 q 231 371 286 371 z "},"¸":{"ha":633,"x_min":103,"x_max":450,"o":"m 239 -339 q 103 -274 142 -339 l 189 -215 q 239 -242 204 -242 q 294 -224 274 -242 q 314 -179 314 -207 q 257 -133 314 -133 q 196 -153 226 -133 l 167 -107 l 286 14 l 379 14 l 318 -64 q 417 -93 383 -64 q 450 -168 450 -122 q 392 -290 450 -242 q 239 -339 335 -339 z "},"¹":{"ha":299,"x_min":190,"x_max":440,"o":"m 190 617 l 267 1047 l 199 1047 l 219 1163 q 325 1203 293 1163 l 440 1203 l 336 617 l 190 617 z "},"º":{"ha":619,"x_min":165,"x_max":696,"o":"m 385 379 q 226 447 286 379 q 165 628 165 514 q 251 890 165 792 q 479 989 336 989 q 636 921 576 989 q 696 739 696 853 q 611 478 696 576 q 385 379 526 379 m 403 521 q 509 576 468 521 q 550 714 550 631 q 527 813 550 778 q 461 847 504 847 q 353 792 394 847 q 311 654 311 738 q 403 521 311 521 z "},"»":{"ha":750,"x_min":13,"x_max":772,"o":"m 13 0 l 286 365 l 154 710 l 332 710 l 472 356 l 207 0 l 13 0 m 313 0 l 586 365 l 454 710 l 632 710 l 772 356 l 507 0 l 313 0 z "},"¼":{"ha":999,"x_min":21,"x_max":1008,"o":"m 21 -17 l 836 989 l 1008 989 l 193 -17 l 21 -17 m 151 393 l 228 824 l 160 824 l 179 939 q 285 979 253 939 l 400 979 l 297 393 l 151 393 m 736 0 l 756 111 l 482 111 l 500 211 l 840 586 l 974 586 l 913 239 l 988 239 l 965 111 l 890 111 l 871 0 l 736 0 m 778 239 l 807 400 l 660 239 l 778 239 z "},"½":{"ha":1054,"x_min":21,"x_max":1060,"o":"m 21 -17 l 836 989 l 1008 989 l 193 -17 l 21 -17 m 151 393 l 228 824 l 160 824 l 179 939 q 285 979 253 939 l 400 979 l 297 393 l 151 393 m 649 422 q 749 549 685 501 q 893 596 814 596 q 1015 554 969 596 q 1060 446 1060 513 q 1047 365 1060 399 q 1003 303 1035 331 q 949 263 972 276 q 875 224 925 249 q 771 142 797 183 l 1007 142 l 982 0 l 572 0 q 829 343 614 238 q 867 363 854 356 q 892 386 879 371 q 904 418 904 401 q 861 457 904 457 q 774 389 807 457 l 649 422 z "},"¾":{"ha":1161,"x_min":114,"x_max":1171,"o":"m 294 383 q 171 428 217 383 q 114 554 125 474 l 254 590 q 319 519 260 519 q 369 538 350 519 q 388 586 388 557 q 325 631 388 631 l 274 631 l 296 758 l 346 758 q 394 774 378 758 q 410 814 410 790 q 369 853 410 853 q 299 803 328 853 l 185 850 q 281 952 222 915 q 407 989 339 989 q 519 949 479 989 q 558 849 558 908 q 531 757 558 797 q 464 697 503 717 q 532 589 532 668 q 467 442 532 500 q 294 383 401 383 m 183 -17 l 999 989 l 1171 989 l 356 -17 l 183 -17 m 899 0 l 918 111 l 644 111 l 663 211 l 1003 586 l 1136 586 l 1075 239 l 1150 239 l 1128 111 l 1053 111 l 1033 0 l 899 0 m 940 239 l 969 400 l 822 239 l 940 239 z "},"¿":{"ha":674,"x_min":43,"x_max":658,"o":"m 443 499 q 369 526 397 499 q 342 594 342 553 q 378 690 342 653 q 469 728 414 728 q 540 700 513 728 q 567 632 567 672 q 531 537 567 575 q 443 499 494 499 m 288 -278 q 109 -208 175 -278 q 43 -33 43 -139 q 69 83 43 32 q 135 167 96 133 q 216 231 175 200 q 290 304 257 261 q 333 400 324 347 l 342 449 l 515 449 l 506 399 q 456 266 492 324 q 382 176 421 208 q 306 116 343 143 q 245 58 269 89 q 221 -11 221 26 q 245 -78 221 -51 q 318 -104 269 -104 q 426 -61 382 -104 q 485 60 471 -18 l 658 60 q 529 -189 631 -100 q 288 -278 428 -278 z "},"À":{"ha":953,"x_min":31,"x_max":929,"o":"m 588 1064 l 382 1281 l 606 1281 l 757 1064 l 588 1064 m 31 0 l 558 972 l 743 972 l 929 0 l 736 0 l 700 201 l 340 201 l 232 0 l 31 0 m 428 372 l 671 372 l 622 643 q 618 667 621 649 q 613 699 615 685 q 610 721 610 714 q 574 646 594 686 l 428 372 z "},"Á":{"ha":953,"x_min":31,"x_max":1014,"o":"m 732 1064 l 564 1064 l 790 1281 l 1014 1281 l 732 1064 m 31 0 l 558 972 l 743 972 l 929 0 l 736 0 l 700 201 l 340 201 l 232 0 l 31 0 m 428 372 l 671 372 l 622 643 q 618 667 621 649 q 613 699 615 685 q 610 721 610 714 q 574 646 594 686 l 428 372 z "},"Â":{"ha":953,"x_min":31,"x_max":940,"o":"m 781 1064 l 686 1160 l 557 1064 l 397 1064 l 624 1281 l 790 1281 l 940 1064 l 781 1064 m 31 0 l 558 972 l 743 972 l 929 0 l 736 0 l 700 201 l 340 201 l 232 0 l 31 0 m 428 372 l 671 372 l 622 643 q 618 667 621 649 q 613 699 615 685 q 610 721 610 714 q 574 646 594 686 l 428 372 z "},"Ã":{"ha":953,"x_min":31,"x_max":971,"o":"m 783 1074 q 669 1106 733 1074 q 575 1138 606 1138 q 503 1079 517 1138 l 421 1079 q 608 1271 454 1271 q 722 1239 658 1271 q 817 1207 786 1207 q 889 1265 875 1207 l 971 1265 q 783 1074 938 1074 m 31 0 l 558 972 l 743 972 l 929 0 l 736 0 l 700 201 l 340 201 l 232 0 l 31 0 m 428 372 l 671 372 l 622 643 q 618 667 621 649 q 613 699 615 685 q 610 721 610 714 q 574 646 594 686 l 428 372 z "},"Ä":{"ha":953,"x_min":31,"x_max":929,"o":"m 546 1071 q 485 1095 508 1071 q 461 1156 461 1119 q 496 1238 461 1203 q 572 1274 531 1274 q 636 1249 613 1274 q 660 1189 660 1225 q 625 1106 660 1140 q 546 1071 590 1071 m 800 1071 q 738 1095 761 1071 q 715 1156 715 1119 q 749 1239 715 1204 q 828 1274 783 1274 q 890 1249 867 1274 q 914 1189 914 1225 q 879 1106 914 1142 q 800 1071 844 1071 m 31 0 l 558 972 l 743 972 l 929 0 l 736 0 l 700 201 l 340 201 l 232 0 l 31 0 m 428 372 l 671 372 l 622 643 q 618 667 621 649 q 613 699 615 685 q 610 721 610 714 q 574 646 594 686 l 428 372 z "},"Å":{"ha":953,"x_min":31,"x_max":929,"o":"m 757 899 l 929 0 l 736 0 l 700 201 l 340 201 l 232 0 l 31 0 l 514 892 q 476 996 476 933 q 540 1140 476 1079 q 685 1201 603 1201 q 787 1158 746 1201 q 828 1051 828 1114 q 757 899 828 960 m 663 1079 q 619 1060 638 1079 q 600 1014 600 1042 q 612 981 600 994 q 643 968 624 968 q 687 987 668 968 q 706 1033 706 1006 q 693 1066 706 1053 q 663 1079 681 1079 m 428 372 l 671 372 l 622 643 q 618 667 621 649 q 613 699 615 685 q 610 721 610 714 q 574 646 594 686 l 428 372 z "},"Æ":{"ha":1163,"x_min":-50,"x_max":1257,"o":"m -50 0 l 661 972 l 1257 972 l 1226 794 l 826 794 l 790 590 l 1003 590 l 971 413 l 758 413 l 718 178 l 1146 178 l 1114 0 l 501 0 l 538 201 l 297 201 l 151 0 l -50 0 m 422 372 l 567 372 l 617 650 q 572 581 604 624 l 422 372 z "},"Ç":{"ha":849,"x_min":144,"x_max":935,"o":"m 394 -339 q 258 -274 297 -339 l 344 -215 q 393 -242 360 -242 q 449 -224 428 -242 q 469 -179 469 -207 q 413 -133 469 -133 q 351 -153 382 -133 l 322 -107 l 417 -10 q 216 120 288 11 q 144 393 144 229 q 198 676 144 543 q 363 899 251 810 q 622 988 474 988 q 822 928 743 988 q 935 768 901 868 l 767 696 q 707 775 747 743 q 614 807 667 807 q 464 742 529 807 q 369 588 399 678 q 339 404 339 497 q 380 237 339 304 q 494 169 421 169 q 689 290 622 169 l 854 219 q 511 -14 725 0 l 474 -64 q 572 -93 539 -64 q 606 -168 606 -122 q 547 -290 606 -242 q 394 -339 489 -339 z "},"È":{"ha":807,"x_min":93,"x_max":901,"o":"m 521 1050 l 315 1267 l 539 1267 l 690 1050 l 521 1050 m 93 0 l 264 972 l 901 972 l 871 794 l 424 794 l 388 590 l 647 590 l 615 413 l 356 413 l 315 178 l 790 178 l 758 0 l 93 0 z "},"É":{"ha":807,"x_min":93,"x_max":947,"o":"m 665 1050 l 497 1050 l 724 1267 l 947 1267 l 665 1050 m 93 0 l 264 972 l 901 972 l 871 794 l 424 794 l 388 590 l 647 590 l 615 413 l 356 413 l 315 178 l 790 178 l 758 0 l 93 0 z "},"Ê":{"ha":807,"x_min":93,"x_max":901,"o":"m 714 1050 l 619 1146 l 490 1050 l 331 1050 l 557 1267 l 724 1267 l 874 1050 l 714 1050 m 93 0 l 264 972 l 901 972 l 871 794 l 424 794 l 388 590 l 647 590 l 615 413 l 356 413 l 315 178 l 790 178 l 758 0 l 93 0 z "},"Ë":{"ha":807,"x_min":93,"x_max":901,"o":"m 479 1057 q 418 1081 442 1057 q 394 1142 394 1106 q 429 1224 394 1189 q 506 1260 464 1260 q 569 1235 546 1260 q 593 1175 593 1211 q 558 1092 593 1126 q 479 1057 524 1057 m 733 1057 q 672 1081 694 1057 q 649 1142 649 1106 q 683 1225 649 1190 q 761 1260 717 1260 q 824 1235 800 1260 q 847 1175 847 1211 q 813 1092 847 1128 q 733 1057 778 1057 m 93 0 l 264 972 l 901 972 l 871 794 l 424 794 l 388 590 l 647 590 l 615 413 l 356 413 l 315 178 l 790 178 l 758 0 l 93 0 z "},"Ì":{"ha":375,"x_min":86,"x_max":461,"o":"m 292 1064 l 86 1281 l 310 1281 l 461 1064 l 292 1064 m 93 0 l 264 972 l 454 972 l 283 0 l 93 0 z "},"Í":{"ha":375,"x_min":93,"x_max":718,"o":"m 436 1064 l 268 1064 l 494 1281 l 718 1281 l 436 1064 m 93 0 l 264 972 l 454 972 l 283 0 l 93 0 z "},"Î":{"ha":375,"x_min":93,"x_max":644,"o":"m 485 1064 l 390 1160 l 261 1064 l 101 1064 l 328 1281 l 494 1281 l 644 1064 l 485 1064 m 93 0 l 264 972 l 454 972 l 283 0 l 93 0 z "},"Ï":{"ha":375,"x_min":93,"x_max":618,"o":"m 250 1071 q 189 1095 213 1071 q 165 1156 165 1119 q 200 1238 165 1203 q 276 1274 235 1274 q 340 1249 317 1274 q 364 1189 364 1225 q 329 1106 364 1140 q 250 1071 294 1071 m 504 1071 q 442 1095 465 1071 q 419 1156 419 1119 q 453 1239 419 1204 q 532 1274 488 1274 q 594 1249 571 1274 q 618 1189 618 1225 q 583 1106 618 1142 q 504 1071 547 1071 m 93 0 l 264 972 l 454 972 l 283 0 l 93 0 z "},"Ð":{"ha":942,"x_min":88,"x_max":965,"o":"m 99 0 l 169 399 l 88 399 l 118 574 l 200 574 l 269 972 l 571 972 q 865 847 764 972 q 965 529 965 722 q 935 342 965 433 q 847 173 906 251 q 685 47 788 94 q 450 0 582 0 l 99 0 m 314 178 l 449 178 q 625 231 551 178 q 731 359 699 283 q 763 521 763 435 q 708 720 763 646 q 546 794 653 794 l 422 794 l 383 574 l 574 574 l 543 399 l 353 399 l 314 178 z "},"Ñ":{"ha":943,"x_min":93,"x_max":1022,"o":"m 768 1072 q 653 1104 717 1072 q 560 1136 589 1136 q 488 1078 501 1136 l 406 1078 q 593 1269 439 1269 q 708 1238 644 1269 q 801 1206 772 1206 q 874 1264 860 1206 l 956 1264 q 768 1072 922 1072 m 93 0 l 264 972 l 440 972 l 703 413 q 729 339 722 371 q 738 413 731 368 l 836 972 l 1022 972 l 851 0 l 685 0 l 414 567 q 388 640 403 590 q 379 567 388 608 l 279 0 l 93 0 z "},"Ò":{"ha":960,"x_min":144,"x_max":983,"o":"m 550 1064 l 344 1281 l 568 1281 l 719 1064 l 550 1064 m 518 -17 q 345 19 419 -17 q 228 117 271 56 q 165 253 186 179 q 144 414 144 328 q 199 697 144 568 q 363 908 253 826 q 621 989 474 989 q 890 865 797 989 q 983 565 983 742 q 855 152 983 321 q 518 -17 726 -17 m 517 164 q 719 280 642 164 q 797 565 797 396 q 751 737 797 665 q 608 808 704 808 q 407 689 483 808 q 331 414 331 569 q 376 237 331 310 q 517 164 422 164 z "},"Ó":{"ha":960,"x_min":144,"x_max":983,"o":"m 694 1064 l 526 1064 l 753 1281 l 976 1281 l 694 1064 m 518 -17 q 345 19 419 -17 q 228 117 271 56 q 165 253 186 179 q 144 414 144 328 q 199 697 144 568 q 363 908 253 826 q 621 989 474 989 q 890 865 797 989 q 983 565 983 742 q 855 152 983 321 q 518 -17 726 -17 m 517 164 q 719 280 642 164 q 797 565 797 396 q 751 737 797 665 q 608 808 704 808 q 407 689 483 808 q 331 414 331 569 q 376 237 331 310 q 517 164 422 164 z "},"Ô":{"ha":960,"x_min":144,"x_max":983,"o":"m 743 1064 l 649 1160 l 519 1064 l 360 1064 l 586 1281 l 753 1281 l 903 1064 l 743 1064 m 518 -17 q 345 19 419 -17 q 228 117 271 56 q 165 253 186 179 q 144 414 144 328 q 199 697 144 568 q 363 908 253 826 q 621 989 474 989 q 890 865 797 989 q 983 565 983 742 q 855 152 983 321 q 518 -17 726 -17 m 517 164 q 719 280 642 164 q 797 565 797 396 q 751 737 797 665 q 608 808 704 808 q 407 689 483 808 q 331 414 331 569 q 376 237 331 310 q 517 164 422 164 z "},"Õ":{"ha":960,"x_min":144,"x_max":983,"o":"m 746 1074 q 631 1106 694 1074 q 538 1138 567 1138 q 465 1079 479 1138 l 383 1079 q 571 1271 417 1271 q 686 1239 622 1271 q 779 1207 750 1207 q 851 1265 838 1207 l 933 1265 q 746 1074 900 1074 m 518 -17 q 345 19 419 -17 q 228 117 271 56 q 165 253 186 179 q 144 414 144 328 q 199 697 144 568 q 363 908 253 826 q 621 989 474 989 q 890 865 797 989 q 983 565 983 742 q 855 152 983 321 q 518 -17 726 -17 m 517 164 q 719 280 642 164 q 797 565 797 396 q 751 737 797 665 q 608 808 704 808 q 407 689 483 808 q 331 414 331 569 q 376 237 331 310 q 517 164 422 164 z "},"Ö":{"ha":960,"x_min":144,"x_max":983,"o":"m 508 1071 q 447 1095 471 1071 q 424 1156 424 1119 q 458 1238 424 1203 q 535 1274 493 1274 q 599 1249 575 1274 q 622 1189 622 1225 q 588 1106 622 1140 q 508 1071 553 1071 m 763 1071 q 701 1095 724 1071 q 678 1156 678 1119 q 712 1239 678 1204 q 790 1274 746 1274 q 853 1249 829 1274 q 876 1189 876 1225 q 841 1106 876 1142 q 763 1071 806 1071 m 518 -17 q 345 19 419 -17 q 228 117 271 56 q 165 253 186 179 q 144 414 144 328 q 199 697 144 568 q 363 908 253 826 q 621 989 474 989 q 890 865 797 989 q 983 565 983 742 q 855 152 983 321 q 518 -17 726 -17 m 517 164 q 719 280 642 164 q 797 565 797 396 q 751 737 797 665 q 608 808 704 808 q 407 689 483 808 q 331 414 331 569 q 376 237 331 310 q 517 164 422 164 z "},"×":{"ha":840,"x_min":171,"x_max":829,"o":"m 501 349 l 301 147 l 171 279 l 371 478 l 172 678 l 299 804 l 499 606 l 697 806 l 829 675 l 628 475 l 828 276 l 700 149 l 501 349 z "},"Ø":{"ha":960,"x_min":60,"x_max":1072,"o":"m 60 -17 l 203 157 q 144 414 144 264 q 199 697 144 568 q 363 908 253 826 q 621 989 474 989 q 833 921 747 989 l 890 989 l 1072 989 l 925 811 q 983 565 983 706 q 855 152 983 321 q 518 -17 726 -17 q 296 49 383 -17 l 242 -17 l 60 -17 m 340 322 l 713 775 q 608 808 671 808 q 407 689 483 808 q 331 414 331 569 q 340 322 331 363 m 517 164 q 719 280 642 164 q 797 565 797 396 q 788 646 797 600 l 415 194 q 517 164 457 164 z "},"Ù":{"ha":943,"x_min":154,"x_max":1028,"o":"m 574 1064 l 368 1281 l 592 1281 l 743 1064 l 574 1064 m 490 -17 q 249 62 343 -17 q 154 294 154 140 q 169 439 154 350 l 265 972 l 453 972 l 354 404 q 343 313 343 342 q 388 201 343 235 q 504 167 433 167 q 656 213 597 167 q 735 372 715 258 l 840 972 l 1028 972 l 919 356 q 860 171 900 246 q 762 56 821 96 q 638 0 703 17 q 490 -17 574 -17 z "},"Ú":{"ha":943,"x_min":154,"x_max":1028,"o":"m 718 1064 l 550 1064 l 776 1281 l 1000 1281 l 718 1064 m 490 -17 q 249 62 343 -17 q 154 294 154 140 q 169 439 154 350 l 265 972 l 453 972 l 354 404 q 343 313 343 342 q 388 201 343 235 q 504 167 433 167 q 656 213 597 167 q 735 372 715 258 l 840 972 l 1028 972 l 919 356 q 860 171 900 246 q 762 56 821 96 q 638 0 703 17 q 490 -17 574 -17 z "},"Û":{"ha":943,"x_min":154,"x_max":1028,"o":"m 767 1064 l 672 1160 l 543 1064 l 383 1064 l 610 1281 l 776 1281 l 926 1064 l 767 1064 m 490 -17 q 249 62 343 -17 q 154 294 154 140 q 169 439 154 350 l 265 972 l 453 972 l 354 404 q 343 313 343 342 q 388 201 343 235 q 504 167 433 167 q 656 213 597 167 q 735 372 715 258 l 840 972 l 1028 972 l 919 356 q 860 171 900 246 q 762 56 821 96 q 638 0 703 17 q 490 -17 574 -17 z "},"Ü":{"ha":943,"x_min":154,"x_max":1028,"o":"m 532 1071 q 471 1095 494 1071 q 447 1156 447 1119 q 482 1238 447 1203 q 558 1274 517 1274 q 622 1249 599 1274 q 646 1189 646 1225 q 611 1106 646 1140 q 532 1071 576 1071 m 786 1071 q 724 1095 747 1071 q 701 1156 701 1119 q 735 1239 701 1204 q 814 1274 769 1274 q 876 1249 853 1274 q 900 1189 900 1225 q 865 1106 900 1142 q 786 1071 831 1071 m 490 -17 q 249 62 343 -17 q 154 294 154 140 q 169 439 154 350 l 265 972 l 453 972 l 354 404 q 343 313 343 342 q 388 201 343 235 q 504 167 433 167 q 656 213 597 167 q 735 372 715 258 l 840 972 l 1028 972 l 919 356 q 860 171 900 246 q 762 56 821 96 q 638 0 703 17 q 490 -17 574 -17 z "},"Ý":{"ha":914,"x_min":190,"x_max":1063,"o":"m 700 1064 l 532 1064 l 758 1281 l 982 1281 l 700 1064 m 361 0 l 431 392 l 190 972 l 388 972 l 549 575 l 849 972 l 1063 972 l 619 388 l 551 0 l 361 0 z "},"Þ":{"ha":854,"x_min":93,"x_max":914,"o":"m 93 0 l 264 972 l 454 972 l 425 801 l 640 801 q 771 776 715 801 q 856 708 826 750 q 900 620 886 667 q 914 524 914 574 q 817 285 914 383 q 553 188 721 188 l 315 188 l 282 0 l 93 0 m 574 365 q 684 410 647 365 q 721 506 721 456 q 618 624 721 624 l 393 624 l 347 365 l 574 365 z "},"ß":{"ha":753,"x_min":31,"x_max":792,"o":"m 31 -278 l 196 661 q 321 910 226 832 q 542 989 415 989 q 722 928 651 989 q 792 763 792 867 q 747 626 792 690 q 624 531 703 563 q 727 450 689 508 q 765 307 765 392 q 669 74 765 165 q 440 -17 572 -17 q 288 15 336 -17 l 389 147 q 442 139 413 139 q 544 185 501 139 q 588 307 588 232 q 556 410 588 369 q 457 450 524 450 l 408 450 l 436 606 l 485 606 q 578 643 539 606 q 618 735 618 681 q 593 806 618 778 q 525 833 568 833 q 368 654 400 833 l 218 -193 l 31 -278 z "},"à":{"ha":731,"x_min":82,"x_max":739,"o":"m 424 814 l 218 1031 l 442 1031 l 593 814 l 424 814 m 479 0 l 490 56 q 410 4 461 25 q 301 -17 358 -17 q 145 40 208 -17 q 82 190 82 96 q 169 382 82 311 q 399 453 256 453 q 551 411 483 453 l 557 439 q 563 483 563 465 q 457 568 563 568 q 233 497 347 568 l 207 643 q 486 726 339 726 q 565 717 525 726 q 646 684 604 707 q 713 615 688 661 q 739 506 739 569 q 729 422 739 481 l 656 0 l 479 0 m 351 142 q 514 200 443 142 l 528 275 q 396 300 471 300 q 299 277 339 300 q 260 207 260 254 q 285 160 260 178 q 351 142 310 142 z "},"á":{"ha":731,"x_min":82,"x_max":850,"o":"m 568 814 l 400 814 l 626 1031 l 850 1031 l 568 814 m 479 0 l 490 56 q 410 4 461 25 q 301 -17 358 -17 q 145 40 208 -17 q 82 190 82 96 q 169 382 82 311 q 399 453 256 453 q 551 411 483 453 l 557 439 q 563 483 563 465 q 457 568 563 568 q 233 497 347 568 l 207 643 q 486 726 339 726 q 565 717 525 726 q 646 684 604 707 q 713 615 688 661 q 739 506 739 569 q 729 422 739 481 l 656 0 l 479 0 m 351 142 q 514 200 443 142 l 528 275 q 396 300 471 300 q 299 277 339 300 q 260 207 260 254 q 285 160 260 178 q 351 142 310 142 z "},"â":{"ha":731,"x_min":82,"x_max":776,"o":"m 617 814 l 522 910 l 393 814 l 233 814 l 460 1031 l 626 1031 l 776 814 l 617 814 m 479 0 l 490 56 q 410 4 461 25 q 301 -17 358 -17 q 145 40 208 -17 q 82 190 82 96 q 169 382 82 311 q 399 453 256 453 q 551 411 483 453 l 557 439 q 563 483 563 465 q 457 568 563 568 q 233 497 347 568 l 207 643 q 486 726 339 726 q 565 717 525 726 q 646 684 604 707 q 713 615 688 661 q 739 506 739 569 q 729 422 739 481 l 656 0 l 479 0 m 351 142 q 514 200 443 142 l 528 275 q 396 300 471 300 q 299 277 339 300 q 260 207 260 254 q 285 160 260 178 q 351 142 310 142 z "},"ã":{"ha":731,"x_min":82,"x_max":807,"o":"m 619 824 q 506 856 569 824 q 411 888 442 888 q 339 829 353 888 l 257 829 q 444 1021 290 1021 q 558 989 494 1021 q 653 957 622 957 q 725 1015 711 957 l 807 1015 q 619 824 774 824 m 479 0 l 490 56 q 410 4 461 25 q 301 -17 358 -17 q 145 40 208 -17 q 82 190 82 96 q 169 382 82 311 q 399 453 256 453 q 551 411 483 453 l 557 439 q 563 483 563 465 q 457 568 563 568 q 233 497 347 568 l 207 643 q 486 726 339 726 q 565 717 525 726 q 646 684 604 707 q 713 615 688 661 q 739 506 739 569 q 729 422 739 481 l 656 0 l 479 0 m 351 142 q 514 200 443 142 l 528 275 q 396 300 471 300 q 299 277 339 300 q 260 207 260 254 q 285 160 260 178 q 351 142 310 142 z "},"ä":{"ha":731,"x_min":82,"x_max":750,"o":"m 382 821 q 321 845 344 821 q 297 906 297 869 q 332 988 297 953 q 408 1024 367 1024 q 472 999 449 1024 q 496 939 496 975 q 461 856 496 890 q 382 821 426 821 m 636 821 q 574 845 597 821 q 551 906 551 869 q 585 989 551 954 q 664 1024 619 1024 q 726 999 703 1024 q 750 939 750 975 q 715 856 750 892 q 636 821 681 821 m 479 0 l 490 56 q 410 4 461 25 q 301 -17 358 -17 q 145 40 208 -17 q 82 190 82 96 q 169 382 82 311 q 399 453 256 453 q 551 411 483 453 l 557 439 q 563 483 563 465 q 457 568 563 568 q 233 497 347 568 l 207 643 q 486 726 339 726 q 565 717 525 726 q 646 684 604 707 q 713 615 688 661 q 739 506 739 569 q 729 422 739 481 l 656 0 l 479 0 m 351 142 q 514 200 443 142 l 528 275 q 396 300 471 300 q 299 277 339 300 q 260 207 260 254 q 285 160 260 178 q 351 142 310 142 z "},"å":{"ha":731,"x_min":82,"x_max":739,"o":"m 506 794 q 401 838 442 794 q 360 946 360 882 q 423 1090 360 1029 q 568 1151 486 1151 q 670 1108 629 1151 q 711 1001 711 1064 q 648 856 711 918 q 506 794 585 794 m 526 918 q 570 937 551 918 q 589 983 589 956 q 576 1016 589 1003 q 546 1029 564 1029 q 502 1010 521 1029 q 483 964 483 992 q 495 931 483 944 q 526 918 507 918 m 479 0 l 490 56 q 410 4 461 25 q 301 -17 358 -17 q 145 40 208 -17 q 82 190 82 96 q 169 382 82 311 q 399 453 256 453 q 551 411 483 453 l 557 439 q 563 483 563 465 q 457 568 563 568 q 233 497 347 568 l 207 643 q 486 726 339 726 q 565 717 525 726 q 646 684 604 707 q 713 615 688 661 q 739 506 739 569 q 729 422 739 481 l 656 0 l 479 0 m 351 142 q 514 200 443 142 l 528 275 q 396 300 471 300 q 299 277 339 300 q 260 207 260 254 q 285 160 260 178 q 351 142 310 142 z "},"æ":{"ha":1122,"x_min":83,"x_max":1149,"o":"m 283 -17 q 142 38 200 -17 q 83 190 83 93 q 172 388 83 319 q 386 456 260 456 q 526 422 468 456 l 532 456 q 535 485 535 478 q 509 546 535 524 q 439 568 483 568 q 225 497 331 568 l 201 643 q 471 726 328 726 q 570 703 521 726 q 650 640 619 679 q 888 726 739 726 q 1078 656 1007 726 q 1149 446 1149 585 q 1122 285 1149 360 l 671 285 q 670 279 671 283 q 669 272 669 275 q 708 176 669 211 q 807 142 747 142 q 965 215 896 142 l 1057 99 q 783 -17 946 -17 q 546 97 613 -17 q 283 -17 428 -17 m 696 438 l 976 438 q 975 463 976 451 q 853 568 961 568 q 754 535 796 568 q 696 438 713 503 m 349 142 q 486 200 422 142 q 490 220 488 207 q 493 239 492 233 q 497 257 494 244 q 500 276 499 269 q 392 300 453 300 q 297 276 335 300 q 258 207 258 253 q 282 159 258 176 q 349 142 306 142 z "},"ç":{"ha":715,"x_min":111,"x_max":746,"o":"m 286 -339 q 151 -274 188 -339 l 238 -215 q 286 -242 250 -242 q 342 -224 322 -242 q 361 -178 361 -207 q 304 -133 361 -133 q 244 -153 272 -133 l 215 -107 l 313 -7 q 165 97 219 15 q 111 293 111 178 q 215 604 111 482 q 485 726 319 726 q 656 669 588 726 q 746 518 725 611 l 571 461 q 464 553 551 553 q 342 484 392 553 q 293 315 293 415 q 322 201 293 244 q 399 157 350 157 q 536 260 490 157 l 697 207 q 613 74 668 126 q 507 3 558 22 q 403 -17 456 -15 l 365 -64 q 464 -93 431 -64 q 497 -168 497 -122 q 440 -290 497 -242 q 286 -339 382 -339 z "},"è":{"ha":733,"x_min":99,"x_max":760,"o":"m 425 814 l 219 1031 l 443 1031 l 594 814 l 425 814 m 394 -17 q 178 62 258 -17 q 99 286 99 140 q 205 594 99 461 q 488 726 311 726 q 688 647 615 726 q 760 442 760 568 q 733 285 760 360 l 281 285 l 281 271 q 320 176 281 211 q 417 142 360 142 q 576 215 507 142 l 668 99 q 394 -17 557 -17 m 307 438 l 588 438 q 585 471 588 451 q 468 568 567 568 q 366 535 408 568 q 307 438 324 501 z "},"é":{"ha":733,"x_min":99,"x_max":851,"o":"m 569 814 l 401 814 l 628 1031 l 851 1031 l 569 814 m 394 -17 q 178 62 258 -17 q 99 286 99 140 q 205 594 99 461 q 488 726 311 726 q 688 647 615 726 q 760 442 760 568 q 733 285 760 360 l 281 285 l 281 271 q 320 176 281 211 q 417 142 360 142 q 576 215 507 142 l 668 99 q 394 -17 557 -17 m 307 438 l 588 438 q 585 471 588 451 q 468 568 567 568 q 366 535 408 568 q 307 438 324 501 z "},"ê":{"ha":733,"x_min":99,"x_max":778,"o":"m 618 814 l 524 910 l 394 814 l 235 814 l 461 1031 l 628 1031 l 778 814 l 618 814 m 394 -17 q 178 62 258 -17 q 99 286 99 140 q 205 594 99 461 q 488 726 311 726 q 688 647 615 726 q 760 442 760 568 q 733 285 760 360 l 281 285 l 281 271 q 320 176 281 211 q 417 142 360 142 q 576 215 507 142 l 668 99 q 394 -17 557 -17 m 307 438 l 588 438 q 585 471 588 451 q 468 568 567 568 q 366 535 408 568 q 307 438 324 501 z "},"ë":{"ha":733,"x_min":99,"x_max":760,"o":"m 383 821 q 322 845 346 821 q 299 906 299 869 q 333 988 299 953 q 410 1024 368 1024 q 474 999 450 1024 q 497 939 497 975 q 463 856 497 890 q 383 821 428 821 m 638 821 q 576 845 599 821 q 553 906 553 869 q 587 989 553 954 q 665 1024 621 1024 q 728 999 704 1024 q 751 939 751 975 q 716 856 751 892 q 638 821 681 821 m 394 -17 q 178 62 258 -17 q 99 286 99 140 q 205 594 99 461 q 488 726 311 726 q 688 647 615 726 q 760 442 760 568 q 733 285 760 360 l 281 285 l 281 271 q 320 176 281 211 q 417 142 360 142 q 576 215 507 142 l 668 99 q 394 -17 557 -17 m 307 438 l 588 438 q 585 471 588 451 q 468 568 567 568 q 366 535 408 568 q 307 438 324 501 z "},"ì":{"ha":363,"x_min":36,"x_max":411,"o":"m 242 800 l 36 1017 l 260 1017 l 411 800 l 242 800 m 93 0 l 218 710 l 397 710 l 272 0 l 93 0 z "},"í":{"ha":363,"x_min":93,"x_max":668,"o":"m 386 800 l 218 800 l 444 1017 l 668 1017 l 386 800 m 93 0 l 218 710 l 397 710 l 272 0 l 93 0 z "},"î":{"ha":363,"x_min":51,"x_max":594,"o":"m 435 800 l 340 896 l 211 800 l 51 800 l 278 1017 l 444 1017 l 594 800 l 435 800 m 93 0 l 218 710 l 397 710 l 272 0 l 93 0 z "},"ï":{"ha":363,"x_min":93,"x_max":568,"o":"m 200 807 q 139 831 163 807 q 115 892 115 856 q 150 974 115 939 q 226 1010 185 1010 q 290 985 267 1010 q 314 925 314 961 q 279 842 314 876 q 200 807 244 807 m 454 807 q 392 831 415 807 q 369 892 369 856 q 403 975 369 940 q 482 1010 438 1010 q 544 985 521 1010 q 568 925 568 961 q 533 842 568 878 q 454 807 497 807 m 93 0 l 218 710 l 397 710 l 272 0 l 93 0 z "},"ð":{"ha":746,"x_min":104,"x_max":767,"o":"m 381 -17 q 179 61 254 -17 q 104 265 104 139 q 206 525 104 417 q 451 633 307 633 q 590 592 544 633 q 533 744 585 685 l 440 660 l 361 753 l 432 818 q 313 842 379 839 l 340 989 q 564 938 471 989 l 657 1022 l 735 928 l 658 858 q 767 476 767 731 q 667 121 767 258 q 381 -17 567 -17 m 401 157 q 519 208 468 157 q 569 335 569 260 q 538 425 569 390 q 453 460 506 460 q 334 409 383 460 q 285 282 285 358 q 317 192 285 228 q 401 157 350 157 z "},"ñ":{"ha":774,"x_min":93,"x_max":840,"o":"m 653 824 q 539 856 603 824 q 444 888 475 888 q 372 829 386 888 l 290 829 q 478 1021 324 1021 q 592 989 528 1021 q 686 957 656 957 q 758 1015 744 957 l 840 1015 q 653 824 807 824 m 93 0 l 218 710 l 397 710 l 385 639 q 560 726 453 726 q 715 663 661 726 q 768 503 768 600 q 757 406 768 467 l 685 0 l 507 0 l 576 392 q 583 460 583 436 q 493 557 583 557 q 399 519 443 557 q 343 408 356 482 l 271 0 l 93 0 z "},"ò":{"ha":746,"x_min":113,"x_max":758,"o":"m 422 814 l 217 1031 l 440 1031 l 592 814 l 422 814 m 393 -17 q 183 63 254 -17 q 113 294 113 143 q 217 606 113 485 q 488 726 321 726 q 685 643 613 726 q 758 424 758 560 q 656 106 758 228 q 393 -17 554 -17 m 408 158 q 531 225 482 158 q 581 393 581 292 q 461 553 581 553 q 340 485 389 553 q 290 321 290 418 q 408 158 290 158 z "},"ó":{"ha":746,"x_min":113,"x_max":849,"o":"m 567 814 l 399 814 l 625 1031 l 849 1031 l 567 814 m 393 -17 q 183 63 254 -17 q 113 294 113 143 q 217 606 113 485 q 488 726 321 726 q 685 643 613 726 q 758 424 758 560 q 656 106 758 228 q 393 -17 554 -17 m 408 158 q 531 225 482 158 q 581 393 581 292 q 461 553 581 553 q 340 485 389 553 q 290 321 290 418 q 408 158 290 158 z "},"ô":{"ha":746,"x_min":113,"x_max":775,"o":"m 615 814 l 521 910 l 392 814 l 232 814 l 458 1031 l 625 1031 l 775 814 l 615 814 m 393 -17 q 183 63 254 -17 q 113 294 113 143 q 217 606 113 485 q 488 726 321 726 q 685 643 613 726 q 758 424 758 560 q 656 106 758 228 q 393 -17 554 -17 m 408 158 q 531 225 482 158 q 581 393 581 292 q 461 553 581 553 q 340 485 389 553 q 290 321 290 418 q 408 158 290 158 z "},"õ":{"ha":746,"x_min":113,"x_max":806,"o":"m 618 824 q 503 856 567 824 q 410 888 439 888 q 338 829 351 888 l 256 829 q 443 1021 289 1021 q 558 989 494 1021 q 651 957 622 957 q 724 1015 710 957 l 806 1015 q 618 824 772 824 m 393 -17 q 183 63 254 -17 q 113 294 113 143 q 217 606 113 485 q 488 726 321 726 q 685 643 613 726 q 758 424 758 560 q 656 106 758 228 q 393 -17 554 -17 m 408 158 q 531 225 482 158 q 581 393 581 292 q 461 553 581 553 q 340 485 389 553 q 290 321 290 418 q 408 158 290 158 z "},"ö":{"ha":746,"x_min":113,"x_max":758,"o":"m 381 821 q 319 845 343 821 q 296 906 296 869 q 331 988 296 953 q 407 1024 365 1024 q 471 999 447 1024 q 494 939 494 975 q 460 856 494 890 q 381 821 425 821 m 635 821 q 573 845 596 821 q 550 906 550 869 q 584 989 550 954 q 663 1024 618 1024 q 725 999 701 1024 q 749 939 749 975 q 713 856 749 892 q 635 821 678 821 m 393 -17 q 183 63 254 -17 q 113 294 113 143 q 217 606 113 485 q 488 726 321 726 q 685 643 613 726 q 758 424 758 560 q 656 106 758 228 q 393 -17 554 -17 m 408 158 q 531 225 482 158 q 581 393 581 292 q 461 553 581 553 q 340 485 389 553 q 290 321 290 418 q 408 158 290 158 z "},"÷":{"ha":840,"x_min":190,"x_max":810,"o":"m 577 650 q 561 635 577 650 q 500 619 546 619 q 423 650 454 619 q 392 725 392 681 q 423 800 392 769 q 500 831 454 831 q 577 800 546 831 q 608 725 608 769 q 577 650 608 681 m 190 389 l 190 564 l 810 564 l 810 389 l 190 389 m 577 153 q 561 138 577 153 q 500 122 546 122 q 423 153 454 122 q 392 228 392 183 q 423 303 392 272 q 500 333 454 333 q 577 303 546 333 q 608 228 608 272 q 577 153 608 183 z "},"ø":{"ha":746,"x_min":56,"x_max":815,"o":"m 56 -17 l 154 104 q 113 294 113 179 q 217 606 113 485 q 488 726 321 726 q 629 689 568 726 l 660 726 l 815 726 l 714 601 q 758 424 758 528 q 656 106 758 228 q 393 -17 554 -17 q 240 18 303 -17 l 213 -17 l 56 -17 m 293 275 l 511 543 q 461 553 490 553 q 340 485 389 553 q 290 321 290 418 q 293 275 290 289 m 408 158 q 531 225 482 158 q 581 393 581 292 q 578 433 581 408 l 361 167 q 408 158 382 158 z "},"ù":{"ha":774,"x_min":122,"x_max":811,"o":"m 444 814 l 239 1031 l 463 1031 l 614 814 l 444 814 m 508 0 l 519 67 q 315 -17 440 -17 q 181 40 239 -17 q 122 204 122 97 q 129 276 122 232 l 206 710 l 385 710 l 315 318 q 307 251 307 274 q 399 157 307 157 q 503 190 458 157 q 560 290 549 222 l 633 710 l 811 710 l 686 0 l 508 0 z "},"ú":{"ha":774,"x_min":122,"x_max":871,"o":"m 589 814 l 421 814 l 647 1031 l 871 1031 l 589 814 m 508 0 l 519 67 q 315 -17 440 -17 q 181 40 239 -17 q 122 204 122 97 q 129 276 122 232 l 206 710 l 385 710 l 315 318 q 307 251 307 274 q 399 157 307 157 q 503 190 458 157 q 560 290 549 222 l 633 710 l 811 710 l 686 0 l 508 0 z "},"û":{"ha":774,"x_min":122,"x_max":811,"o":"m 638 814 l 543 910 l 414 814 l 254 814 l 481 1031 l 647 1031 l 797 814 l 638 814 m 508 0 l 519 67 q 315 -17 440 -17 q 181 40 239 -17 q 122 204 122 97 q 129 276 122 232 l 206 710 l 385 710 l 315 318 q 307 251 307 274 q 399 157 307 157 q 503 190 458 157 q 560 290 549 222 l 633 710 l 811 710 l 686 0 l 508 0 z "},"ü":{"ha":774,"x_min":122,"x_max":811,"o":"m 403 821 q 342 845 365 821 q 318 906 318 869 q 353 988 318 953 q 429 1024 388 1024 q 493 999 469 1024 q 517 939 517 975 q 482 856 517 890 q 403 821 447 821 m 657 821 q 595 845 618 821 q 572 906 572 869 q 606 989 572 954 q 685 1024 640 1024 q 747 999 724 1024 q 771 939 771 975 q 735 856 771 892 q 657 821 700 821 m 508 0 l 519 67 q 315 -17 440 -17 q 181 40 239 -17 q 122 204 122 97 q 129 276 122 232 l 206 710 l 385 710 l 315 318 q 307 251 307 274 q 399 157 307 157 q 503 190 458 157 q 560 290 549 222 l 633 710 l 811 710 l 686 0 l 508 0 z "},"ý":{"ha":746,"x_min":131,"x_max":861,"o":"m 579 814 l 411 814 l 638 1031 l 861 1031 l 579 814 m 131 -269 l 285 14 l 151 710 l 329 710 l 406 300 q 415 235 414 261 q 446 300 424 258 l 668 710 l 861 710 l 326 -269 l 131 -269 z "},"þ":{"ha":754,"x_min":43,"x_max":772,"o":"m 425 -17 q 281 51 325 -17 l 233 -218 l 43 -278 l 258 943 l 449 1003 l 385 653 q 547 726 449 726 q 708 646 643 726 q 772 429 772 565 q 669 103 772 222 q 425 -17 565 -17 m 417 157 q 546 226 497 157 q 594 410 594 296 q 566 515 594 476 q 481 553 538 553 q 410 534 446 553 q 356 488 374 515 l 308 215 q 417 157 335 157 z "},"ÿ":{"ha":746,"x_min":131,"x_max":861,"o":"m 393 821 q 332 845 356 821 q 308 906 308 869 q 343 988 308 953 q 419 1024 378 1024 q 483 999 460 1024 q 507 939 507 975 q 472 856 507 890 q 393 821 438 821 m 647 821 q 585 845 608 821 q 563 906 563 869 q 597 989 563 954 q 675 1024 631 1024 q 738 999 714 1024 q 761 939 761 975 q 726 856 761 892 q 647 821 692 821 m 131 -269 l 285 14 l 151 710 l 329 710 l 406 300 q 415 235 414 261 q 446 300 424 258 l 668 710 l 861 710 l 326 -269 l 131 -269 z "},"Ā":{"ha":953,"x_min":31,"x_max":929,"o":"m 449 1063 l 474 1210 l 914 1210 l 889 1063 l 449 1063 m 31 0 l 558 972 l 743 972 l 929 0 l 736 0 l 700 201 l 340 201 l 232 0 l 31 0 m 428 372 l 671 372 l 622 643 q 618 667 621 649 q 613 699 615 685 q 610 721 610 714 q 574 646 594 686 l 428 372 z "},"ā":{"ha":731,"x_min":82,"x_max":750,"o":"m 285 813 l 310 960 l 750 960 l 725 813 l 285 813 m 479 0 l 490 56 q 410 4 461 25 q 301 -17 358 -17 q 145 40 208 -17 q 82 190 82 96 q 169 382 82 311 q 399 453 256 453 q 551 411 483 453 l 557 439 q 563 483 563 465 q 457 568 563 568 q 233 497 347 568 l 207 643 q 486 726 339 726 q 565 717 525 726 q 646 684 604 707 q 713 615 688 661 q 739 506 739 569 q 729 422 739 481 l 656 0 l 479 0 m 351 142 q 514 200 443 142 l 528 275 q 396 300 471 300 q 299 277 339 300 q 260 207 260 254 q 285 160 260 178 q 351 142 310 142 z "},"Ă":{"ha":953,"x_min":31,"x_max":964,"o":"m 668 1058 q 506 1111 560 1058 q 451 1246 451 1164 q 456 1294 451 1269 l 589 1294 q 588 1274 588 1288 q 613 1213 588 1238 q 690 1189 638 1189 q 786 1220 750 1189 q 831 1294 822 1251 l 964 1294 q 869 1126 946 1194 q 668 1058 792 1058 m 31 0 l 558 972 l 743 972 l 929 0 l 736 0 l 700 201 l 340 201 l 232 0 l 31 0 m 428 372 l 671 372 l 622 643 q 618 667 621 649 q 613 699 615 685 q 610 721 610 714 q 574 646 594 686 l 428 372 z "},"ă":{"ha":731,"x_min":82,"x_max":800,"o":"m 504 808 q 342 861 396 808 q 288 996 288 914 q 292 1044 288 1019 l 425 1044 q 424 1024 424 1038 q 449 963 424 988 q 526 939 474 939 q 622 970 586 939 q 667 1044 658 1001 l 800 1044 q 705 876 782 944 q 504 808 628 808 m 479 0 l 490 56 q 410 4 461 25 q 301 -17 358 -17 q 145 40 208 -17 q 82 190 82 96 q 169 382 82 311 q 399 453 256 453 q 551 411 483 453 l 557 439 q 563 483 563 465 q 457 568 563 568 q 233 497 347 568 l 207 643 q 486 726 339 726 q 565 717 525 726 q 646 684 604 707 q 713 615 688 661 q 739 506 739 569 q 729 422 739 481 l 656 0 l 479 0 m 351 142 q 514 200 443 142 l 528 275 q 396 300 471 300 q 299 277 339 300 q 260 207 260 254 q 285 160 260 178 q 351 142 310 142 z "},"Ą":{"ha":953,"x_min":31,"x_max":929,"o":"m 694 -339 q 590 -305 628 -339 q 553 -214 553 -271 q 736 0 553 -76 l 700 201 l 340 201 l 232 0 l 31 0 l 558 972 l 743 972 l 929 0 q 769 -60 839 0 q 699 -189 699 -121 q 739 -235 699 -235 q 797 -208 771 -235 l 865 -268 q 694 -339 792 -339 m 428 372 l 671 372 l 622 643 q 618 667 621 649 q 613 699 615 685 q 610 721 610 714 q 574 646 594 686 l 428 372 z "},"ą":{"ha":731,"x_min":82,"x_max":739,"o":"m 436 -339 q 332 -305 369 -339 q 294 -214 294 -271 q 479 0 294 -76 l 490 56 q 410 4 461 25 q 301 -17 358 -17 q 145 40 208 -17 q 82 190 82 96 q 169 382 82 311 q 399 453 256 453 q 551 411 483 453 l 557 439 q 563 483 563 465 q 457 568 563 568 q 233 497 347 568 l 207 643 q 486 726 339 726 q 565 717 525 726 q 646 684 604 707 q 713 615 688 661 q 739 506 739 569 q 729 422 739 481 l 656 0 q 506 -74 572 -24 q 440 -189 440 -124 q 481 -235 440 -235 q 539 -208 513 -235 l 607 -268 q 436 -339 533 -339 m 351 142 q 514 200 443 142 l 528 275 q 396 300 471 300 q 299 277 339 300 q 260 207 260 254 q 285 160 260 178 q 351 142 310 142 z "},"Ć":{"ha":849,"x_min":144,"x_max":981,"o":"m 699 1064 l 531 1064 l 757 1281 l 981 1281 l 699 1064 m 482 -15 q 231 100 317 -15 q 144 393 144 215 q 201 684 144 550 q 368 903 257 818 q 622 988 479 988 q 827 924 749 988 q 935 768 906 861 l 767 696 q 702 778 743 749 q 614 807 661 807 q 463 742 528 807 q 369 587 399 676 q 339 404 339 497 q 378 239 339 308 q 497 169 418 169 q 613 205 563 169 q 689 290 663 240 l 854 219 q 482 -15 714 -15 z "},"ć":{"ha":715,"x_min":111,"x_max":844,"o":"m 563 814 l 394 814 l 621 1031 l 844 1031 l 563 814 m 390 -17 q 185 71 260 -17 q 111 299 111 158 q 215 602 111 478 q 485 726 318 726 q 656 669 586 726 q 746 518 725 611 l 571 461 q 463 553 551 553 q 342 483 390 553 q 293 313 293 414 q 322 201 293 246 q 401 157 350 157 q 536 260 494 157 l 697 207 q 577 43 660 103 q 390 -17 494 -17 z "},"Ĉ":{"ha":849,"x_min":144,"x_max":935,"o":"m 747 1064 l 653 1160 l 524 1064 l 364 1064 l 590 1281 l 757 1281 l 907 1064 l 747 1064 m 482 -15 q 231 100 317 -15 q 144 393 144 215 q 201 684 144 550 q 368 903 257 818 q 622 988 479 988 q 827 924 749 988 q 935 768 906 861 l 767 696 q 702 778 743 749 q 614 807 661 807 q 463 742 528 807 q 369 587 399 676 q 339 404 339 497 q 378 239 339 308 q 497 169 418 169 q 613 205 563 169 q 689 290 663 240 l 854 219 q 482 -15 714 -15 z "},"ĉ":{"ha":715,"x_min":111,"x_max":771,"o":"m 611 814 l 517 910 l 388 814 l 228 814 l 454 1031 l 621 1031 l 771 814 l 611 814 m 390 -17 q 185 71 260 -17 q 111 299 111 158 q 215 602 111 478 q 485 726 318 726 q 656 669 586 726 q 746 518 725 611 l 571 461 q 463 553 551 553 q 342 483 390 553 q 293 313 293 414 q 322 201 293 246 q 401 157 350 157 q 536 260 494 157 l 697 207 q 577 43 660 103 q 390 -17 494 -17 z "},"Ċ":{"ha":849,"x_min":144,"x_max":935,"o":"m 638 1071 q 578 1095 601 1071 q 556 1156 556 1119 q 591 1239 556 1204 q 674 1274 626 1274 q 733 1249 710 1274 q 756 1189 756 1225 q 720 1106 756 1140 q 638 1071 685 1071 m 482 -15 q 231 100 317 -15 q 144 393 144 215 q 201 684 144 550 q 368 903 257 818 q 622 988 479 988 q 827 924 749 988 q 935 768 906 861 l 767 696 q 702 778 743 749 q 614 807 661 807 q 463 742 528 807 q 369 587 399 676 q 339 404 339 497 q 378 239 339 308 q 497 169 418 169 q 613 205 563 169 q 689 290 663 240 l 854 219 q 482 -15 714 -15 z "},"ċ":{"ha":715,"x_min":111,"x_max":746,"o":"m 501 821 q 442 845 465 821 q 419 906 419 869 q 455 989 419 954 q 538 1024 490 1024 q 597 999 574 1024 q 619 939 619 975 q 584 856 619 890 q 501 821 549 821 m 390 -17 q 185 71 260 -17 q 111 299 111 158 q 215 602 111 478 q 485 726 318 726 q 656 669 586 726 q 746 518 725 611 l 571 461 q 463 553 551 553 q 342 483 390 553 q 293 313 293 414 q 322 201 293 246 q 401 157 350 157 q 536 260 494 157 l 697 207 q 577 43 660 103 q 390 -17 494 -17 z "},"Č":{"ha":849,"x_min":144,"x_max":944,"o":"m 718 1064 l 551 1064 l 401 1281 l 561 1281 l 657 1185 l 785 1281 l 944 1281 l 718 1064 m 482 -15 q 231 100 317 -15 q 144 393 144 215 q 201 684 144 550 q 368 903 257 818 q 622 988 479 988 q 827 924 749 988 q 935 768 906 861 l 767 696 q 702 778 743 749 q 614 807 661 807 q 463 742 528 807 q 369 587 399 676 q 339 404 339 497 q 378 239 339 308 q 497 169 418 169 q 613 205 563 169 q 689 290 663 240 l 854 219 q 482 -15 714 -15 z "},"č":{"ha":715,"x_min":111,"x_max":808,"o":"m 582 814 l 415 814 l 265 1031 l 425 1031 l 521 935 l 649 1031 l 808 1031 l 582 814 m 390 -17 q 185 71 260 -17 q 111 299 111 158 q 215 602 111 478 q 485 726 318 726 q 656 669 586 726 q 746 518 725 611 l 571 461 q 463 553 551 553 q 342 483 390 553 q 293 313 293 414 q 322 201 293 246 q 401 157 350 157 q 536 260 494 157 l 697 207 q 577 43 660 103 q 390 -17 494 -17 z "},"Ď":{"ha":936,"x_min":93,"x_max":960,"o":"m 669 1050 l 503 1050 l 353 1267 l 513 1267 l 608 1171 l 736 1267 l 896 1267 l 669 1050 m 264 972 l 565 972 q 859 847 758 972 q 960 529 960 722 q 930 342 960 433 q 841 173 900 251 q 679 47 782 94 q 444 0 576 0 l 93 0 l 264 972 m 443 178 q 675 281 593 178 q 757 521 757 385 q 702 720 757 646 q 540 794 647 794 l 417 794 l 308 178 l 443 178 z "},"ď":{"ha":1032,"x_min":113,"x_max":1165,"o":"m 339 -17 q 173 63 233 -17 q 113 275 113 143 q 217 604 113 482 q 464 726 321 726 q 604 658 564 726 l 654 943 l 844 1003 l 668 0 l 493 0 l 504 64 q 339 -17 446 -17 m 1165 989 l 1163 974 q 956 629 1125 776 l 908 674 q 1004 989 964 764 l 1165 989 m 401 157 q 528 215 481 157 l 576 493 q 474 553 550 553 q 340 481 389 553 q 290 300 290 408 q 318 195 290 233 q 401 157 346 157 z "},"Đ":{"ha":942,"x_min":88,"x_max":965,"o":"m 99 0 l 169 399 l 88 399 l 118 574 l 200 574 l 269 972 l 571 972 q 865 847 764 972 q 965 529 965 722 q 935 342 965 433 q 847 173 906 251 q 685 47 788 94 q 450 0 582 0 l 99 0 m 314 178 l 449 178 q 625 231 551 178 q 731 359 699 283 q 763 521 763 435 q 708 720 763 646 q 546 794 653 794 l 422 794 l 383 574 l 574 574 l 543 399 l 353 399 l 314 178 z "},"đ":{"ha":754,"x_min":110,"x_max":903,"o":"m 793 746 l 661 0 l 488 0 l 497 51 q 339 -17 440 -17 q 171 56 232 -17 q 110 253 110 129 q 213 561 110 440 q 464 682 317 682 q 596 614 558 682 l 619 746 l 465 746 l 489 885 l 643 885 l 650 921 l 838 1003 l 817 885 l 903 885 l 879 746 l 793 746 m 397 157 q 525 214 476 157 l 567 450 q 528 491 557 474 q 460 508 500 508 q 335 447 382 508 q 288 293 288 386 q 316 195 288 233 q 397 157 344 157 z "},"Ē":{"ha":807,"x_min":93,"x_max":901,"o":"m 382 1049 l 407 1196 l 847 1196 l 822 1049 l 382 1049 m 93 0 l 264 972 l 901 972 l 871 794 l 424 794 l 388 590 l 647 590 l 615 413 l 356 413 l 315 178 l 790 178 l 758 0 l 93 0 z "},"ē":{"ha":733,"x_min":99,"x_max":760,"o":"m 286 813 l 311 960 l 751 960 l 726 813 l 286 813 m 394 -17 q 178 62 258 -17 q 99 286 99 140 q 205 594 99 461 q 488 726 311 726 q 688 647 615 726 q 760 442 760 568 q 733 285 760 360 l 281 285 l 281 271 q 320 176 281 211 q 417 142 360 142 q 576 215 507 142 l 668 99 q 394 -17 557 -17 m 307 438 l 588 438 q 585 471 588 451 q 468 568 567 568 q 366 535 408 568 q 307 438 324 501 z "},"Ĕ":{"ha":807,"x_min":93,"x_max":901,"o":"m 601 1044 q 439 1097 493 1044 q 385 1232 385 1150 q 389 1281 385 1256 l 522 1281 q 521 1260 521 1274 q 546 1199 521 1224 q 624 1175 571 1175 q 719 1206 683 1175 q 764 1281 756 1238 l 897 1281 q 802 1113 879 1181 q 601 1044 725 1044 m 93 0 l 264 972 l 901 972 l 871 794 l 424 794 l 388 590 l 647 590 l 615 413 l 356 413 l 315 178 l 790 178 l 758 0 l 93 0 z "},"ĕ":{"ha":733,"x_min":99,"x_max":801,"o":"m 506 808 q 343 861 397 808 q 289 996 289 914 q 293 1044 289 1019 l 426 1044 q 425 1024 425 1038 q 450 963 425 988 q 528 939 475 939 q 624 970 588 939 q 668 1044 660 1001 l 801 1044 q 706 876 783 944 q 506 808 629 808 m 394 -17 q 178 62 258 -17 q 99 286 99 140 q 205 594 99 461 q 488 726 311 726 q 688 647 615 726 q 760 442 760 568 q 733 285 760 360 l 281 285 l 281 271 q 320 176 281 211 q 417 142 360 142 q 576 215 507 142 l 668 99 q 394 -17 557 -17 m 307 438 l 588 438 q 585 471 588 451 q 468 568 567 568 q 366 535 408 568 q 307 438 324 501 z "},"Ė":{"ha":807,"x_min":93,"x_max":901,"o":"m 604 1057 q 545 1081 568 1057 q 522 1142 522 1106 q 558 1225 522 1190 q 640 1260 593 1260 q 699 1235 676 1260 q 722 1175 722 1211 q 687 1092 722 1126 q 604 1057 651 1057 m 93 0 l 264 972 l 901 972 l 871 794 l 424 794 l 388 590 l 647 590 l 615 413 l 356 413 l 315 178 l 790 178 l 758 0 l 93 0 z "},"ė":{"ha":733,"x_min":99,"x_max":760,"o":"m 508 821 q 449 845 472 821 q 426 906 426 869 q 462 989 426 954 q 544 1024 497 1024 q 603 999 581 1024 q 626 939 626 975 q 591 856 626 890 q 508 821 556 821 m 394 -17 q 178 62 258 -17 q 99 286 99 140 q 205 594 99 461 q 488 726 311 726 q 688 647 615 726 q 760 442 760 568 q 733 285 760 360 l 281 285 l 281 271 q 320 176 281 211 q 417 142 360 142 q 576 215 507 142 l 668 99 q 394 -17 557 -17 m 307 438 l 588 438 q 585 471 588 451 q 468 568 567 568 q 366 535 408 568 q 307 438 324 501 z "},"Ę":{"ha":807,"x_min":93,"x_max":901,"o":"m 501 -339 q 398 -305 436 -339 q 360 -214 360 -271 q 543 0 360 -75 l 93 0 l 264 972 l 901 972 l 871 794 l 414 794 l 378 590 l 647 590 l 615 413 l 346 413 l 306 178 l 790 178 l 758 0 l 728 0 q 573 -62 640 0 q 506 -189 506 -125 q 547 -235 506 -235 q 604 -208 578 -235 l 674 -268 q 501 -339 596 -339 z "},"ę":{"ha":733,"x_min":99,"x_max":760,"o":"m 346 -339 q 242 -305 281 -339 q 204 -214 204 -271 q 360 -15 204 -90 q 317 -10 332 -12 q 157 87 215 11 q 99 286 99 163 q 206 594 99 463 q 494 726 314 726 q 692 651 624 726 q 760 442 760 576 q 733 285 760 360 l 281 285 l 281 272 q 321 177 281 213 q 417 142 361 142 q 576 215 507 142 l 668 99 q 507 -11 621 47 q 445 -44 465 -32 q 399 -78 425 -57 q 361 -127 372 -100 q 350 -189 350 -154 q 390 -235 350 -235 q 449 -208 422 -235 l 517 -268 q 346 -339 443 -339 m 307 438 l 588 438 q 585 471 588 451 q 468 568 567 568 q 307 438 339 568 z "},"Ě":{"ha":807,"x_min":93,"x_max":911,"o":"m 685 1050 l 518 1050 l 368 1267 l 528 1267 l 624 1171 l 751 1267 l 911 1267 l 685 1050 m 93 0 l 264 972 l 901 972 l 871 794 l 424 794 l 388 590 l 647 590 l 615 413 l 356 413 l 315 178 l 790 178 l 758 0 l 93 0 z "},"ě":{"ha":733,"x_min":99,"x_max":815,"o":"m 589 814 l 422 814 l 272 1031 l 432 1031 l 528 935 l 656 1031 l 815 1031 l 589 814 m 394 -17 q 178 62 258 -17 q 99 286 99 140 q 205 594 99 461 q 488 726 311 726 q 688 647 615 726 q 760 442 760 568 q 733 285 760 360 l 281 285 l 281 271 q 320 176 281 211 q 417 142 360 142 q 576 215 507 142 l 668 99 q 394 -17 557 -17 m 307 438 l 588 438 q 585 471 588 451 q 468 568 567 568 q 366 535 408 568 q 307 438 324 501 z "},"Ĝ":{"ha":901,"x_min":144,"x_max":947,"o":"m 744 1064 l 650 1160 l 521 1064 l 361 1064 l 588 1281 l 754 1281 l 904 1064 l 744 1064 m 501 -17 q 336 18 407 -17 q 225 114 265 53 q 165 251 185 175 q 144 415 144 326 q 198 696 144 568 q 363 906 251 824 q 624 989 475 989 q 947 778 846 989 l 781 688 q 608 808 721 808 q 406 691 481 808 q 331 417 331 574 q 374 233 331 303 q 511 164 418 164 q 638 206 586 164 q 708 318 690 247 l 713 335 l 542 335 l 574 503 l 943 503 l 939 475 q 501 -17 864 -17 z "},"ĝ":{"ha":754,"x_min":113,"x_max":796,"o":"m 606 814 l 511 910 l 382 814 l 222 814 l 449 1031 l 615 1031 l 765 814 l 606 814 m 221 -128 q 411 -85 347 -119 q 490 18 475 -50 l 497 51 q 339 -17 440 -17 q 174 63 235 -17 q 113 275 113 142 q 214 600 113 474 q 464 726 315 726 q 604 657 560 726 l 613 710 l 796 710 l 675 39 q 553 -194 646 -124 q 283 -278 460 -264 l 221 -128 m 397 157 q 525 214 475 157 l 575 494 q 467 553 540 553 q 338 482 385 553 q 290 300 290 411 q 317 198 290 239 q 397 157 344 157 z "},"Ğ":{"ha":901,"x_min":144,"x_max":947,"o":"m 632 1058 q 469 1111 524 1058 q 415 1246 415 1164 q 419 1294 415 1269 l 553 1294 q 551 1274 551 1288 q 576 1213 551 1238 q 654 1189 601 1189 q 750 1220 714 1189 q 794 1294 786 1251 l 928 1294 q 833 1126 910 1194 q 632 1058 756 1058 m 501 -17 q 336 18 407 -17 q 225 114 265 53 q 165 251 185 175 q 144 415 144 326 q 198 696 144 568 q 363 906 251 824 q 624 989 475 989 q 947 778 846 989 l 781 688 q 608 808 721 808 q 406 691 481 808 q 331 417 331 574 q 374 233 331 303 q 511 164 418 164 q 638 206 586 164 q 708 318 690 247 l 713 335 l 542 335 l 574 503 l 943 503 l 939 475 q 501 -17 864 -17 z "},"ğ":{"ha":754,"x_min":113,"x_max":796,"o":"m 493 808 q 331 861 385 808 q 276 996 276 914 q 281 1044 276 1019 l 414 1044 q 413 1024 413 1038 q 438 963 413 988 q 515 939 463 939 q 611 970 575 939 q 656 1044 647 1001 l 789 1044 q 694 876 771 944 q 493 808 617 808 m 221 -128 q 411 -85 347 -119 q 490 18 475 -50 l 497 51 q 339 -17 440 -17 q 174 63 235 -17 q 113 275 113 142 q 214 600 113 474 q 464 726 315 726 q 604 657 560 726 l 613 710 l 796 710 l 675 39 q 553 -194 646 -124 q 283 -278 460 -264 l 221 -128 m 397 157 q 525 214 475 157 l 575 494 q 467 553 540 553 q 338 482 385 553 q 290 300 290 411 q 317 198 290 239 q 397 157 344 157 z "},"Ġ":{"ha":901,"x_min":144,"x_max":947,"o":"m 635 1071 q 576 1095 599 1071 q 553 1156 553 1119 q 588 1239 553 1204 q 671 1274 624 1274 q 730 1249 707 1274 q 753 1189 753 1225 q 717 1106 753 1140 q 635 1071 682 1071 m 501 -17 q 336 18 407 -17 q 225 114 265 53 q 165 251 185 175 q 144 415 144 326 q 198 696 144 568 q 363 906 251 824 q 624 989 475 989 q 947 778 846 989 l 781 688 q 608 808 721 808 q 406 691 481 808 q 331 417 331 574 q 374 233 331 303 q 511 164 418 164 q 638 206 586 164 q 708 318 690 247 l 713 335 l 542 335 l 574 503 l 943 503 l 939 475 q 501 -17 864 -17 z "},"ġ":{"ha":754,"x_min":113,"x_max":796,"o":"m 496 821 q 437 845 460 821 q 414 906 414 869 q 449 989 414 954 q 532 1024 485 1024 q 591 999 568 1024 q 614 939 614 975 q 578 856 614 890 q 496 821 543 821 m 221 -128 q 411 -85 347 -119 q 490 18 475 -50 l 497 51 q 339 -17 440 -17 q 174 63 235 -17 q 113 275 113 142 q 214 600 113 474 q 464 726 315 726 q 604 657 560 726 l 613 710 l 796 710 l 675 39 q 553 -194 646 -124 q 283 -278 460 -264 l 221 -128 m 397 157 q 525 214 475 157 l 575 494 q 467 553 540 553 q 338 482 385 553 q 290 300 290 411 q 317 198 290 239 q 397 157 344 157 z "},"Ģ":{"ha":901,"x_min":144,"x_max":947,"o":"m 501 -17 q 336 18 407 -17 q 225 114 265 53 q 165 251 185 175 q 144 415 144 326 q 198 696 144 568 q 363 906 251 824 q 624 989 475 989 q 947 778 846 989 l 781 688 q 608 808 721 808 q 406 691 481 808 q 331 417 331 574 q 374 233 331 303 q 511 164 418 164 q 638 206 586 164 q 708 318 690 247 l 713 335 l 542 335 l 574 503 l 943 503 l 939 475 q 501 -17 864 -17 m 429 -390 l 378 -350 q 463 -247 440 -292 q 410 -222 431 -243 q 390 -164 390 -200 q 421 -82 390 -115 q 496 -49 451 -49 q 565 -75 538 -49 q 593 -149 593 -101 q 429 -390 593 -282 z "},"ģ":{"ha":754,"x_min":113,"x_max":796,"o":"m 515 821 q 446 847 474 821 q 418 921 418 874 q 582 1163 418 1054 l 633 1122 q 549 1019 571 1064 q 601 994 581 1015 q 621 936 621 972 q 590 854 621 888 q 515 821 560 821 m 221 -128 q 411 -85 347 -119 q 490 18 475 -50 l 497 51 q 339 -17 440 -17 q 174 63 235 -17 q 113 275 113 142 q 214 600 113 474 q 464 726 315 726 q 604 657 560 726 l 613 710 l 796 710 l 675 39 q 553 -194 646 -124 q 283 -278 460 -264 l 221 -128 m 397 157 q 525 214 475 157 l 575 494 q 467 553 540 553 q 338 482 385 553 q 290 300 290 411 q 317 198 290 239 q 397 157 344 157 z "},"Ĥ":{"ha":950,"x_min":93,"x_max":1029,"o":"m 774 1063 l 679 1158 l 550 1063 l 390 1063 l 617 1279 l 783 1279 l 933 1063 l 774 1063 m 93 0 l 264 972 l 454 972 l 386 589 l 771 589 l 839 972 l 1029 972 l 858 0 l 668 0 l 740 411 l 356 411 l 283 0 l 93 0 z "},"ĥ":{"ha":774,"x_min":93,"x_max":838,"o":"m 678 1063 l 583 1158 l 454 1063 l 294 1063 l 521 1279 l 688 1279 l 838 1063 l 678 1063 m 93 0 l 258 943 l 449 1003 l 383 638 q 560 726 453 726 q 715 663 661 726 q 768 503 768 600 q 757 406 768 467 l 685 0 l 507 0 l 576 392 q 583 460 583 436 q 493 557 583 557 q 399 519 443 557 q 343 408 356 482 l 271 0 l 93 0 z "},"Ħ":{"ha":954,"x_min":94,"x_max":1119,"o":"m 669 0 l 742 411 l 357 411 l 285 0 l 94 0 l 215 690 l 110 690 l 140 868 l 247 868 l 265 972 l 456 972 l 438 868 l 822 868 l 840 972 l 1031 972 l 1013 868 l 1119 868 l 1089 690 l 982 690 l 860 0 l 669 0 m 772 589 l 790 690 l 406 690 l 388 589 l 772 589 z "},"ħ":{"ha":765,"x_min":93,"x_max":760,"o":"m 507 0 l 568 350 q 575 418 575 392 q 485 515 575 515 q 391 477 433 515 q 336 368 349 439 l 271 0 l 93 0 l 224 746 l 149 746 l 172 885 l 249 885 l 258 943 l 449 1003 l 428 885 l 599 885 l 575 746 l 403 746 l 376 597 q 551 685 447 685 q 701 626 643 685 q 760 463 760 567 q 749 364 760 424 l 685 0 l 507 0 z "},"Ĩ":{"ha":375,"x_min":93,"x_max":675,"o":"m 488 1074 q 372 1106 436 1074 q 279 1138 308 1138 q 207 1079 221 1138 l 125 1079 q 313 1271 158 1271 q 428 1239 364 1271 q 521 1207 492 1207 q 593 1265 579 1207 l 675 1265 q 488 1074 642 1074 m 93 0 l 264 972 l 454 972 l 283 0 l 93 0 z "},"ĩ":{"ha":363,"x_min":75,"x_max":625,"o":"m 438 810 q 322 842 386 810 q 229 874 258 874 q 157 815 171 874 l 75 815 q 263 1007 108 1007 q 378 975 314 1007 q 471 943 442 943 q 543 1001 529 943 l 625 1001 q 438 810 592 810 m 93 0 l 218 710 l 397 710 l 272 0 l 93 0 z "},"Ī":{"ha":375,"x_min":93,"x_max":618,"o":"m 153 1063 l 178 1210 l 618 1210 l 593 1063 l 153 1063 m 93 0 l 264 972 l 454 972 l 283 0 l 93 0 z "},"ī":{"ha":363,"x_min":93,"x_max":568,"o":"m 103 799 l 128 946 l 568 946 l 543 799 l 103 799 m 93 0 l 218 710 l 397 710 l 272 0 l 93 0 z "},"Ĭ":{"ha":375,"x_min":93,"x_max":668,"o":"m 372 1058 q 210 1111 264 1058 q 156 1246 156 1164 q 160 1294 156 1269 l 293 1294 q 292 1274 292 1288 q 317 1213 292 1238 q 394 1189 342 1189 q 490 1220 454 1189 q 535 1294 526 1251 l 668 1294 q 573 1126 650 1194 q 372 1058 496 1058 m 93 0 l 264 972 l 454 972 l 283 0 l 93 0 z "},"ĭ":{"ha":363,"x_min":93,"x_max":618,"o":"m 322 794 q 160 847 214 794 q 106 982 106 900 q 110 1031 106 1006 l 243 1031 q 242 1010 242 1024 q 267 949 242 974 q 344 925 292 925 q 440 956 404 925 q 485 1031 476 988 l 618 1031 q 523 863 600 931 q 322 794 446 794 m 93 0 l 218 710 l 397 710 l 272 0 l 93 0 z "},"Į":{"ha":375,"x_min":-89,"x_max":454,"o":"m 53 -339 q -51 -305 -14 -339 q -89 -214 -89 -271 q 93 0 -89 -74 l 264 972 l 454 972 l 283 0 q 131 -60 207 0 q 56 -187 56 -119 q 97 -235 56 -235 q 154 -208 131 -235 l 224 -268 q 53 -339 150 -339 z "},"į":{"ha":363,"x_min":-90,"x_max":440,"o":"m 322 794 q 261 819 285 794 q 238 882 238 844 q 272 965 238 929 q 351 1001 307 1001 q 415 977 390 1001 q 440 915 440 953 q 405 830 440 865 q 322 794 369 794 m 51 -339 q -53 -305 -15 -339 q -90 -214 -90 -271 q 93 0 -90 -74 l 218 710 l 397 710 l 272 0 q 110 -81 165 -25 q 54 -187 54 -136 q 96 -235 54 -235 q 153 -208 129 -235 l 222 -268 q 51 -339 149 -339 z "},"İ":{"ha":375,"x_min":93,"x_max":493,"o":"m 375 1071 q 316 1095 339 1071 q 293 1156 293 1119 q 328 1239 293 1204 q 411 1274 364 1274 q 470 1249 447 1274 q 493 1189 493 1225 q 458 1106 493 1140 q 375 1071 422 1071 m 93 0 l 264 972 l 454 972 l 283 0 l 93 0 z "},"ı":{"ha":363,"x_min":93,"x_max":397,"o":"m 93 0 l 218 710 l 397 710 l 272 0 l 93 0 z "},"Ĳ":{"ha":1100,"x_min":93,"x_max":1179,"o":"m 93 0 l 264 972 l 454 972 l 283 0 l 93 0 m 729 -17 q 522 40 604 -17 q 411 197 440 97 l 578 272 q 722 165 621 165 q 875 326 847 165 l 989 972 l 1179 972 l 1058 285 q 1005 131 1043 194 q 917 38 967 68 q 822 -4 867 8 q 729 -17 776 -17 z "},"ĳ":{"ha":778,"x_min":93,"x_max":853,"o":"m 324 794 q 262 819 286 794 q 238 881 238 844 q 273 965 238 929 q 351 1001 308 1001 q 416 976 392 1001 q 440 915 440 951 q 405 831 440 867 q 324 794 369 794 m 736 794 q 674 819 699 794 q 650 881 650 844 q 685 965 650 929 q 764 1001 721 1001 q 828 976 804 1001 q 853 915 853 951 q 817 831 853 867 q 736 794 782 794 m 93 0 l 218 710 l 397 710 l 272 0 l 93 0 m 361 -307 l 299 -157 q 450 -103 403 -140 q 511 14 497 -65 l 633 710 l 813 710 l 692 32 q 599 -195 665 -118 q 361 -307 532 -272 z "},"Ĵ":{"ha":739,"x_min":50,"x_max":1010,"o":"m 850 1063 l 756 1158 l 626 1063 l 467 1063 l 693 1279 l 860 1279 l 1010 1063 l 850 1063 m 368 -17 q 161 40 243 -17 q 50 197 79 97 l 217 272 q 361 165 260 165 q 514 326 486 165 l 628 972 l 818 972 l 697 285 q 644 131 682 194 q 556 38 606 68 q 460 -4 506 8 q 368 -17 415 -17 z "},"ĵ":{"ha":363,"x_min":-117,"x_max":601,"o":"m 442 814 l 347 910 l 218 814 l 58 814 l 285 1031 l 451 1031 l 601 814 l 442 814 m -54 -297 l -117 -154 q 42 -98 -6 -131 q 100 -6 90 -65 l 226 710 l 400 710 l 279 24 q -54 -297 235 -235 z "},"Ķ":{"ha":940,"x_min":93,"x_max":1028,"o":"m 697 0 l 539 461 l 325 238 l 283 0 l 93 0 l 264 972 l 454 972 l 376 529 l 800 972 l 1028 972 l 681 608 l 899 0 l 697 0 m 406 -383 l 354 -343 q 439 -240 417 -285 q 387 -215 407 -236 q 367 -157 367 -193 q 397 -75 367 -108 q 472 -42 428 -42 q 542 -68 514 -42 q 569 -142 569 -94 q 406 -383 569 -275 z "},"ķ":{"ha":740,"x_min":93,"x_max":800,"o":"m 547 492 l 706 0 l 518 0 l 403 367 l 324 297 l 271 0 l 93 0 l 258 943 l 449 1003 l 365 529 l 568 710 l 800 710 l 547 492 m 292 -390 l 240 -350 q 325 -247 303 -292 q 273 -222 293 -243 q 253 -164 253 -200 q 283 -82 253 -115 q 358 -49 314 -49 q 428 -75 400 -49 q 456 -149 456 -101 q 292 -390 456 -282 z "},"ĸ":{"ha":717,"x_min":93,"x_max":783,"o":"m 493 0 l 392 300 l 304 210 l 267 0 l 93 0 l 218 710 l 392 710 l 346 446 l 594 710 l 783 710 l 529 444 l 683 0 l 493 0 z "},"Ĺ":{"ha":731,"x_min":93,"x_max":760,"o":"m 435 1064 l 267 1064 l 493 1281 l 717 1281 l 435 1064 m 93 0 l 264 972 l 454 972 l 314 178 l 760 178 l 728 0 l 93 0 z "},"ĺ":{"ha":372,"x_min":93,"x_max":667,"o":"m 385 1050 l 217 1050 l 443 1267 l 667 1267 l 385 1050 m 93 0 l 258 943 l 449 1003 l 271 0 l 93 0 z "},"Ļ":{"ha":731,"x_min":93,"x_max":760,"o":"m 93 0 l 264 972 l 454 972 l 314 178 l 760 178 l 728 0 l 93 0 m 335 -390 l 283 -350 q 368 -247 346 -292 q 316 -222 336 -243 q 296 -164 296 -200 q 326 -82 296 -115 q 401 -49 357 -49 q 471 -75 443 -49 q 499 -149 499 -101 q 335 -390 499 -282 z "},"ļ":{"ha":372,"x_min":54,"x_max":449,"o":"m 93 0 l 258 943 l 449 1003 l 271 0 l 93 0 m 106 -390 l 54 -350 q 139 -247 117 -292 q 87 -222 107 -243 q 67 -164 67 -200 q 97 -82 67 -115 q 172 -49 128 -49 q 242 -75 214 -49 q 269 -149 269 -101 q 106 -390 269 -282 z "},"Ľ":{"ha":731,"x_min":93,"x_max":760,"o":"m 454 1064 l 288 1064 l 138 1281 l 297 1281 l 393 1185 l 521 1281 l 681 1281 l 454 1064 m 93 0 l 264 972 l 454 972 l 314 178 l 760 178 l 728 0 l 93 0 z "},"ľ":{"ha":606,"x_min":93,"x_max":739,"o":"m 93 0 l 258 943 l 449 1003 l 271 0 l 93 0 m 739 989 l 736 974 q 529 629 699 776 l 482 674 q 578 989 538 764 l 739 989 z "},"Ŀ":{"ha":731,"x_min":93,"x_max":760,"o":"m 374 1071 q 315 1095 338 1071 q 292 1156 292 1119 q 327 1239 292 1204 q 410 1274 363 1274 q 469 1249 446 1274 q 492 1189 492 1225 q 456 1106 492 1140 q 374 1071 421 1071 m 93 0 l 264 972 l 454 972 l 314 178 l 760 178 l 728 0 l 93 0 z "},"ŀ":{"ha":733,"x_min":93,"x_max":733,"o":"m 93 0 l 258 943 l 449 1003 l 271 0 l 93 0 m 615 336 q 556 360 579 336 q 533 421 533 385 q 569 504 533 469 q 651 539 604 539 q 710 515 688 539 q 733 454 733 490 q 698 371 733 406 q 615 336 663 336 z "},"Ł":{"ha":731,"x_min":43,"x_max":760,"o":"m 93 0 l 143 290 l 43 219 l 85 429 l 179 494 l 264 972 l 454 972 l 396 643 l 604 788 l 563 579 l 360 440 l 314 178 l 760 178 l 728 0 l 93 0 z "},"ł":{"ha":372,"x_min":60,"x_max":465,"o":"m 92 411 l 175 468 l 258 943 l 449 1003 l 379 607 l 465 667 l 433 488 l 347 429 l 271 0 l 93 0 l 143 288 l 60 232 l 92 411 z "},"Ń":{"ha":943,"x_min":93,"x_max":1022,"o":"m 717 1063 l 549 1063 l 775 1279 l 999 1279 l 717 1063 m 93 0 l 264 972 l 440 972 l 703 413 q 729 339 722 371 q 738 413 731 368 l 836 972 l 1022 972 l 851 0 l 685 0 l 414 567 q 388 640 403 590 q 379 567 388 608 l 279 0 l 93 0 z "},"ń":{"ha":774,"x_min":93,"x_max":883,"o":"m 601 814 l 433 814 l 660 1031 l 883 1031 l 601 814 m 93 0 l 218 710 l 397 710 l 385 639 q 560 726 453 726 q 715 663 661 726 q 768 503 768 600 q 757 406 768 467 l 685 0 l 507 0 l 576 392 q 583 460 583 436 q 493 557 583 557 q 399 519 443 557 q 343 408 356 482 l 271 0 l 93 0 z "},"Ņ":{"ha":943,"x_min":93,"x_max":1022,"o":"m 93 0 l 264 972 l 440 972 l 703 413 q 729 339 722 371 q 738 413 731 368 l 836 972 l 1022 972 l 851 0 l 685 0 l 414 567 q 388 640 403 590 q 379 567 388 608 l 279 0 l 93 0 m 401 -383 l 350 -343 q 435 -240 413 -285 q 383 -215 403 -236 q 363 -157 363 -193 q 393 -75 363 -108 q 468 -42 424 -42 q 538 -68 510 -42 q 565 -142 565 -94 q 401 -383 565 -275 z "},"ņ":{"ha":774,"x_min":93,"x_max":768,"o":"m 93 0 l 218 710 l 397 710 l 385 639 q 560 726 453 726 q 715 663 661 726 q 768 503 768 600 q 757 406 768 467 l 685 0 l 507 0 l 576 392 q 583 460 583 436 q 493 557 583 557 q 399 519 443 557 q 343 408 356 482 l 271 0 l 93 0 m 317 -390 l 265 -350 q 350 -247 328 -292 q 298 -222 318 -243 q 278 -164 278 -200 q 308 -82 278 -115 q 383 -49 339 -49 q 453 -75 425 -49 q 481 -149 481 -101 q 317 -390 481 -282 z "},"Ň":{"ha":943,"x_min":93,"x_max":1022,"o":"m 736 1063 l 569 1063 l 419 1279 l 579 1279 l 675 1183 l 803 1279 l 963 1279 l 736 1063 m 93 0 l 264 972 l 440 972 l 703 413 q 729 339 722 371 q 738 413 731 368 l 836 972 l 1022 972 l 851 0 l 685 0 l 414 567 q 388 640 403 590 q 379 567 388 608 l 279 0 l 93 0 z "},"ň":{"ha":774,"x_min":93,"x_max":847,"o":"m 621 814 l 454 814 l 304 1031 l 464 1031 l 560 935 l 688 1031 l 847 1031 l 621 814 m 93 0 l 218 710 l 397 710 l 385 639 q 560 726 453 726 q 715 663 661 726 q 768 503 768 600 q 757 406 768 467 l 685 0 l 507 0 l 576 392 q 583 460 583 436 q 493 557 583 557 q 399 519 443 557 q 343 408 356 482 l 271 0 l 93 0 z "},"ŉ":{"ha":1103,"x_min":160,"x_max":1097,"o":"m 222 581 l 160 638 q 218 696 183 657 q 269 765 253 735 q 210 854 210 786 q 249 950 210 911 q 342 989 288 989 q 410 960 383 989 q 438 883 438 932 q 374 716 438 800 q 222 581 311 632 m 422 0 l 547 710 l 726 710 l 714 639 q 889 726 782 726 q 1044 663 990 726 q 1097 503 1097 600 q 1086 406 1097 467 l 1014 0 l 836 0 l 906 392 q 913 460 913 436 q 822 557 913 557 q 728 519 772 557 q 672 408 685 482 l 600 0 l 422 0 z "},"Ŋ":{"ha":929,"x_min":93,"x_max":1008,"o":"m 493 -339 l 428 -193 q 593 -135 546 -167 q 651 -39 640 -103 l 664 29 l 407 567 q 381 640 396 590 q 372 567 381 608 l 272 0 l 93 0 l 264 972 l 433 972 l 696 413 q 722 339 715 371 q 731 413 724 368 l 829 972 l 1008 972 l 838 3 q 729 -226 813 -150 q 493 -339 640 -306 z "},"ŋ":{"ha":772,"x_min":93,"x_max":768,"o":"m 292 -189 q 444 -133 397 -171 q 504 -17 490 -96 l 576 392 q 583 460 583 433 q 493 557 583 557 q 398 518 440 557 q 343 410 356 479 l 271 0 l 93 0 l 218 710 l 397 710 l 386 642 q 560 726 457 726 q 709 670 650 726 q 768 503 768 614 q 760 425 768 467 l 685 0 q 582 -237 656 -168 q 354 -339 508 -306 l 292 -189 z "},"Ō":{"ha":960,"x_min":144,"x_max":983,"o":"m 411 1063 l 436 1210 l 876 1210 l 851 1063 l 411 1063 m 518 -17 q 345 19 419 -17 q 228 117 271 56 q 165 253 186 179 q 144 414 144 328 q 199 697 144 568 q 363 908 253 826 q 621 989 474 989 q 890 865 797 989 q 983 565 983 742 q 855 152 983 321 q 518 -17 726 -17 m 517 164 q 719 280 642 164 q 797 565 797 396 q 751 737 797 665 q 608 808 704 808 q 407 689 483 808 q 331 414 331 569 q 376 237 331 310 q 517 164 422 164 z "},"ō":{"ha":746,"x_min":113,"x_max":758,"o":"m 283 813 l 308 960 l 749 960 l 724 813 l 283 813 m 393 -17 q 183 63 254 -17 q 113 294 113 143 q 217 606 113 485 q 488 726 321 726 q 685 643 613 726 q 758 424 758 560 q 656 106 758 228 q 393 -17 554 -17 m 408 158 q 531 225 482 158 q 581 393 581 292 q 461 553 581 553 q 340 485 389 553 q 290 321 290 418 q 408 158 290 158 z "},"Ŏ":{"ha":960,"x_min":144,"x_max":983,"o":"m 631 1058 q 468 1111 522 1058 q 414 1246 414 1164 q 418 1294 414 1269 l 551 1294 q 550 1274 550 1288 q 575 1213 550 1238 q 653 1189 600 1189 q 749 1220 713 1189 q 793 1294 785 1251 l 926 1294 q 831 1126 908 1194 q 631 1058 754 1058 m 518 -17 q 345 19 419 -17 q 228 117 271 56 q 165 253 186 179 q 144 414 144 328 q 199 697 144 568 q 363 908 253 826 q 621 989 474 989 q 890 865 797 989 q 983 565 983 742 q 855 152 983 321 q 518 -17 726 -17 m 517 164 q 719 280 642 164 q 797 565 797 396 q 751 737 797 665 q 608 808 704 808 q 407 689 483 808 q 331 414 331 569 q 376 237 331 310 q 517 164 422 164 z "},"ŏ":{"ha":746,"x_min":113,"x_max":799,"o":"m 503 808 q 340 861 394 808 q 286 996 286 914 q 290 1044 286 1019 l 424 1044 q 422 1024 422 1038 q 447 963 422 988 q 525 939 472 939 q 621 970 585 939 q 665 1044 657 1001 l 799 1044 q 703 876 781 944 q 503 808 626 808 m 393 -17 q 183 63 254 -17 q 113 294 113 143 q 217 606 113 485 q 488 726 321 726 q 685 643 613 726 q 758 424 758 560 q 656 106 758 228 q 393 -17 554 -17 m 408 158 q 531 225 482 158 q 581 393 581 292 q 461 553 581 553 q 340 485 389 553 q 290 321 290 418 q 408 158 290 158 z "},"Ő":{"ha":960,"x_min":144,"x_max":1132,"o":"m 396 1064 l 622 1281 l 839 1281 l 564 1064 l 396 1064 m 689 1064 l 915 1281 l 1132 1281 l 857 1064 l 689 1064 m 518 -17 q 345 19 419 -17 q 228 117 271 56 q 165 253 186 179 q 144 414 144 328 q 199 697 144 568 q 363 908 253 826 q 621 989 474 989 q 890 865 797 989 q 983 565 983 742 q 855 152 983 321 q 518 -17 726 -17 m 517 164 q 719 280 642 164 q 797 565 797 396 q 751 737 797 665 q 608 808 704 808 q 407 689 483 808 q 331 414 331 569 q 376 237 331 310 q 517 164 422 164 z "},"ő":{"ha":746,"x_min":113,"x_max":1004,"o":"m 268 814 l 494 1031 l 711 1031 l 436 814 l 268 814 m 561 814 l 788 1031 l 1004 1031 l 729 814 l 561 814 m 393 -17 q 183 63 254 -17 q 113 294 113 143 q 217 606 113 485 q 488 726 321 726 q 685 643 613 726 q 758 424 758 560 q 656 106 758 228 q 393 -17 554 -17 m 408 158 q 531 225 482 158 q 581 393 581 292 q 461 553 581 553 q 340 485 389 553 q 290 321 290 418 q 408 158 290 158 z "},"Œ":{"ha":1332,"x_min":144,"x_max":1426,"o":"m 518 -17 q 345 19 419 -17 q 228 117 271 56 q 165 253 186 179 q 144 414 144 328 q 199 697 144 568 q 363 908 253 826 q 621 989 474 989 q 825 931 736 989 l 832 972 l 1426 972 l 1396 794 l 992 794 l 956 590 l 1172 590 l 1140 413 l 924 413 l 883 178 l 1315 178 l 1283 0 l 661 0 l 663 10 q 518 -17 596 -17 m 517 164 q 707 260 628 164 l 781 679 q 606 808 733 808 q 407 690 483 808 q 331 414 331 571 q 376 237 331 310 q 517 164 422 164 z "},"œ":{"ha":1188,"x_min":113,"x_max":1214,"o":"m 386 -17 q 183 63 253 -17 q 113 289 113 142 q 218 603 113 481 q 483 726 324 726 q 699 631 631 726 q 933 726 799 726 q 1138 654 1063 726 q 1214 456 1214 582 q 1190 285 1214 351 l 738 285 l 738 271 q 777 176 738 211 q 874 142 817 142 q 1033 215 964 142 l 1121 103 q 836 -17 1006 -17 q 631 79 704 -17 q 386 -17 528 -17 m 764 438 l 1044 438 q 1040 476 1044 460 q 925 568 1021 568 q 764 438 797 568 m 401 157 q 531 224 481 157 q 581 393 581 290 q 552 511 581 469 q 471 553 524 553 q 341 486 392 553 q 290 321 290 419 q 401 157 290 157 z "},"Ŕ":{"ha":903,"x_min":93,"x_max":972,"o":"m 678 1064 l 510 1064 l 736 1281 l 960 1281 l 678 1064 m 972 683 q 953 565 972 622 q 879 451 935 507 q 736 375 824 396 l 833 0 l 629 0 l 538 363 l 347 363 l 283 0 l 93 0 l 264 972 l 692 972 q 823 947 767 972 q 911 880 879 922 q 958 788 943 838 q 972 683 972 739 m 628 540 q 746 581 713 540 q 779 676 779 622 q 752 762 779 729 q 668 794 725 794 l 422 794 l 378 540 l 628 540 z "},"ŕ":{"ha":558,"x_min":89,"x_max":790,"o":"m 508 814 l 340 814 l 567 1031 l 790 1031 l 508 814 m 89 0 l 214 710 l 392 710 l 379 643 q 440 703 400 679 q 526 728 479 728 q 650 672 597 728 l 597 507 q 486 551 547 551 q 394 515 436 551 q 336 396 351 479 l 267 0 l 89 0 z "},"Ŗ":{"ha":903,"x_min":93,"x_max":972,"o":"m 972 683 q 953 565 972 622 q 879 451 935 507 q 736 375 824 396 l 833 0 l 629 0 l 538 363 l 347 363 l 283 0 l 93 0 l 264 972 l 692 972 q 823 947 767 972 q 911 880 879 922 q 958 788 943 838 q 972 683 972 739 m 628 540 q 746 581 713 540 q 779 676 779 622 q 752 762 779 729 q 668 794 725 794 l 422 794 l 378 540 l 628 540 m 379 -390 l 328 -350 q 413 -247 390 -292 q 360 -222 381 -243 q 340 -164 340 -200 q 371 -82 340 -115 q 446 -49 401 -49 q 515 -75 488 -49 q 543 -149 543 -101 q 379 -390 543 -282 z "},"ŗ":{"ha":558,"x_min":50,"x_max":650,"o":"m 89 0 l 214 710 l 392 710 l 379 643 q 440 703 400 679 q 526 728 479 728 q 650 672 597 728 l 597 507 q 486 551 547 551 q 394 515 436 551 q 336 396 351 479 l 267 0 l 89 0 m 101 -390 l 50 -350 q 135 -247 113 -292 q 83 -222 103 -243 q 63 -164 63 -200 q 93 -82 63 -115 q 168 -49 124 -49 q 238 -75 210 -49 q 265 -149 265 -101 q 101 -390 265 -282 z "},"Ř":{"ha":903,"x_min":93,"x_max":972,"o":"m 697 1064 l 531 1064 l 381 1281 l 540 1281 l 636 1185 l 764 1281 l 924 1281 l 697 1064 m 972 683 q 953 565 972 622 q 879 451 935 507 q 736 375 824 396 l 833 0 l 629 0 l 538 363 l 347 363 l 283 0 l 93 0 l 264 972 l 692 972 q 823 947 767 972 q 911 880 879 922 q 958 788 943 838 q 972 683 972 739 m 628 540 q 746 581 713 540 q 779 676 779 622 q 752 762 779 729 q 668 794 725 794 l 422 794 l 378 540 l 628 540 z "},"ř":{"ha":558,"x_min":89,"x_max":754,"o":"m 528 814 l 361 814 l 211 1031 l 371 1031 l 467 935 l 594 1031 l 754 1031 l 528 814 m 89 0 l 214 710 l 392 710 l 379 643 q 440 703 400 679 q 526 728 479 728 q 650 672 597 728 l 597 507 q 486 551 547 551 q 394 515 436 551 q 336 396 351 479 l 267 0 l 89 0 z "},"Ś":{"ha":811,"x_min":100,"x_max":896,"o":"m 614 1064 l 446 1064 l 672 1281 l 896 1281 l 614 1064 m 668 708 q 622 785 658 756 q 526 815 585 815 q 426 788 463 815 q 390 718 390 760 q 433 652 390 681 q 535 599 475 624 q 657 541 596 574 q 760 445 718 508 q 803 293 803 382 q 700 69 803 154 q 428 -17 597 -17 q 215 56 299 -17 q 100 250 132 129 l 274 314 q 339 202 297 240 q 454 164 381 164 q 563 194 521 164 q 604 275 604 224 q 563 356 604 322 q 462 415 521 390 q 343 470 403 439 q 242 562 283 501 q 200 708 200 622 q 292 910 200 831 q 539 989 383 989 q 749 923 675 989 q 839 764 824 857 l 668 708 z "},"ś":{"ha":644,"x_min":69,"x_max":793,"o":"m 511 814 l 343 814 l 569 1031 l 793 1031 l 511 814 m 335 -17 q 174 19 247 -17 q 69 114 100 56 l 199 213 q 353 136 261 136 q 424 152 394 136 q 454 200 454 168 q 407 256 454 228 q 303 308 360 285 q 199 383 246 332 q 151 501 151 433 q 231 665 151 604 q 435 726 310 726 q 578 692 514 726 q 672 613 642 657 l 538 514 q 415 576 494 576 q 350 560 375 576 q 325 515 325 543 q 357 474 325 494 q 434 434 389 454 q 524 388 479 414 q 600 317 568 361 q 632 218 632 274 q 552 46 632 108 q 335 -17 472 -17 z "},"Ŝ":{"ha":811,"x_min":100,"x_max":839,"o":"m 663 1064 l 568 1160 l 439 1064 l 279 1064 l 506 1281 l 672 1281 l 822 1064 l 663 1064 m 668 708 q 622 785 658 756 q 526 815 585 815 q 426 788 463 815 q 390 718 390 760 q 433 652 390 681 q 535 599 475 624 q 657 541 596 574 q 760 445 718 508 q 803 293 803 382 q 700 69 803 154 q 428 -17 597 -17 q 215 56 299 -17 q 100 250 132 129 l 274 314 q 339 202 297 240 q 454 164 381 164 q 563 194 521 164 q 604 275 604 224 q 563 356 604 322 q 462 415 521 390 q 343 470 403 439 q 242 562 283 501 q 200 708 200 622 q 292 910 200 831 q 539 989 383 989 q 749 923 675 989 q 839 764 824 857 l 668 708 z "},"ŝ":{"ha":644,"x_min":69,"x_max":719,"o":"m 560 814 l 465 910 l 336 814 l 176 814 l 403 1031 l 569 1031 l 719 814 l 560 814 m 335 -17 q 174 19 247 -17 q 69 114 100 56 l 199 213 q 353 136 261 136 q 424 152 394 136 q 454 200 454 168 q 407 256 454 228 q 303 308 360 285 q 199 383 246 332 q 151 501 151 433 q 231 665 151 604 q 435 726 310 726 q 578 692 514 726 q 672 613 642 657 l 538 514 q 415 576 494 576 q 350 560 375 576 q 325 515 325 543 q 357 474 325 494 q 434 434 389 454 q 524 388 479 414 q 600 317 568 361 q 632 218 632 274 q 552 46 632 108 q 335 -17 472 -17 z "},"Ş":{"ha":811,"x_min":100,"x_max":839,"o":"m 344 -339 q 208 -274 244 -339 l 294 -215 q 344 -242 310 -242 q 399 -224 379 -242 q 419 -178 419 -207 q 405 -146 419 -158 q 363 -133 390 -133 q 301 -153 329 -133 l 272 -107 l 365 -12 q 196 74 263 4 q 100 250 129 144 l 274 314 q 339 202 297 240 q 454 164 381 164 q 563 194 521 164 q 604 275 604 224 q 563 356 604 322 q 462 415 521 390 q 343 470 403 439 q 242 562 283 501 q 200 708 200 622 q 292 910 200 831 q 539 989 383 989 q 749 923 675 989 q 839 764 824 857 l 668 708 q 622 785 658 756 q 526 815 585 815 q 426 788 463 815 q 390 718 390 760 q 433 652 390 681 q 535 599 475 624 q 657 541 596 574 q 760 445 718 508 q 803 293 803 382 q 709 77 803 161 q 461 -17 615 -7 l 424 -64 q 522 -93 489 -64 q 556 -168 556 -122 q 498 -290 556 -242 q 344 -339 440 -339 z "},"ş":{"ha":644,"x_min":69,"x_max":672,"o":"m 242 -339 q 106 -274 142 -339 l 192 -215 q 242 -242 207 -242 q 297 -224 276 -242 q 317 -178 317 -207 q 302 -146 317 -158 q 260 -133 288 -133 q 199 -153 226 -133 l 169 -107 l 265 -11 q 146 35 199 1 q 69 114 93 68 l 199 213 q 353 136 261 136 q 424 152 394 136 q 454 200 454 168 q 407 256 454 228 q 303 308 360 285 q 199 383 246 332 q 151 501 151 433 q 231 665 151 604 q 435 726 310 726 q 578 692 514 726 q 672 613 642 657 l 538 514 q 415 576 494 576 q 350 560 375 576 q 325 515 325 543 q 357 474 325 494 q 434 434 389 454 q 524 388 479 414 q 600 317 568 361 q 632 218 632 274 q 559 52 632 114 q 358 -17 486 -10 l 321 -64 q 419 -93 386 -64 q 453 -168 453 -122 q 395 -290 453 -242 q 242 -339 338 -339 z "},"Š":{"ha":811,"x_min":100,"x_max":860,"o":"m 633 1064 l 467 1064 l 317 1281 l 476 1281 l 572 1185 l 700 1281 l 860 1281 l 633 1064 m 668 708 q 622 785 658 756 q 526 815 585 815 q 426 788 463 815 q 390 718 390 760 q 433 652 390 681 q 535 599 475 624 q 657 541 596 574 q 760 445 718 508 q 803 293 803 382 q 700 69 803 154 q 428 -17 597 -17 q 215 56 299 -17 q 100 250 132 129 l 274 314 q 339 202 297 240 q 454 164 381 164 q 563 194 521 164 q 604 275 604 224 q 563 356 604 322 q 462 415 521 390 q 343 470 403 439 q 242 562 283 501 q 200 708 200 622 q 292 910 200 831 q 539 989 383 989 q 749 923 675 989 q 839 764 824 857 l 668 708 z "},"š":{"ha":644,"x_min":69,"x_max":757,"o":"m 531 814 l 364 814 l 214 1031 l 374 1031 l 469 935 l 597 1031 l 757 1031 l 531 814 m 335 -17 q 174 19 247 -17 q 69 114 100 56 l 199 213 q 353 136 261 136 q 424 152 394 136 q 454 200 454 168 q 407 256 454 228 q 303 308 360 285 q 199 383 246 332 q 151 501 151 433 q 231 665 151 604 q 435 726 310 726 q 578 692 514 726 q 672 613 642 657 l 538 514 q 415 576 494 576 q 350 560 375 576 q 325 515 325 543 q 357 474 325 494 q 434 434 389 454 q 524 388 479 414 q 600 317 568 361 q 632 218 632 274 q 552 46 632 108 q 335 -17 472 -17 z "},"Ţ":{"ha":797,"x_min":182,"x_max":926,"o":"m 321 -339 q 185 -274 224 -339 l 271 -215 q 321 -242 286 -242 q 376 -224 356 -242 q 396 -179 396 -207 q 339 -133 396 -133 q 278 -153 308 -133 l 249 -107 l 353 0 l 304 0 l 444 792 l 182 792 l 213 972 l 926 972 l 896 792 l 633 792 l 493 0 l 449 0 l 400 -64 q 499 -93 465 -64 q 532 -168 532 -122 q 474 -290 532 -242 q 321 -339 417 -339 z "},"ţ":{"ha":510,"x_min":90,"x_max":581,"o":"m 226 -339 q 90 -274 126 -339 l 176 -215 q 225 -242 189 -242 q 281 -224 261 -242 q 300 -178 300 -207 q 243 -133 300 -133 q 183 -153 211 -133 l 154 -107 l 251 -8 q 181 40 204 6 q 157 119 157 75 q 168 225 157 165 l 225 551 l 115 551 l 143 710 l 253 710 l 293 943 l 482 1003 l 431 710 l 581 710 l 553 551 l 403 551 l 347 236 q 339 179 339 194 q 388 139 339 139 q 493 167 429 139 l 460 14 q 343 -15 413 -8 l 306 -64 q 403 -93 371 -64 q 436 -168 436 -122 q 378 -290 436 -242 q 226 -339 321 -339 z "},"Ť":{"ha":797,"x_min":182,"x_max":926,"o":"m 668 1063 l 501 1063 l 351 1279 l 511 1279 l 607 1183 l 735 1279 l 894 1279 l 668 1063 m 633 792 l 493 0 l 304 0 l 444 792 l 182 792 l 213 972 l 926 972 l 896 792 l 633 792 z "},"ť":{"ha":568,"x_min":115,"x_max":781,"o":"m 781 1165 l 778 1150 q 571 806 740 953 l 524 850 q 619 1165 579 940 l 781 1165 m 306 -17 q 198 21 239 -17 q 157 119 157 58 q 168 225 157 165 l 225 551 l 115 551 l 143 710 l 253 710 l 293 943 l 482 1003 l 431 710 l 581 710 l 553 551 l 403 551 l 347 236 q 339 179 339 190 q 388 139 339 139 q 493 167 429 139 l 460 14 q 306 -17 392 -17 z "},"Ŧ":{"ha":797,"x_min":182,"x_max":926,"o":"m 304 0 l 367 357 l 215 357 l 246 531 l 397 531 l 444 792 l 182 792 l 213 972 l 926 972 l 896 792 l 633 792 l 588 531 l 739 531 l 708 357 l 557 357 l 493 0 l 304 0 z "},"ŧ":{"ha":538,"x_min":81,"x_max":594,"o":"m 319 -17 q 212 21 253 -17 q 171 119 171 58 q 182 225 171 165 l 190 271 l 81 271 l 108 429 l 218 429 l 239 551 l 129 551 l 157 710 l 267 710 l 307 943 l 496 1003 l 444 710 l 594 710 l 567 551 l 417 551 l 394 429 l 544 429 l 517 271 l 367 271 l 361 236 q 353 179 353 190 q 401 139 353 139 q 507 167 443 139 l 474 14 q 319 -17 406 -17 z "},"Ũ":{"ha":943,"x_min":154,"x_max":1028,"o":"m 769 1074 q 656 1106 719 1074 q 561 1138 592 1138 q 489 1079 503 1138 l 407 1079 q 594 1271 440 1271 q 708 1239 644 1271 q 803 1207 772 1207 q 875 1265 861 1207 l 957 1265 q 769 1074 924 1074 m 490 -17 q 249 62 343 -17 q 154 294 154 140 q 169 439 154 350 l 265 972 l 453 972 l 354 404 q 343 313 343 342 q 388 201 343 235 q 504 167 433 167 q 656 213 597 167 q 735 372 715 258 l 840 972 l 1028 972 l 919 356 q 860 171 900 246 q 762 56 821 96 q 638 0 703 17 q 490 -17 574 -17 z "},"ũ":{"ha":774,"x_min":122,"x_max":828,"o":"m 640 824 q 525 856 589 824 q 432 888 461 888 q 360 829 374 888 l 278 829 q 465 1021 311 1021 q 581 989 517 1021 q 674 957 644 957 q 746 1015 732 957 l 828 1015 q 640 824 794 824 m 508 0 l 519 67 q 315 -17 440 -17 q 181 40 239 -17 q 122 204 122 97 q 129 276 122 232 l 206 710 l 385 710 l 315 318 q 307 251 307 274 q 399 157 307 157 q 503 190 458 157 q 560 290 549 222 l 633 710 l 811 710 l 686 0 l 508 0 z "},"Ū":{"ha":943,"x_min":154,"x_max":1028,"o":"m 435 1063 l 460 1210 l 900 1210 l 875 1063 l 435 1063 m 490 -17 q 249 62 343 -17 q 154 294 154 140 q 169 439 154 350 l 265 972 l 453 972 l 354 404 q 343 313 343 342 q 388 201 343 235 q 504 167 433 167 q 656 213 597 167 q 735 372 715 258 l 840 972 l 1028 972 l 919 356 q 860 171 900 246 q 762 56 821 96 q 638 0 703 17 q 490 -17 574 -17 z "},"ū":{"ha":774,"x_min":122,"x_max":811,"o":"m 306 813 l 331 960 l 771 960 l 746 813 l 306 813 m 508 0 l 519 67 q 315 -17 440 -17 q 181 40 239 -17 q 122 204 122 97 q 129 276 122 232 l 206 710 l 385 710 l 315 318 q 307 251 307 274 q 399 157 307 157 q 503 190 458 157 q 560 290 549 222 l 633 710 l 811 710 l 686 0 l 508 0 z "},"Ŭ":{"ha":943,"x_min":154,"x_max":1028,"o":"m 654 1058 q 492 1111 546 1058 q 438 1246 438 1164 q 442 1294 438 1269 l 575 1294 q 574 1274 574 1288 q 599 1213 574 1238 q 676 1189 624 1189 q 772 1220 736 1189 q 817 1294 808 1251 l 950 1294 q 855 1126 932 1194 q 654 1058 778 1058 m 490 -17 q 249 62 343 -17 q 154 294 154 140 q 169 439 154 350 l 265 972 l 453 972 l 354 404 q 343 313 343 342 q 388 201 343 235 q 504 167 433 167 q 656 213 597 167 q 735 372 715 258 l 840 972 l 1028 972 l 919 356 q 860 171 900 246 q 762 56 821 96 q 638 0 703 17 q 490 -17 574 -17 z "},"ŭ":{"ha":774,"x_min":122,"x_max":821,"o":"m 525 808 q 363 861 417 808 q 308 996 308 914 q 313 1044 308 1019 l 446 1044 q 444 1024 444 1038 q 469 963 444 988 q 547 939 494 939 q 643 970 607 939 q 688 1044 679 1001 l 821 1044 q 726 876 803 944 q 525 808 649 808 m 508 0 l 519 67 q 315 -17 440 -17 q 181 40 239 -17 q 122 204 122 97 q 129 276 122 232 l 206 710 l 385 710 l 315 318 q 307 251 307 274 q 399 157 307 157 q 503 190 458 157 q 560 290 549 222 l 633 710 l 811 710 l 686 0 l 508 0 z "},"Ů":{"ha":943,"x_min":154,"x_max":1028,"o":"m 656 1044 q 551 1088 592 1044 q 510 1196 510 1132 q 573 1340 510 1279 q 718 1401 636 1401 q 820 1358 779 1401 q 861 1251 861 1314 q 798 1106 861 1168 q 656 1044 735 1044 m 676 1168 q 720 1187 701 1168 q 739 1233 739 1206 q 726 1266 739 1253 q 696 1279 714 1279 q 652 1260 671 1279 q 633 1214 633 1242 q 645 1181 633 1194 q 676 1168 657 1168 m 490 -17 q 249 62 343 -17 q 154 294 154 140 q 169 439 154 350 l 265 972 l 453 972 l 354 404 q 343 313 343 342 q 388 201 343 235 q 504 167 433 167 q 656 213 597 167 q 735 372 715 258 l 840 972 l 1028 972 l 919 356 q 860 171 900 246 q 762 56 821 96 q 638 0 703 17 q 490 -17 574 -17 z "},"ů":{"ha":774,"x_min":122,"x_max":811,"o":"m 526 794 q 422 838 463 794 q 381 946 381 882 q 444 1090 381 1029 q 589 1151 507 1151 q 691 1108 650 1151 q 732 1001 732 1064 q 669 856 732 918 q 526 794 606 794 m 547 918 q 591 937 572 918 q 610 983 610 956 q 597 1016 610 1003 q 567 1029 585 1029 q 523 1010 542 1029 q 504 964 504 992 q 516 931 504 944 q 547 918 528 918 m 508 0 l 519 67 q 315 -17 440 -17 q 181 40 239 -17 q 122 204 122 97 q 129 276 122 232 l 206 710 l 385 710 l 315 318 q 307 251 307 274 q 399 157 307 157 q 503 190 458 157 q 560 290 549 222 l 633 710 l 811 710 l 686 0 l 508 0 z "},"Ű":{"ha":943,"x_min":154,"x_max":1156,"o":"m 419 1064 l 646 1281 l 863 1281 l 588 1064 l 419 1064 m 713 1064 l 939 1281 l 1156 1281 l 881 1064 l 713 1064 m 490 -17 q 249 62 343 -17 q 154 294 154 140 q 169 439 154 350 l 265 972 l 453 972 l 354 404 q 343 313 343 342 q 388 201 343 235 q 504 167 433 167 q 656 213 597 167 q 735 372 715 258 l 840 972 l 1028 972 l 919 356 q 860 171 900 246 q 762 56 821 96 q 638 0 703 17 q 490 -17 574 -17 z "},"ű":{"ha":774,"x_min":122,"x_max":1026,"o":"m 290 814 l 517 1031 l 733 1031 l 458 814 l 290 814 m 583 814 l 810 1031 l 1026 1031 l 751 814 l 583 814 m 508 0 l 519 67 q 315 -17 440 -17 q 181 40 239 -17 q 122 204 122 97 q 129 276 122 232 l 206 710 l 385 710 l 315 318 q 307 251 307 274 q 399 157 307 157 q 503 190 458 157 q 560 290 549 222 l 633 710 l 811 710 l 686 0 l 508 0 z "},"Ų":{"ha":943,"x_min":154,"x_max":1028,"o":"m 439 -339 q 335 -304 374 -339 q 296 -214 296 -269 q 451 -15 296 -85 q 407 -10 424 -12 q 224 87 293 10 q 154 294 154 164 q 169 439 154 350 l 265 972 l 453 972 l 354 404 q 343 313 343 342 q 388 201 343 235 q 504 167 433 167 q 656 213 597 167 q 735 372 715 258 l 840 972 l 1028 972 l 919 356 q 812 101 889 183 q 601 -17 735 19 q 483 -91 524 -39 q 442 -187 442 -143 q 483 -235 442 -235 q 540 -208 514 -235 l 610 -268 q 439 -339 536 -339 z "},"ų":{"ha":774,"x_min":122,"x_max":811,"o":"m 469 -339 q 366 -305 404 -339 q 328 -214 328 -271 q 508 0 328 -76 l 519 67 q 315 -17 440 -17 q 181 40 239 -17 q 122 204 122 97 q 129 276 122 232 l 206 710 l 385 710 l 315 318 q 307 251 307 274 q 399 157 307 157 q 503 190 458 157 q 560 290 549 222 l 633 710 l 811 710 l 686 0 q 526 -83 579 -29 q 474 -189 474 -136 q 514 -235 474 -235 q 572 -208 546 -235 l 640 -268 q 469 -339 567 -339 z "},"Ŵ":{"ha":1126,"x_min":208,"x_max":1263,"o":"m 856 1064 l 761 1160 l 632 1064 l 472 1064 l 699 1281 l 865 1281 l 1015 1064 l 856 1064 m 238 0 l 208 972 l 399 972 l 400 425 q 399 384 400 407 q 399 353 399 361 q 425 426 406 379 l 649 972 l 810 972 l 844 426 q 846 353 846 401 q 871 425 853 376 l 1067 972 l 1263 972 l 892 0 l 719 0 l 678 536 q 675 646 675 581 q 636 543 664 608 l 410 0 l 238 0 z "},"ŵ":{"ha":988,"x_min":158,"x_max":1079,"o":"m 747 814 l 653 910 l 524 814 l 364 814 l 590 1031 l 757 1031 l 907 814 l 747 814 m 229 0 l 158 710 l 329 710 l 349 364 q 350 271 350 336 q 386 364 356 288 l 532 710 l 700 710 l 728 364 q 731 271 731 336 q 747 315 735 282 q 765 364 758 349 l 904 710 l 1079 710 l 776 0 l 617 0 l 582 354 q 578 460 578 392 q 538 354 554 392 l 388 0 l 229 0 z "},"Ŷ":{"ha":914,"x_min":190,"x_max":1063,"o":"m 749 1064 l 654 1160 l 525 1064 l 365 1064 l 592 1281 l 758 1281 l 908 1064 l 749 1064 m 361 0 l 431 392 l 190 972 l 388 972 l 549 575 l 849 972 l 1063 972 l 619 388 l 551 0 l 361 0 z "},"ŷ":{"ha":746,"x_min":131,"x_max":861,"o":"m 628 814 l 533 910 l 404 814 l 244 814 l 471 1031 l 638 1031 l 788 814 l 628 814 m 131 -269 l 285 14 l 151 710 l 329 710 l 406 300 q 415 235 414 261 q 446 300 424 258 l 668 710 l 861 710 l 326 -269 l 131 -269 z "},"Ÿ":{"ha":914,"x_min":190,"x_max":1063,"o":"m 514 1071 q 453 1095 476 1071 q 429 1156 429 1119 q 464 1238 429 1203 q 540 1274 499 1274 q 604 1249 581 1274 q 628 1189 628 1225 q 593 1106 628 1140 q 514 1071 558 1071 m 768 1071 q 706 1095 729 1071 q 683 1156 683 1119 q 717 1239 683 1204 q 796 1274 751 1274 q 858 1249 835 1274 q 882 1189 882 1225 q 847 1106 882 1142 q 768 1071 811 1071 m 361 0 l 431 392 l 190 972 l 388 972 l 549 575 l 849 972 l 1063 972 l 619 388 l 551 0 l 361 0 z "},"Ź":{"ha":850,"x_min":56,"x_max":953,"o":"m 663 1064 l 494 1064 l 721 1281 l 944 1281 l 663 1064 m 56 0 l 81 143 l 668 794 l 225 794 l 256 972 l 953 972 l 928 829 l 336 178 l 814 178 l 782 0 l 56 0 z "},"ź":{"ha":701,"x_min":63,"x_max":836,"o":"m 554 814 l 386 814 l 613 1031 l 836 1031 l 554 814 m 63 0 l 88 142 l 497 549 l 185 549 l 213 710 l 760 710 l 736 572 l 325 161 l 661 161 l 633 0 l 63 0 z "},"Ż":{"ha":850,"x_min":56,"x_max":953,"o":"m 601 1071 q 542 1095 565 1071 q 519 1156 519 1119 q 555 1239 519 1204 q 638 1274 590 1274 q 697 1249 674 1274 q 719 1189 719 1225 q 684 1106 719 1140 q 601 1071 649 1071 m 56 0 l 81 143 l 668 794 l 225 794 l 256 972 l 953 972 l 928 829 l 336 178 l 814 178 l 782 0 l 56 0 z "},"ż":{"ha":701,"x_min":63,"x_max":760,"o":"m 493 821 q 434 845 457 821 q 411 906 411 869 q 447 989 411 954 q 529 1024 482 1024 q 588 999 565 1024 q 611 939 611 975 q 576 856 611 890 q 493 821 540 821 m 63 0 l 88 142 l 497 549 l 185 549 l 213 710 l 760 710 l 736 572 l 325 161 l 661 161 l 633 0 l 63 0 z "},"Ž":{"ha":850,"x_min":56,"x_max":953,"o":"m 682 1064 l 515 1064 l 365 1281 l 525 1281 l 621 1185 l 749 1281 l 908 1281 l 682 1064 m 56 0 l 81 143 l 668 794 l 225 794 l 256 972 l 953 972 l 928 829 l 336 178 l 814 178 l 782 0 l 56 0 z "},"ž":{"ha":701,"x_min":63,"x_max":800,"o":"m 574 814 l 407 814 l 257 1031 l 417 1031 l 513 935 l 640 1031 l 800 1031 l 574 814 m 63 0 l 88 142 l 497 549 l 185 549 l 213 710 l 760 710 l 736 572 l 325 161 l 661 161 l 633 0 l 63 0 z "},"ſ":{"ha":468,"x_min":132,"x_max":624,"o":"m 132 0 l 276 818 q 482 992 307 992 q 624 954 549 992 l 596 807 q 500 831 540 831 q 447 782 457 831 l 310 0 l 132 0 z "},"ƒ":{"ha":515,"x_min":-57,"x_max":656,"o":"m 6 -339 l -57 -196 q 98 -138 49 -175 q 161 -26 147 -101 l 263 549 l 171 549 l 199 710 l 290 710 l 310 818 q 511 989 340 989 q 656 954 594 989 l 629 807 q 536 831 574 831 q 479 782 488 831 l 467 710 l 613 710 l 585 549 l 438 549 l 342 -3 q 236 -227 315 -151 q 6 -339 157 -303 z "},"Ǎ":{"ha":953,"x_min":31,"x_max":978,"o":"m 751 1064 l 585 1064 l 435 1281 l 594 1281 l 690 1185 l 818 1281 l 978 1281 l 751 1064 m 31 0 l 558 972 l 743 972 l 929 0 l 736 0 l 700 201 l 340 201 l 232 0 l 31 0 m 428 372 l 671 372 l 622 643 q 618 667 621 649 q 613 699 615 685 q 610 721 610 714 q 574 646 594 686 l 428 372 z "},"ǎ":{"ha":731,"x_min":82,"x_max":814,"o":"m 588 814 l 421 814 l 271 1031 l 431 1031 l 526 935 l 654 1031 l 814 1031 l 588 814 m 479 0 l 490 56 q 410 4 461 25 q 301 -17 358 -17 q 145 40 208 -17 q 82 190 82 96 q 169 382 82 311 q 399 453 256 453 q 551 411 483 453 l 557 439 q 563 483 563 465 q 457 568 563 568 q 233 497 347 568 l 207 643 q 486 726 339 726 q 565 717 525 726 q 646 684 604 707 q 713 615 688 661 q 739 506 739 569 q 729 422 739 481 l 656 0 l 479 0 m 351 142 q 514 200 443 142 l 528 275 q 396 300 471 300 q 299 277 339 300 q 260 207 260 254 q 285 160 260 178 q 351 142 310 142 z "},"Ǐ":{"ha":375,"x_min":93,"x_max":682,"o":"m 456 1064 l 289 1064 l 139 1281 l 299 1281 l 394 1185 l 522 1281 l 682 1281 l 456 1064 m 93 0 l 264 972 l 454 972 l 283 0 l 93 0 z "},"ǐ":{"ha":363,"x_min":89,"x_max":632,"o":"m 406 800 l 239 800 l 89 1017 l 249 1017 l 344 921 l 472 1017 l 632 1017 l 406 800 m 93 0 l 218 710 l 397 710 l 272 0 l 93 0 z "},"Ǒ":{"ha":960,"x_min":144,"x_max":983,"o":"m 714 1064 l 547 1064 l 397 1281 l 557 1281 l 653 1185 l 781 1281 l 940 1281 l 714 1064 m 518 -17 q 345 19 419 -17 q 228 117 271 56 q 165 253 186 179 q 144 414 144 328 q 199 697 144 568 q 363 908 253 826 q 621 989 474 989 q 890 865 797 989 q 983 565 983 742 q 855 152 983 321 q 518 -17 726 -17 m 517 164 q 719 280 642 164 q 797 565 797 396 q 751 737 797 665 q 608 808 704 808 q 407 689 483 808 q 331 414 331 569 q 376 237 331 310 q 517 164 422 164 z "},"ǒ":{"ha":746,"x_min":113,"x_max":813,"o":"m 586 814 l 419 814 l 269 1031 l 429 1031 l 525 935 l 653 1031 l 813 1031 l 586 814 m 393 -17 q 183 63 254 -17 q 113 294 113 143 q 217 606 113 485 q 488 726 321 726 q 685 643 613 726 q 758 424 758 560 q 656 106 758 228 q 393 -17 554 -17 m 408 158 q 531 225 482 158 q 581 393 581 292 q 461 553 581 553 q 340 485 389 553 q 290 321 290 418 q 408 158 290 158 z "},"Ǔ":{"ha":943,"x_min":154,"x_max":1028,"o":"m 738 1064 l 571 1064 l 421 1281 l 581 1281 l 676 1185 l 804 1281 l 964 1281 l 738 1064 m 490 -17 q 249 62 343 -17 q 154 294 154 140 q 169 439 154 350 l 265 972 l 453 972 l 354 404 q 343 313 343 342 q 388 201 343 235 q 504 167 433 167 q 656 213 597 167 q 735 372 715 258 l 840 972 l 1028 972 l 919 356 q 860 171 900 246 q 762 56 821 96 q 638 0 703 17 q 490 -17 574 -17 z "},"ǔ":{"ha":774,"x_min":122,"x_max":835,"o":"m 608 814 l 442 814 l 292 1031 l 451 1031 l 547 935 l 675 1031 l 835 1031 l 608 814 m 508 0 l 519 67 q 315 -17 440 -17 q 181 40 239 -17 q 122 204 122 97 q 129 276 122 232 l 206 710 l 385 710 l 315 318 q 307 251 307 274 q 399 157 307 157 q 503 190 458 157 q 560 290 549 222 l 633 710 l 811 710 l 686 0 l 508 0 z "},"Ǽ":{"ha":1163,"x_min":-50,"x_max":1257,"o":"m 836 1050 l 668 1050 l 894 1267 l 1118 1267 l 836 1050 m -50 0 l 661 972 l 1257 972 l 1226 794 l 826 794 l 790 590 l 1003 590 l 971 413 l 758 413 l 718 178 l 1146 178 l 1114 0 l 501 0 l 538 201 l 297 201 l 151 0 l -50 0 m 422 372 l 567 372 l 617 650 q 572 581 604 624 l 422 372 z "},"ǽ":{"ha":1122,"x_min":83,"x_max":1149,"o":"m 738 814 l 569 814 l 796 1031 l 1019 1031 l 738 814 m 283 -17 q 142 38 200 -17 q 83 190 83 93 q 172 388 83 319 q 386 456 260 456 q 526 422 468 456 l 532 456 q 535 485 535 478 q 509 546 535 524 q 439 568 483 568 q 225 497 331 568 l 201 643 q 471 726 328 726 q 570 703 521 726 q 650 640 619 679 q 888 726 739 726 q 1078 656 1007 726 q 1149 446 1149 585 q 1122 285 1149 360 l 671 285 q 670 279 671 283 q 669 272 669 275 q 708 176 669 211 q 807 142 747 142 q 965 215 896 142 l 1057 99 q 783 -17 946 -17 q 546 97 613 -17 q 283 -17 428 -17 m 696 438 l 976 438 q 975 463 976 451 q 853 568 961 568 q 754 535 796 568 q 696 438 713 503 m 349 142 q 486 200 422 142 q 490 220 488 207 q 493 239 492 233 q 497 257 494 244 q 500 276 499 269 q 392 300 453 300 q 297 276 335 300 q 258 207 258 253 q 282 159 258 176 q 349 142 306 142 z "},"Ǿ":{"ha":960,"x_min":60,"x_max":1072,"o":"m 715 1064 l 547 1064 l 774 1281 l 997 1281 l 715 1064 m 60 -17 l 203 157 q 144 414 144 264 q 199 697 144 568 q 363 908 253 826 q 621 989 474 989 q 833 921 747 989 l 890 989 l 1072 989 l 925 811 q 983 565 983 706 q 855 152 983 321 q 518 -17 726 -17 q 296 49 383 -17 l 242 -17 l 60 -17 m 340 322 l 713 775 q 608 808 671 808 q 407 689 483 808 q 331 414 331 569 q 340 322 331 363 m 517 164 q 719 280 642 164 q 797 565 797 396 q 788 646 797 600 l 415 194 q 517 164 457 164 z "},"ǿ":{"ha":746,"x_min":56,"x_max":856,"o":"m 574 800 l 406 800 l 632 1017 l 856 1017 l 574 800 m 56 -17 l 154 104 q 113 294 113 179 q 217 606 113 485 q 488 726 321 726 q 629 689 568 726 l 660 726 l 815 726 l 714 601 q 758 424 758 528 q 656 106 758 228 q 393 -17 554 -17 q 240 18 303 -17 l 213 -17 l 56 -17 m 293 275 l 511 543 q 461 553 490 553 q 340 485 389 553 q 290 321 290 418 q 293 275 290 289 m 408 158 q 531 225 482 158 q 581 393 581 292 q 578 433 581 408 l 361 167 q 408 158 382 158 z "},"Ș":{"ha":811,"x_min":100,"x_max":839,"o":"m 668 708 q 622 785 658 756 q 526 815 585 815 q 426 788 463 815 q 390 718 390 760 q 433 652 390 681 q 535 599 475 624 q 657 541 596 574 q 760 445 718 508 q 803 293 803 382 q 700 69 803 154 q 428 -17 597 -17 q 215 56 299 -17 q 100 250 132 129 l 274 314 q 339 202 297 240 q 454 164 381 164 q 563 194 521 164 q 604 275 604 224 q 563 356 604 322 q 462 415 521 390 q 343 470 403 439 q 242 562 283 501 q 200 708 200 622 q 292 910 200 831 q 539 989 383 989 q 749 923 675 989 q 839 764 824 857 l 668 708 m 361 -390 l 310 -350 q 394 -247 372 -292 q 342 -222 363 -243 q 322 -164 322 -200 q 353 -82 322 -115 q 428 -49 383 -49 q 497 -75 469 -49 q 525 -149 525 -101 q 361 -390 525 -282 z "},"ș":{"ha":644,"x_min":69,"x_max":672,"o":"m 335 -17 q 174 19 247 -17 q 69 114 100 56 l 199 213 q 353 136 261 136 q 424 152 394 136 q 454 200 454 168 q 407 256 454 228 q 303 308 360 285 q 199 383 246 332 q 151 501 151 433 q 231 665 151 604 q 435 726 310 726 q 578 692 514 726 q 672 613 642 657 l 538 514 q 415 576 494 576 q 350 560 375 576 q 325 515 325 543 q 357 474 325 494 q 434 434 389 454 q 524 388 479 414 q 600 317 568 361 q 632 218 632 274 q 552 46 632 108 q 335 -17 472 -17 m 265 -390 l 214 -350 q 299 -247 276 -292 q 247 -222 267 -243 q 226 -164 226 -200 q 257 -82 226 -115 q 332 -49 288 -49 q 401 -75 374 -49 q 429 -149 429 -101 q 265 -390 429 -282 z "},"Ț":{"ha":797,"x_min":182,"x_max":926,"o":"m 633 792 l 493 0 l 304 0 l 444 792 l 182 792 l 213 972 l 926 972 l 896 792 l 633 792 m 311 -390 l 260 -350 q 344 -247 322 -292 q 292 -222 313 -243 q 272 -164 272 -200 q 303 -82 272 -115 q 378 -49 333 -49 q 447 -75 419 -49 q 475 -149 475 -101 q 311 -390 475 -282 z "},"ț":{"ha":510,"x_min":115,"x_max":581,"o":"m 306 -17 q 198 21 239 -17 q 157 119 157 58 q 168 225 157 165 l 225 551 l 115 551 l 143 710 l 253 710 l 293 943 l 482 1003 l 431 710 l 581 710 l 553 551 l 403 551 l 347 236 q 339 179 339 190 q 388 139 339 139 q 493 167 429 139 l 460 14 q 306 -17 392 -17 m 232 -390 l 181 -350 q 265 -247 243 -292 q 213 -222 233 -243 q 193 -164 193 -200 q 224 -82 193 -115 q 299 -49 254 -49 q 368 -75 340 -49 q 396 -149 396 -101 q 232 -390 396 -282 z "},"ȷ":{"ha":363,"x_min":-117,"x_max":400,"o":"m -54 -297 l -117 -154 q 42 -98 -6 -131 q 100 -6 90 -65 l 226 710 l 400 710 l 279 24 q -54 -297 235 -235 z "},"ˆ":{"ha":633,"x_min":232,"x_max":775,"o":"m 615 800 l 521 896 l 392 800 l 232 800 l 458 1017 l 625 1017 l 775 800 l 615 800 z "},"ˇ":{"ha":633,"x_min":271,"x_max":814,"o":"m 588 800 l 421 800 l 271 1017 l 431 1017 l 526 921 l 654 1017 l 814 1017 l 588 800 z "},"ˉ":{"ha":633,"x_min":292,"x_max":757,"o":"m 292 814 l 317 961 l 757 961 l 732 814 l 292 814 z "},"˘":{"ha":633,"x_min":290,"x_max":803,"o":"m 507 794 q 344 847 399 794 q 290 982 290 900 q 294 1031 290 1006 l 428 1031 q 426 1010 426 1024 q 451 949 426 974 q 529 925 476 925 q 625 956 589 925 q 669 1031 661 988 l 803 1031 q 708 863 785 931 q 507 794 631 794 z "},"˙":{"ha":633,"x_min":425,"x_max":625,"o":"m 507 807 q 448 831 471 807 q 425 892 425 856 q 460 975 425 940 q 543 1010 496 1010 q 602 985 579 1010 q 625 925 625 961 q 590 842 625 876 q 507 807 554 807 z "},"˚":{"ha":633,"x_min":332,"x_max":683,"o":"m 478 729 q 373 773 414 729 q 332 881 332 817 q 395 1025 332 964 q 540 1086 458 1086 q 642 1042 601 1086 q 683 936 683 999 q 620 791 683 853 q 478 729 557 729 m 499 853 q 542 872 524 853 q 561 918 561 890 q 549 951 561 938 q 518 964 536 964 q 474 945 493 964 q 456 899 456 926 q 467 866 456 879 q 499 853 479 853 z "},"˛":{"ha":633,"x_min":118,"x_max":460,"o":"m 260 -339 q 156 -305 194 -339 q 118 -214 118 -271 q 177 -78 118 -137 q 340 14 236 -19 l 460 14 q 312 -81 360 -25 q 264 -189 264 -137 q 306 -235 264 -235 q 363 -208 336 -235 l 432 -268 q 260 -339 354 -339 z "},"˜":{"ha":633,"x_min":244,"x_max":794,"o":"m 607 810 q 492 842 556 810 q 399 874 428 874 q 326 815 340 874 l 244 815 q 432 1007 278 1007 q 547 975 483 1007 q 640 943 611 943 q 713 1001 699 943 l 794 1001 q 607 810 761 810 z "},"˝":{"ha":633,"x_min":174,"x_max":910,"o":"m 174 800 l 400 1017 l 617 1017 l 342 800 l 174 800 m 467 800 l 693 1017 l 910 1017 l 635 800 l 467 800 z "},"̒":{"ha":0,"x_min":-210,"x_max":6,"o":"m -112 807 q -182 833 -154 807 q -210 907 -210 860 q -46 1149 -210 1040 l 6 1108 q -79 1006 -57 1050 q -27 980 -47 1001 q -7 922 -7 958 q -37 840 -7 874 q -112 807 -68 807 z "},"̦":{"ha":0,"x_min":-458,"x_max":-243,"o":"m -407 -390 l -458 -350 q -374 -247 -396 -292 q -426 -222 -406 -243 q -446 -164 -446 -200 q -415 -82 -446 -115 q -340 -49 -385 -49 q -271 -75 -299 -49 q -243 -149 -243 -101 q -407 -390 -243 -282 z "},"Ω":{"ha":957,"x_min":75,"x_max":989,"o":"m 532 0 l 558 149 q 800 568 800 343 q 756 743 800 678 q 619 808 713 808 q 496 777 550 808 q 411 694 442 746 q 365 587 381 643 q 350 472 350 531 q 457 149 350 297 l 431 0 l 75 0 l 107 181 l 258 181 q 191 320 219 232 q 163 504 163 408 q 191 665 163 583 q 272 822 219 747 q 415 942 325 896 q 615 989 504 989 q 793 954 717 989 q 910 863 869 919 q 970 747 951 807 q 989 625 989 686 q 929 370 989 483 q 769 181 869 257 l 918 181 l 886 0 l 532 0 z "},"μ":{"ha":774,"x_min":36,"x_max":811,"o":"m 508 0 l 519 67 q 363 -17 461 -17 q 268 21 303 -17 l 226 -218 l 36 -278 l 210 710 l 385 710 l 315 315 q 308 254 308 281 q 404 157 308 157 q 504 193 461 157 q 561 307 547 229 l 633 710 l 811 710 l 686 0 l 508 0 z "},"π":{"ha":874,"x_min":35,"x_max":961,"o":"m 161 -33 l 35 88 q 104 134 74 110 q 169 199 135 158 q 228 302 203 240 q 268 444 254 364 l 282 522 l 168 522 l 201 710 l 961 710 l 928 522 l 779 522 l 725 217 q 722 189 722 194 q 765 142 722 142 q 876 168 814 142 l 831 15 q 692 -17 763 -17 q 583 24 624 -17 q 542 133 542 65 q 547 192 542 164 l 606 522 l 454 522 l 450 497 q 353 162 413 285 q 161 -33 294 39 z "},"Ẁ":{"ha":1126,"x_min":208,"x_max":1263,"o":"m 663 1064 l 457 1281 l 681 1281 l 832 1064 l 663 1064 m 238 0 l 208 972 l 399 972 l 400 425 q 399 384 400 407 q 399 353 399 361 q 425 426 406 379 l 649 972 l 810 972 l 844 426 q 846 353 846 401 q 871 425 853 376 l 1067 972 l 1263 972 l 892 0 l 719 0 l 678 536 q 675 646 675 581 q 636 543 664 608 l 410 0 l 238 0 z "},"ẁ":{"ha":988,"x_min":158,"x_max":1079,"o":"m 554 814 l 349 1031 l 572 1031 l 724 814 l 554 814 m 229 0 l 158 710 l 329 710 l 349 364 q 350 271 350 336 q 386 364 356 288 l 532 710 l 700 710 l 728 364 q 731 271 731 336 q 747 315 735 282 q 765 364 758 349 l 904 710 l 1079 710 l 776 0 l 617 0 l 582 354 q 578 460 578 392 q 538 354 554 392 l 388 0 l 229 0 z "},"Ẃ":{"ha":1126,"x_min":208,"x_max":1263,"o":"m 807 1064 l 639 1064 l 865 1281 l 1089 1281 l 807 1064 m 238 0 l 208 972 l 399 972 l 400 425 q 399 384 400 407 q 399 353 399 361 q 425 426 406 379 l 649 972 l 810 972 l 844 426 q 846 353 846 401 q 871 425 853 376 l 1067 972 l 1263 972 l 892 0 l 719 0 l 678 536 q 675 646 675 581 q 636 543 664 608 l 410 0 l 238 0 z "},"ẃ":{"ha":988,"x_min":158,"x_max":1079,"o":"m 699 814 l 531 814 l 757 1031 l 981 1031 l 699 814 m 229 0 l 158 710 l 329 710 l 349 364 q 350 271 350 336 q 386 364 356 288 l 532 710 l 700 710 l 728 364 q 731 271 731 336 q 747 315 735 282 q 765 364 758 349 l 904 710 l 1079 710 l 776 0 l 617 0 l 582 354 q 578 460 578 392 q 538 354 554 392 l 388 0 l 229 0 z "},"Ẅ":{"ha":1126,"x_min":208,"x_max":1263,"o":"m 621 1071 q 560 1095 583 1071 q 536 1156 536 1119 q 571 1238 536 1203 q 647 1274 606 1274 q 711 1249 688 1274 q 735 1189 735 1225 q 700 1106 735 1140 q 621 1071 665 1071 m 875 1071 q 813 1095 836 1071 q 790 1156 790 1119 q 824 1239 790 1204 q 903 1274 858 1274 q 965 1249 942 1274 q 989 1189 989 1225 q 954 1106 989 1142 q 875 1071 919 1071 m 238 0 l 208 972 l 399 972 l 400 425 q 399 384 400 407 q 399 353 399 361 q 425 426 406 379 l 649 972 l 810 972 l 844 426 q 846 353 846 401 q 871 425 853 376 l 1067 972 l 1263 972 l 892 0 l 719 0 l 678 536 q 675 646 675 581 q 636 543 664 608 l 410 0 l 238 0 z "},"ẅ":{"ha":988,"x_min":158,"x_max":1079,"o":"m 513 821 q 451 845 475 821 q 428 906 428 869 q 463 988 428 953 q 539 1024 497 1024 q 603 999 579 1024 q 626 939 626 975 q 592 856 626 890 q 513 821 557 821 m 767 821 q 705 845 728 821 q 682 906 682 869 q 716 989 682 954 q 794 1024 750 1024 q 857 999 833 1024 q 881 939 881 975 q 846 856 881 892 q 767 821 811 821 m 229 0 l 158 710 l 329 710 l 349 364 q 350 271 350 336 q 386 364 356 288 l 532 710 l 700 710 l 728 364 q 731 271 731 336 q 747 315 735 282 q 765 364 758 349 l 904 710 l 1079 710 l 776 0 l 617 0 l 582 354 q 578 460 578 392 q 538 354 554 392 l 388 0 l 229 0 z "},"Ỳ":{"ha":914,"x_min":190,"x_max":1063,"o":"m 556 1064 l 350 1281 l 574 1281 l 725 1064 l 556 1064 m 361 0 l 431 392 l 190 972 l 388 972 l 549 575 l 849 972 l 1063 972 l 619 388 l 551 0 l 361 0 z "},"ỳ":{"ha":746,"x_min":131,"x_max":861,"o":"m 435 814 l 229 1031 l 453 1031 l 604 814 l 435 814 m 131 -269 l 285 14 l 151 710 l 329 710 l 406 300 q 415 235 414 261 q 446 300 424 258 l 668 710 l 861 710 l 326 -269 l 131 -269 z "},"–":{"ha":660,"x_min":124,"x_max":678,"o":"m 124 319 l 151 478 l 678 478 l 650 319 l 124 319 z "},"—":{"ha":767,"x_min":50,"x_max":858,"o":"m 50 319 l 78 478 l 858 478 l 831 319 l 50 319 z "},"―":{"ha":767,"x_min":50,"x_max":858,"o":"m 50 319 l 78 478 l 858 478 l 831 319 l 50 319 z "},"‘":{"ha":329,"x_min":169,"x_max":447,"o":"m 265 581 q 197 609 224 581 q 169 686 169 638 q 233 853 169 769 q 385 989 296 938 l 447 932 q 389 874 424 913 q 338 804 354 835 q 397 715 397 783 q 358 619 397 658 q 265 581 319 581 z "},"’":{"ha":329,"x_min":160,"x_max":438,"o":"m 222 581 l 160 638 q 218 696 183 657 q 269 765 253 735 q 210 854 210 786 q 249 950 210 911 q 342 989 288 989 q 410 960 383 989 q 438 883 438 932 q 374 716 438 800 q 222 581 311 632 z "},"‚":{"ha":329,"x_min":22,"x_max":300,"o":"m 85 -196 l 22 -139 q 81 -80 46 -119 q 132 -10 115 -40 q 72 79 72 11 q 110 175 72 138 q 196 213 147 213 q 272 184 243 213 q 300 107 300 156 q 237 -60 300 24 q 85 -196 174 -144 z "},"‛":{"ha":329,"x_min":194,"x_max":428,"o":"m 313 581 q 228 685 261 618 q 194 818 194 751 q 235 944 194 899 q 335 989 276 989 q 401 962 374 989 q 428 892 428 935 q 401 812 428 844 q 331 765 374 779 q 347 717 335 742 q 396 638 368 668 l 313 581 z "},"“":{"ha":649,"x_min":169,"x_max":765,"o":"m 265 581 q 197 609 224 581 q 169 686 169 638 q 233 853 169 769 q 385 989 296 938 l 447 932 q 389 874 424 913 q 338 804 354 835 q 397 715 397 783 q 358 619 397 658 q 265 581 319 581 m 582 581 q 514 609 540 581 q 488 686 488 638 q 551 853 488 769 q 703 989 615 938 l 765 932 q 706 874 740 913 q 657 804 672 835 q 715 715 715 782 q 674 619 715 657 q 582 581 633 581 z "},"”":{"ha":649,"x_min":160,"x_max":757,"o":"m 222 581 l 160 638 q 218 696 183 657 q 269 765 253 735 q 210 854 210 786 q 249 950 210 911 q 342 989 288 989 q 410 960 383 989 q 438 883 438 932 q 374 716 438 800 q 222 581 311 632 m 542 581 l 479 638 q 538 696 503 657 q 589 765 572 735 q 529 854 529 786 q 568 950 529 911 q 661 989 607 989 q 730 960 703 989 q 757 883 757 932 q 694 716 757 800 q 542 581 631 632 z "},"„":{"ha":649,"x_min":22,"x_max":618,"o":"m 85 -196 l 22 -139 q 81 -80 46 -119 q 132 -10 115 -40 q 72 79 72 11 q 110 175 72 138 q 196 213 147 213 q 272 184 243 213 q 300 107 300 156 q 237 -60 300 24 q 85 -196 174 -144 m 403 -196 l 340 -139 q 399 -80 364 -119 q 450 -10 433 -40 q 390 79 390 11 q 428 175 390 138 q 514 213 465 213 q 590 184 561 213 q 618 107 618 156 q 555 -60 618 24 q 403 -196 492 -144 z "},"†":{"ha":779,"x_min":186,"x_max":824,"o":"m 569 589 l 558 464 l 400 -196 l 310 -196 l 385 464 l 418 589 l 281 571 l 186 571 l 218 744 l 313 744 l 442 725 l 447 815 l 478 989 l 651 989 l 621 815 l 593 725 l 731 744 l 824 744 l 792 571 l 699 571 l 569 589 z "},"‡":{"ha":779,"x_min":93,"x_max":825,"o":"m 639 222 l 732 222 l 701 49 l 608 49 l 479 68 l 474 -22 l 443 -196 l 267 -196 l 297 -22 l 325 68 l 188 49 l 93 49 l 124 222 l 218 222 l 349 204 l 360 329 l 383 464 l 417 589 l 279 571 l 185 571 l 217 744 l 311 744 l 440 725 l 446 815 l 476 989 l 653 989 l 622 815 l 594 725 l 732 744 l 825 744 l 793 571 l 700 571 l 571 589 l 560 464 l 536 329 l 503 204 l 639 222 z "},"•":{"ha":561,"x_min":163,"x_max":571,"o":"m 332 285 q 210 334 258 285 q 163 456 163 383 q 233 620 163 551 q 400 689 304 689 q 523 638 475 689 q 571 517 571 588 q 499 353 571 421 q 332 285 428 285 z "},"…":{"ha":1396,"x_min":135,"x_max":1296,"o":"m 229 -17 q 161 11 188 -17 q 135 79 135 39 q 175 173 135 133 q 269 213 215 213 q 338 184 311 213 q 365 115 365 156 q 324 22 365 61 q 229 -17 283 -17 m 694 -17 q 626 11 653 -17 q 600 79 600 39 q 640 173 600 133 q 735 213 681 213 q 803 184 776 213 q 831 115 831 156 q 790 22 831 61 q 694 -17 749 -17 m 1160 -17 q 1092 11 1118 -17 q 1065 79 1065 39 q 1106 173 1065 133 q 1200 213 1146 213 q 1269 184 1242 213 q 1296 115 1296 156 q 1255 22 1296 61 q 1160 -17 1214 -17 z "},"‰":{"ha":1653,"x_min":156,"x_max":1640,"o":"m 328 -17 l 156 -17 l 969 989 l 1142 989 l 328 -17 m 371 481 q 229 541 275 481 q 183 685 183 601 q 211 821 183 754 q 305 938 239 888 q 461 989 371 989 q 603 928 557 989 q 649 785 649 868 q 622 649 649 715 q 528 531 594 582 q 371 481 463 481 m 397 631 q 470 669 444 631 q 496 763 496 708 q 481 817 496 796 q 435 839 465 839 q 362 800 388 839 q 336 707 336 761 q 351 652 336 674 q 397 631 367 631 m 836 -17 q 694 43 740 -17 q 649 186 649 103 q 676 323 649 256 q 769 441 704 390 q 925 492 835 492 q 1067 431 1021 492 q 1113 288 1113 371 q 1103 208 1113 249 q 1072 126 1093 167 q 1019 53 1050 85 q 940 3 988 22 q 836 -17 893 -17 m 1364 -17 q 1222 43 1268 -17 q 1176 186 1176 103 q 1204 323 1176 256 q 1297 441 1232 390 q 1453 492 1363 492 q 1594 431 1549 492 q 1640 288 1640 371 q 1631 208 1640 249 q 1599 126 1621 167 q 1547 53 1578 85 q 1468 3 1515 22 q 1364 -17 1421 -17 m 863 133 q 935 172 908 133 q 961 264 961 211 q 899 342 961 342 q 826 303 851 342 q 800 210 800 265 q 863 133 800 133 m 1390 133 q 1463 172 1436 133 q 1489 264 1489 211 q 1426 342 1489 342 q 1354 303 1381 342 q 1328 210 1328 265 q 1390 133 1328 133 z "},"′":{"ha":331,"x_min":144,"x_max":463,"o":"m 253 1014 l 463 1014 l 296 551 l 144 551 l 253 1014 z "},"″":{"ha":597,"x_min":144,"x_max":729,"o":"m 144 551 l 253 1014 l 463 1014 l 296 551 l 144 551 m 411 551 l 519 1014 l 729 1014 l 563 551 l 411 551 z "},"‹":{"ha":450,"x_min":103,"x_max":561,"o":"m 243 0 l 103 356 l 368 710 l 561 710 l 290 351 l 426 0 l 243 0 z "},"›":{"ha":450,"x_min":18,"x_max":472,"o":"m 18 0 l 289 361 l 151 710 l 332 710 l 472 356 l 207 0 l 18 0 z "},"⁄":{"ha":483,"x_min":-165,"x_max":822,"o":"m -165 -17 l 650 989 l 822 989 l 7 -17 l -165 -17 z "},"ⁿ":{"ha":643,"x_min":150,"x_max":707,"o":"m 492 393 l 550 715 q 556 774 556 746 q 483 851 556 851 q 403 819 438 851 q 358 735 368 788 l 297 393 l 150 393 l 254 978 l 401 978 l 392 919 q 542 992 447 992 q 658 944 610 992 q 707 808 707 897 q 703 756 707 775 l 639 393 l 492 393 z "},"₤":{"ha":800,"x_min":106,"x_max":910,"o":"m 106 0 l 136 172 q 240 272 196 199 l 149 272 l 172 411 l 282 411 l 282 432 q 279 503 282 461 l 189 503 l 213 642 l 258 642 l 257 664 q 349 894 257 799 q 629 989 442 989 q 910 886 789 989 l 815 719 q 601 815 719 815 q 478 776 518 815 q 438 675 438 736 q 442 642 438 667 l 704 642 l 681 503 l 467 503 q 469 460 469 467 q 467 411 469 439 l 664 411 l 640 272 l 424 272 q 356 176 399 221 l 790 176 l 760 0 l 106 0 z "},"€":{"ha":851,"x_min":104,"x_max":935,"o":"m 528 -17 q 231 300 254 -17 l 104 301 l 185 435 l 233 435 q 246 518 238 475 l 143 518 l 224 653 l 283 653 q 439 894 338 800 q 696 989 540 989 q 935 896 829 989 l 844 736 q 676 815 769 815 q 474 653 550 815 l 799 654 l 721 518 l 428 518 q 413 435 417 472 l 675 435 l 599 299 l 411 300 q 536 157 426 157 q 704 256 625 157 l 828 167 q 528 -17 700 -17 z "},"℅":{"ha":1431,"x_min":179,"x_max":1422,"o":"m 389 378 q 235 441 290 378 q 179 614 179 504 q 268 886 179 783 q 497 989 357 989 q 700 818 678 989 l 556 771 q 472 847 543 847 q 366 788 407 847 q 325 639 325 729 q 348 552 325 585 q 411 519 371 519 q 528 606 492 519 l 656 563 q 389 378 574 378 m 307 -17 l 1122 989 l 1275 989 l 460 -17 l 307 -17 m 1104 -17 q 949 47 1006 -17 q 893 218 893 110 q 982 490 893 388 q 1211 593 1071 593 q 1366 529 1310 593 q 1422 357 1422 465 q 1334 85 1422 188 q 1104 -17 1246 -17 m 1129 125 q 1235 182 1194 125 q 1276 332 1276 239 q 1253 419 1276 386 q 1186 451 1229 451 q 1078 394 1119 451 q 1038 244 1038 336 q 1061 157 1038 189 q 1129 125 1085 125 z "},"ℓ":{"ha":664,"x_min":144,"x_max":746,"o":"m 346 -17 q 199 113 199 -17 q 203 160 199 135 l 224 278 q 172 256 178 257 l 144 400 q 254 453 171 411 l 299 699 q 392 922 326 856 q 564 989 458 989 q 697 944 647 989 q 746 818 746 899 q 723 693 746 753 q 670 592 700 633 q 590 506 640 550 q 504 437 539 461 q 415 379 469 413 l 385 207 q 382 179 382 185 q 417 142 382 142 q 535 207 465 142 l 565 78 q 346 -17 467 -17 m 539 850 q 502 822 515 850 q 474 707 489 794 l 449 564 q 569 796 569 664 q 539 850 569 850 z "},"№":{"ha":1585,"x_min":119,"x_max":1613,"o":"m 1296 379 q 1141 442 1197 379 q 1085 614 1085 506 q 1174 886 1085 783 q 1404 989 1263 989 q 1558 925 1503 989 q 1613 753 1613 861 q 1524 482 1613 585 q 1296 379 1436 379 m 119 0 l 290 972 l 460 972 l 722 413 q 749 339 742 371 q 757 413 750 368 l 856 972 l 1035 972 l 864 0 l 704 0 l 433 567 q 407 640 422 590 q 399 567 407 608 l 299 0 l 119 0 m 1321 522 q 1428 578 1388 522 q 1469 726 1469 635 q 1445 815 1469 782 q 1379 847 1421 847 q 1272 790 1313 847 q 1231 639 1231 732 q 1254 553 1231 585 q 1321 522 1278 522 m 997 144 l 1024 292 l 1536 292 l 1510 144 l 997 144 z "},"™":{"ha":1126,"x_min":93,"x_max":1140,"o":"m 240 386 l 240 849 l 93 849 l 93 972 l 521 972 l 521 849 l 375 849 l 375 386 l 240 386 m 1140 386 l 1006 386 l 1006 688 l 993 661 l 849 381 l 704 661 l 690 688 l 690 386 l 556 386 l 556 972 l 685 972 l 832 685 l 849 649 l 864 685 l 1011 972 l 1140 972 l 1140 386 z "},"Ω":{"ha":957,"x_min":75,"x_max":989,"o":"m 532 0 l 558 149 q 800 568 800 343 q 756 743 800 678 q 619 808 713 808 q 496 777 550 808 q 411 694 442 746 q 365 587 381 643 q 350 472 350 531 q 457 149 350 297 l 431 0 l 75 0 l 107 181 l 258 181 q 191 320 219 232 q 163 504 163 408 q 191 665 163 583 q 272 822 219 747 q 415 942 325 896 q 615 989 504 989 q 793 954 717 989 q 910 863 869 919 q 970 747 951 807 q 989 625 989 686 q 929 370 989 483 q 769 181 869 257 l 918 181 l 886 0 l 532 0 z "},"℮":{"ha":1040,"x_min":133,"x_max":1078,"o":"m 613 -17 q 272 122 411 -17 q 133 486 133 261 q 174 708 133 610 q 282 868 214 807 q 436 961 350 929 q 617 993 522 993 q 787 960 707 993 q 931 866 867 928 q 1033 706 994 804 q 1078 486 1072 608 l 351 486 l 351 182 q 456 99 386 132 q 613 67 525 67 q 949 260 822 67 l 1019 217 q 848 42 943 101 q 613 -17 753 -17 m 867 801 q 758 879 826 849 q 613 910 689 910 q 351 814 454 910 l 351 567 l 867 568 l 867 801 z "},"⅓":{"ha":1047,"x_min":21,"x_max":1043,"o":"m 21 -17 l 836 989 l 1008 989 l 193 -17 l 21 -17 m 151 393 l 228 824 l 160 824 l 179 939 q 285 979 253 939 l 400 979 l 297 393 l 151 393 m 739 197 q 804 126 744 126 q 853 145 835 126 q 872 193 872 164 q 810 238 872 238 l 758 238 l 781 365 l 831 365 q 878 381 863 365 q 894 421 894 397 q 854 460 894 460 q 783 410 813 460 l 669 457 q 765 559 707 522 q 892 596 824 596 q 1003 556 964 596 q 1043 456 1043 515 q 1015 364 1043 404 q 949 304 988 324 q 1017 196 1017 275 q 951 49 1017 107 q 779 -10 886 -10 q 656 35 701 -10 q 599 161 610 81 l 739 197 z "},"⅔":{"ha":1272,"x_min":101,"x_max":1268,"o":"m 178 815 q 278 942 214 894 q 422 989 343 989 q 544 947 499 989 q 589 839 589 906 q 576 757 589 792 q 533 696 564 722 q 478 655 503 669 q 404 617 453 640 q 300 535 326 576 l 536 535 l 511 393 l 101 393 q 357 736 143 631 q 395 757 382 749 q 421 780 408 765 q 433 811 433 794 q 390 850 433 850 q 303 782 336 850 l 178 815 m 246 -17 l 1061 989 l 1233 989 l 418 -17 l 246 -17 m 964 197 q 1029 126 969 126 q 1078 145 1060 126 q 1097 193 1097 164 q 1035 238 1097 238 l 983 238 l 1006 365 l 1056 365 q 1103 381 1088 365 q 1119 421 1119 397 q 1079 460 1119 460 q 1008 410 1038 460 l 894 457 q 990 559 932 522 q 1117 596 1049 596 q 1228 556 1189 596 q 1268 456 1268 515 q 1240 364 1268 404 q 1174 304 1213 324 q 1242 196 1242 275 q 1176 49 1242 107 q 1004 -10 1111 -10 q 881 35 926 -10 q 824 161 835 81 l 964 197 z "},"⅛":{"ha":1056,"x_min":21,"x_max":1049,"o":"m 21 -17 l 836 989 l 1008 989 l 193 -17 l 21 -17 m 151 393 l 228 824 l 160 824 l 179 939 q 285 979 253 939 l 400 979 l 297 393 l 151 393 m 779 -11 q 649 32 697 -11 q 600 144 600 75 q 635 251 600 204 q 721 319 671 299 q 669 417 669 353 q 730 545 669 494 q 886 596 790 596 q 1006 559 963 596 q 1049 463 1049 522 q 1022 378 1049 415 q 956 319 996 340 q 1004 270 985 304 q 1024 197 1024 236 q 954 48 1024 107 q 779 -11 885 -11 m 849 383 q 896 399 878 383 q 914 438 914 415 q 901 468 914 456 q 865 481 888 481 q 819 463 839 481 q 800 424 800 446 q 814 395 800 407 q 849 383 828 383 m 799 103 q 868 126 840 103 q 896 188 896 150 q 877 235 896 217 q 825 254 858 254 q 756 228 785 254 q 728 164 728 203 q 747 119 728 136 q 799 103 767 103 z "},"⅜":{"ha":1218,"x_min":114,"x_max":1211,"o":"m 294 383 q 171 428 217 383 q 114 554 125 474 l 254 590 q 319 519 260 519 q 369 538 350 519 q 388 586 388 557 q 325 631 388 631 l 274 631 l 296 758 l 346 758 q 394 774 378 758 q 410 814 410 790 q 369 853 410 853 q 299 803 328 853 l 185 850 q 281 952 222 915 q 407 989 339 989 q 519 949 479 989 q 558 849 558 908 q 531 757 558 797 q 464 697 503 717 q 532 589 532 668 q 467 442 532 500 q 294 383 401 383 m 183 -17 l 999 989 l 1171 989 l 356 -17 l 183 -17 m 942 -11 q 811 32 860 -11 q 763 144 763 75 q 798 251 763 204 q 883 319 833 299 q 832 417 832 353 q 892 545 832 494 q 1049 596 953 596 q 1168 559 1125 596 q 1211 463 1211 522 q 1185 378 1211 415 q 1118 319 1158 340 q 1167 270 1147 304 q 1186 197 1186 236 q 1117 48 1186 107 q 942 -11 1047 -11 m 1011 383 q 1058 399 1040 383 q 1076 438 1076 415 q 1063 468 1076 456 q 1028 481 1050 481 q 982 463 1001 481 q 963 424 963 446 q 976 395 963 407 q 1011 383 990 383 m 961 103 q 1031 126 1003 103 q 1058 188 1058 150 q 1040 235 1058 217 q 988 254 1021 254 q 919 228 947 254 q 890 164 890 203 q 910 119 890 136 q 961 103 929 103 z "},"⅝":{"ha":1214,"x_min":107,"x_max":1207,"o":"m 290 383 q 107 447 182 383 l 201 558 q 307 517 250 517 q 376 540 349 517 q 404 601 404 563 q 353 654 404 654 q 269 601 307 654 l 161 668 l 233 989 l 586 989 l 563 856 l 333 856 l 313 768 q 396 788 351 788 q 512 741 472 788 q 551 626 551 694 q 476 449 551 515 q 290 383 401 383 m 179 -17 l 994 989 l 1167 989 l 351 -17 l 179 -17 m 938 -11 q 807 32 856 -11 q 758 144 758 75 q 794 251 758 204 q 879 319 829 299 q 828 417 828 353 q 888 545 828 494 q 1044 596 949 596 q 1164 559 1121 596 q 1207 463 1207 522 q 1181 378 1207 415 q 1114 319 1154 340 q 1163 270 1143 304 q 1182 197 1182 236 q 1113 48 1182 107 q 938 -11 1043 -11 m 1007 383 q 1054 399 1036 383 q 1072 438 1072 415 q 1059 468 1072 456 q 1024 481 1046 481 q 978 463 997 481 q 958 424 958 446 q 972 395 958 407 q 1007 383 986 383 m 957 103 q 1026 126 999 103 q 1054 188 1054 150 q 1035 235 1054 217 q 983 254 1017 254 q 915 228 943 254 q 886 164 886 203 q 906 119 886 136 q 957 103 925 103 z "},"⅞":{"ha":1090,"x_min":56,"x_max":1083,"o":"m 56 -17 l 871 989 l 1043 989 l 228 -17 l 56 -17 m 186 393 q 397 847 232 647 l 157 847 l 182 989 l 585 989 l 564 871 q 413 645 471 779 q 332 393 354 511 l 186 393 m 814 -11 q 683 32 732 -11 q 635 144 635 75 q 670 251 635 204 q 756 319 706 299 q 704 417 704 353 q 765 545 704 494 q 921 596 825 596 q 1040 559 997 596 q 1083 463 1083 522 q 1057 378 1083 415 q 990 319 1031 340 q 1039 270 1019 304 q 1058 197 1058 236 q 989 48 1058 107 q 814 -11 919 -11 m 883 383 q 931 399 913 383 q 949 438 949 415 q 935 468 949 456 q 900 481 922 481 q 854 463 874 481 q 835 424 835 446 q 849 395 835 407 q 883 383 863 383 m 833 103 q 903 126 875 103 q 931 188 931 150 q 912 235 931 217 q 860 254 893 254 q 791 228 819 254 q 763 164 763 203 q 782 119 763 136 q 833 103 801 103 z "},"←":{"ha":1056,"x_min":35,"x_max":1007,"o":"m 479 189 q 456 200 474 189 l 50 476 q 35 500 35 486 q 50 524 35 514 l 456 801 q 479 813 474 813 q 496 797 496 813 q 488 768 496 790 l 422 581 l 1007 596 l 1007 404 l 422 419 l 488 233 q 496 204 496 211 q 479 189 496 189 z "},"↑":{"ha":694,"x_min":35,"x_max":660,"o":"m 251 0 l 267 585 l 79 519 q 50 511 57 511 q 35 528 35 511 q 46 551 35 533 l 324 957 q 347 972 333 972 q 371 957 361 972 l 649 551 q 660 528 660 533 q 644 511 660 511 q 615 519 638 511 l 428 585 l 443 0 l 251 0 z "},"→":{"ha":1056,"x_min":49,"x_max":1021,"o":"m 576 189 q 560 204 560 189 q 568 233 560 211 l 633 419 l 49 404 l 49 596 l 633 581 l 568 768 q 560 797 560 790 q 576 813 560 813 q 600 801 582 813 l 1006 524 q 1021 500 1021 514 q 1006 476 1021 486 l 600 200 q 576 189 582 189 z "},"↓":{"ha":694,"x_min":35,"x_max":660,"o":"m 371 15 q 347 0 361 0 q 324 15 333 0 l 46 421 l 35 444 q 50 461 35 461 q 79 453 57 461 l 267 388 l 251 972 l 443 972 l 428 388 l 615 453 q 644 461 638 461 q 660 444 660 461 q 649 421 660 439 l 371 15 z "},"↔":{"ha":1424,"x_min":35,"x_max":1389,"o":"m 944 189 q 928 204 928 189 q 936 233 928 211 l 1000 417 l 424 417 l 488 233 q 496 204 496 211 q 479 189 496 189 q 456 200 474 189 l 50 476 q 35 500 35 486 q 50 524 35 514 l 456 801 q 479 813 474 813 q 496 797 496 813 q 488 768 496 790 l 424 583 l 1000 583 l 936 768 q 928 797 928 790 q 944 813 928 813 q 968 801 950 813 l 1374 524 q 1389 500 1389 514 q 1374 476 1389 486 l 968 200 q 944 189 950 189 z "},"↕":{"ha":694,"x_min":35,"x_max":660,"o":"m 369 -221 q 346 -236 360 -236 q 322 -221 332 -236 l 46 185 q 35 208 35 203 q 50 225 35 225 q 79 217 57 225 l 263 153 l 263 675 l 79 611 q 50 603 57 603 q 35 619 35 603 q 46 643 35 625 l 322 1049 q 346 1064 332 1064 q 369 1049 360 1064 l 649 643 q 660 619 660 625 q 644 603 660 603 q 615 611 638 603 l 429 675 l 429 153 l 615 217 q 644 225 638 225 q 660 208 660 225 q 649 185 660 203 l 369 -221 z "},"↖":{"ha":846,"x_min":56,"x_max":818,"o":"m 683 74 l 281 499 l 194 319 q 169 290 181 290 q 149 319 154 290 l 61 779 q 56 814 56 810 q 78 836 56 836 q 106 832 85 836 l 574 744 q 604 724 604 738 q 575 699 604 713 l 394 613 l 818 210 l 683 74 z "},"↗":{"ha":846,"x_min":28,"x_max":790,"o":"m 163 74 l 28 210 l 451 613 l 271 699 q 242 724 242 713 q 272 744 242 738 l 740 832 q 768 836 761 836 q 790 814 790 836 q 785 779 790 810 l 697 319 q 676 290 692 290 q 672 291 674 290 q 667 293 669 292 q 664 296 665 294 q 660 301 663 297 q 658 306 658 304 q 655 313 657 308 q 651 319 653 317 l 565 499 l 163 74 z "},"↘":{"ha":846,"x_min":28,"x_max":790,"o":"m 768 74 q 740 78 761 74 l 272 165 q 242 186 242 172 q 271 211 242 197 l 451 297 l 28 700 l 163 836 l 565 411 l 651 590 q 655 597 653 593 q 658 603 657 601 q 660 609 658 606 q 664 614 663 613 q 667 617 665 615 q 672 619 669 618 q 676 619 674 619 q 697 590 692 619 l 785 131 q 790 96 790 100 q 768 74 790 74 z "},"↙":{"ha":846,"x_min":56,"x_max":818,"o":"m 78 74 q 56 96 56 74 q 61 131 56 100 l 149 590 q 169 619 154 619 q 180 615 175 619 q 187 607 185 611 q 194 590 189 603 l 281 411 l 683 836 l 818 700 l 394 297 l 575 211 q 604 186 604 197 q 574 165 604 172 l 106 78 q 78 74 85 74 z "},"↳":{"ha":1104,"x_min":106,"x_max":1056,"o":"m 1040 321 q 1056 297 1056 311 q 1040 274 1056 283 l 635 -3 q 611 -14 617 -14 q 594 1 594 -14 q 603 31 594 8 l 667 214 l 106 214 l 106 972 l 279 972 l 279 381 l 667 381 l 603 565 q 594 594 594 588 q 611 610 594 610 q 635 599 617 610 l 1040 321 z "},"↴":{"ha":1104,"x_min":106,"x_max":1056,"o":"m 1040 447 q 1056 431 1056 447 q 1044 407 1056 425 l 768 1 q 744 -14 758 -14 q 721 1 731 -14 l 443 407 q 432 431 432 425 q 447 447 432 447 q 476 439 454 447 l 658 376 l 658 806 l 106 806 l 106 972 l 831 972 l 831 376 l 1011 439 q 1040 447 1033 447 z "},"↵":{"ha":1104,"x_min":49,"x_max":999,"o":"m 825 972 l 999 972 l 999 214 l 438 214 l 501 31 q 510 1 510 8 q 493 -14 510 -14 q 469 -3 488 -14 l 64 274 q 49 297 49 283 q 64 321 49 311 l 469 599 q 493 610 488 610 q 510 594 510 610 q 501 565 510 588 l 438 381 l 825 381 l 825 972 z "},"↶":{"ha":1163,"x_min":49,"x_max":1058,"o":"m 667 989 q 944 883 829 989 q 1058 586 1058 778 l 1058 0 l 886 0 l 886 586 q 824 762 886 700 q 667 824 763 824 q 508 762 569 824 q 447 586 447 700 l 447 550 l 628 613 q 657 621 650 621 q 672 604 672 621 q 661 581 672 599 l 385 175 q 361 160 375 160 q 338 175 347 160 l 60 581 q 49 604 49 599 q 64 621 49 621 q 93 613 71 621 l 275 550 l 275 586 q 333 810 275 717 q 477 947 390 904 q 667 989 564 989 z "},"↷":{"ha":1163,"x_min":104,"x_max":1114,"o":"m 1099 621 q 1114 604 1114 621 q 1103 581 1114 599 l 825 175 q 801 160 815 160 q 778 175 788 160 l 501 581 q 490 604 490 599 q 506 621 490 621 q 535 613 513 621 l 715 550 l 715 586 q 654 762 715 700 q 496 824 593 824 q 338 762 400 824 q 276 586 276 700 l 276 0 l 104 0 l 104 586 q 219 883 104 778 q 496 989 333 989 q 685 947 599 989 q 830 810 772 904 q 888 586 888 717 l 888 550 l 1069 613 q 1099 621 1092 621 z "},"↸":{"ha":846,"x_min":56,"x_max":818,"o":"m 56 806 l 56 972 l 818 972 l 818 806 l 56 806 m 683 -65 l 281 360 l 194 181 q 169 151 181 151 q 149 181 154 151 l 61 640 q 56 675 56 671 q 78 697 56 697 q 106 693 85 697 l 574 606 q 604 585 604 599 q 575 560 604 574 l 394 474 l 818 71 l 683 -65 z "},"↹":{"ha":1433,"x_min":106,"x_max":1328,"o":"m 813 432 q 789 443 807 432 l 383 719 q 368 743 368 729 q 383 767 368 757 l 789 1044 q 813 1056 807 1056 q 829 1040 829 1056 q 821 1011 829 1033 l 756 824 l 1328 839 l 1328 647 l 756 663 l 821 476 q 829 447 829 454 q 813 432 829 432 m 106 443 l 106 1042 l 286 1042 l 286 443 l 106 443 m 621 -361 q 604 -346 604 -361 q 613 -317 604 -339 l 678 -131 l 106 -146 l 106 46 l 678 31 l 613 218 q 604 247 604 240 q 621 263 604 263 q 644 251 626 263 l 1050 -26 q 1065 -50 1065 -36 q 1050 -74 1065 -64 l 644 -350 q 621 -361 626 -361 m 1147 -347 l 1147 249 l 1328 249 l 1328 -347 l 1147 -347 z "},"↺":{"ha":1175,"x_min":139,"x_max":1133,"o":"m 1103 915 q 1133 894 1133 908 q 1104 869 1133 883 l 924 783 q 1036 486 1036 656 q 904 169 1036 300 q 588 38 772 38 q 271 169 403 38 q 139 486 139 300 q 271 803 139 674 l 383 690 q 299 486 299 606 q 384 282 299 367 q 588 197 469 197 q 791 282 706 197 q 876 486 876 367 q 810 669 876 589 l 724 490 q 720 483 722 488 q 717 477 718 479 q 715 472 717 475 q 711 467 713 468 q 708 464 710 465 q 703 462 706 463 q 699 461 701 461 q 678 490 683 461 l 590 950 q 585 985 585 981 q 607 1007 585 1007 q 635 1003 614 1007 l 1103 915 z "},"⇚":{"ha":1056,"x_min":35,"x_max":1007,"o":"m 1007 590 l 426 590 l 408 542 l 1007 542 l 1007 458 l 408 458 l 426 410 l 1007 410 l 1007 326 l 456 326 l 488 233 q 496 204 496 211 q 479 189 496 189 q 456 200 474 189 l 50 476 q 35 500 35 486 q 50 524 35 514 l 456 801 q 479 813 474 813 q 496 797 496 813 q 488 768 496 790 l 454 674 l 1007 674 l 1007 590 z "},"⇛":{"ha":1056,"x_min":49,"x_max":1021,"o":"m 1006 524 q 1021 500 1021 514 q 1006 476 1021 486 l 600 200 q 576 189 582 189 q 560 204 560 189 q 568 233 560 211 l 600 326 l 49 326 l 49 410 l 629 410 l 647 458 l 49 458 l 49 542 l 647 542 l 629 590 l 49 590 l 49 674 l 601 674 l 568 768 q 560 797 560 790 q 576 813 560 813 q 600 801 582 813 l 1006 524 z "},"⇜":{"ha":1056,"x_min":35,"x_max":1007,"o":"m 915 588 l 1007 588 l 1007 415 l 881 415 l 849 515 l 794 349 l 706 349 l 651 517 l 597 349 l 508 349 l 488 415 l 396 415 l 460 233 q 468 204 468 211 q 453 189 468 189 q 429 200 444 189 l 50 478 q 35 501 35 489 q 50 524 35 513 l 429 801 q 453 813 444 813 q 468 797 468 813 q 460 768 468 790 l 396 588 l 521 588 l 553 486 l 607 654 l 696 654 l 750 486 l 804 654 l 893 654 l 915 588 z "},"⇝":{"ha":1056,"x_min":49,"x_max":1021,"o":"m 1006 524 q 1021 501 1021 513 q 1006 478 1021 489 l 626 200 q 603 189 611 189 q 588 204 588 189 q 596 233 588 211 l 660 415 l 568 415 l 547 349 l 458 349 l 404 517 l 350 349 l 261 349 l 207 515 l 175 415 l 49 415 l 49 588 l 140 588 l 163 654 l 251 654 l 306 486 l 360 654 l 449 654 l 503 486 l 535 588 l 660 588 l 596 768 q 588 797 588 790 q 603 813 588 813 q 626 801 611 813 l 1006 524 z "},"⇞":{"ha":694,"x_min":35,"x_max":660,"o":"m 649 551 q 660 528 660 533 q 644 511 660 511 q 615 519 638 511 l 432 583 l 432 439 l 643 439 l 643 322 l 432 322 l 432 233 l 643 233 l 643 117 l 432 117 l 432 0 l 263 0 l 263 117 l 49 117 l 49 233 l 263 233 l 263 322 l 49 322 l 49 439 l 263 439 l 263 583 l 79 519 q 50 511 57 511 q 35 528 35 511 q 46 551 35 533 l 324 957 q 347 972 333 972 q 371 957 361 972 l 649 551 z "},"⇟":{"ha":694,"x_min":35,"x_max":660,"o":"m 644 461 q 660 444 660 461 q 649 421 660 439 l 371 15 q 347 0 361 0 q 324 15 333 0 l 46 421 q 35 444 35 439 q 50 461 35 461 q 79 453 57 461 l 263 389 l 263 533 l 49 533 l 49 650 l 263 650 l 263 739 l 49 739 l 49 856 l 263 856 l 263 972 l 432 972 l 432 856 l 643 856 l 643 739 l 432 739 l 432 650 l 643 650 l 643 533 l 432 533 l 432 389 l 615 453 q 644 461 638 461 z "},"⇠":{"ha":1056,"x_min":35,"x_max":1007,"o":"m 488 768 l 424 583 l 526 583 l 526 417 l 424 417 l 488 232 q 496 203 496 210 q 479 188 496 188 q 456 199 474 188 l 50 476 q 35 500 35 486 q 50 524 35 514 l 456 801 q 479 813 474 813 q 496 797 496 813 q 488 768 496 790 m 629 417 l 629 583 l 767 583 l 767 417 l 629 417 m 869 583 l 1007 583 l 1007 417 l 869 417 l 869 583 z "},"⇡":{"ha":694,"x_min":35,"x_max":660,"o":"m 649 551 q 660 528 660 533 q 644 511 660 511 q 615 519 638 511 l 433 582 l 433 478 l 261 478 l 261 582 l 79 519 q 50 511 57 511 q 35 528 35 511 q 46 551 35 533 l 324 957 q 347 972 333 972 q 371 957 361 972 l 649 551 m 261 239 l 261 375 l 433 375 l 433 239 l 261 239 m 261 0 l 261 136 l 433 136 l 433 0 l 261 0 z "},"⇢":{"ha":1056,"x_min":49,"x_max":1021,"o":"m 1006 524 q 1021 500 1021 514 q 1006 476 1021 486 l 600 199 q 576 188 582 188 q 560 203 560 188 q 568 232 560 210 l 632 417 l 529 417 l 529 583 l 632 583 l 568 768 q 560 797 560 790 q 576 813 560 813 q 600 801 582 813 l 1006 524 m 49 417 l 49 583 l 186 583 l 186 417 l 49 417 m 289 417 l 289 583 l 426 583 l 426 417 l 289 417 z "},"⇣":{"ha":694,"x_min":35,"x_max":660,"o":"m 433 972 l 433 836 l 261 836 l 261 972 l 433 972 m 433 733 l 433 597 l 261 597 l 261 733 l 433 733 m 644 461 q 660 444 660 461 q 649 421 660 439 l 371 15 q 347 0 361 0 q 324 15 333 0 l 46 421 q 35 444 35 439 q 50 461 35 461 q 79 453 57 461 l 261 390 l 261 494 l 433 494 l 433 390 l 615 453 q 644 461 638 461 z "},"⇤":{"ha":1319,"x_min":106,"x_max":1271,"o":"m 106 144 l 106 854 l 286 854 l 286 144 l 106 144 m 813 189 q 789 200 807 189 l 383 476 q 368 500 368 486 q 383 524 368 514 l 789 801 q 813 813 807 813 q 829 797 829 813 q 821 768 829 790 l 756 581 l 1271 596 l 1271 404 l 756 419 l 821 233 q 829 204 829 211 q 813 189 829 189 z "},"⇥":{"ha":1319,"x_min":49,"x_max":1214,"o":"m 1033 144 l 1033 854 l 1214 854 l 1214 144 l 1033 144 m 507 189 q 490 204 490 189 q 499 233 490 211 l 564 419 l 49 404 l 49 596 l 564 581 l 499 768 q 490 797 490 790 q 507 813 490 813 q 531 801 513 813 l 936 524 q 951 500 951 514 q 936 476 951 486 l 531 200 q 507 189 513 189 z "},"∂":{"ha":794,"x_min":86,"x_max":818,"o":"m 364 -17 q 159 62 232 -17 q 86 256 86 140 q 144 457 86 371 q 283 581 201 543 q 453 619 364 619 q 636 544 586 619 l 638 567 q 389 824 638 796 l 458 989 q 732 850 646 954 q 818 544 818 746 q 788 349 818 446 q 703 169 758 251 q 560 35 649 86 q 364 -17 471 -17 m 383 157 q 522 208 464 157 q 579 329 579 260 q 544 415 579 385 q 447 446 508 446 q 317 395 371 446 q 264 275 264 344 q 296 190 264 222 q 383 157 328 157 z "},"∆":{"ha":854,"x_min":13,"x_max":843,"o":"m 13 0 l 515 972 l 683 972 l 843 0 l 13 0 m 294 176 l 639 176 l 574 625 q 563 713 568 661 q 521 625 554 692 l 294 176 z "},"∏":{"ha":983,"x_min":83,"x_max":1035,"o":"m 653 -194 l 828 799 l 435 799 l 260 -194 l 83 -194 l 289 972 l 1035 972 l 829 -194 l 653 -194 z "},"∑":{"ha":828,"x_min":25,"x_max":929,"o":"m 25 -193 l 56 -24 l 432 404 l 221 804 l 251 974 l 929 974 l 899 800 l 432 800 l 649 397 l 290 -19 l 779 -19 l 747 -193 l 25 -193 z "},"−":{"ha":840,"x_min":201,"x_max":797,"o":"m 201 564 l 797 564 l 797 389 l 201 389 l 201 564 z "},"∕":{"ha":483,"x_min":-162,"x_max":819,"o":"m -162 -17 l 653 989 l 819 989 l 4 -17 l -162 -17 z "},"∙":{"ha":321,"x_min":133,"x_max":358,"o":"m 231 371 q 160 399 188 371 q 133 467 133 426 q 169 562 133 524 q 257 600 206 600 q 331 572 303 600 q 358 504 358 544 q 322 408 358 446 q 231 371 286 371 z "},"√":{"ha":771,"x_min":146,"x_max":901,"o":"m 901 972 l 446 0 l 311 0 l 146 490 l 329 490 l 399 269 l 717 972 l 901 972 z "},"∞":{"ha":1350,"x_min":125,"x_max":1393,"o":"m 404 153 q 206 238 288 153 q 125 446 125 324 q 236 706 125 608 q 500 803 347 803 q 678 755 606 803 q 788 639 751 707 q 925 757 842 711 q 1092 803 1008 803 q 1305 724 1217 803 q 1393 510 1393 646 q 1283 250 1393 347 q 1017 153 1172 153 q 842 199 915 153 q 731 317 769 244 q 404 153 590 153 m 439 326 q 679 478 563 326 q 483 629 617 629 q 355 583 408 629 q 301 461 301 538 q 340 364 301 401 q 439 326 378 326 m 1033 326 q 1163 372 1108 326 q 1217 490 1217 418 q 1178 592 1217 554 q 1078 629 1139 629 q 839 478 957 629 q 1033 326 904 326 z "},"∫":{"ha":574,"x_min":25,"x_max":688,"o":"m 171 -194 q 25 -160 89 -194 l 50 -12 q 146 -36 108 -36 q 206 13 197 -36 l 347 818 q 546 989 378 989 q 688 954 626 989 l 661 807 q 568 831 606 831 q 511 782 519 831 l 369 -24 q 171 -194 339 -194 z "},"≈":{"ha":840,"x_min":172,"x_max":829,"o":"m 172 510 q 222 690 172 618 q 369 761 271 761 q 513 724 435 761 q 622 686 590 686 q 686 761 679 686 l 829 761 q 781 581 829 651 q 632 510 733 510 q 487 547 567 510 q 379 585 407 585 q 315 510 325 585 l 172 510 m 172 193 q 222 373 172 301 q 369 444 271 444 q 513 407 435 444 q 622 369 590 369 q 686 444 679 369 l 829 444 q 781 264 829 335 q 632 193 733 193 q 487 231 567 193 q 379 268 407 268 q 315 193 325 268 l 172 193 z "},"≠":{"ha":840,"x_min":193,"x_max":817,"o":"m 499 235 l 454 132 l 258 132 l 303 235 l 193 235 l 193 410 l 378 410 l 436 543 l 193 543 l 193 718 l 513 718 l 564 838 l 760 838 l 708 718 l 817 718 l 817 543 l 632 543 l 575 410 l 817 410 l 817 235 l 499 235 z "},"≤":{"ha":840,"x_min":194,"x_max":815,"o":"m 815 217 l 194 456 l 194 599 l 815 836 l 815 661 l 436 526 l 815 392 l 815 217 m 194 0 l 194 175 l 814 175 l 814 0 l 194 0 z "},"≥":{"ha":840,"x_min":189,"x_max":810,"o":"m 189 217 l 189 392 l 568 526 l 189 661 l 189 836 l 810 599 l 810 456 l 189 217 m 189 0 l 189 175 l 808 175 l 808 0 l 189 0 z "},"◊":{"ha":811,"x_min":160,"x_max":824,"o":"m 340 -17 l 160 486 l 518 989 l 643 989 l 824 486 l 465 -17 l 340 -17 m 547 750 l 344 471 l 435 226 l 638 503 l 547 750 z "},"◌":{"ha":858,"x_min":146,"x_max":888,"o":"m 486 794 q 481 800 486 794 q 475 825 475 806 q 487 857 475 844 q 517 869 499 869 q 547 857 535 869 q 558 825 558 844 q 547 794 558 806 q 517 783 536 783 q 486 794 497 783 m 349 800 q 360 832 349 819 q 392 844 372 844 q 422 832 410 844 q 433 800 433 819 q 422 770 433 782 q 392 758 410 758 q 361 770 374 758 q 349 800 349 782 m 610 770 q 605 776 610 770 q 599 800 599 782 q 611 831 599 818 q 640 843 624 843 q 672 831 660 843 q 685 800 685 819 q 672 770 685 782 q 640 758 660 758 q 610 770 622 758 m 243 731 q 255 760 243 749 q 286 772 267 772 q 317 761 306 772 q 328 731 328 750 q 317 699 328 711 q 286 688 306 688 q 255 699 267 688 q 243 731 243 711 m 717 699 q 711 705 717 699 q 706 731 706 711 q 717 761 706 750 q 747 772 728 772 q 778 760 767 772 q 790 731 790 749 q 778 699 790 711 q 747 688 767 688 q 717 699 728 688 m 788 594 q 782 600 788 594 q 776 624 776 606 q 788 655 776 642 q 818 668 800 668 q 849 655 836 668 q 861 624 861 642 q 849 594 861 606 q 818 582 836 582 q 788 594 800 582 m 185 593 q 178 599 185 593 q 172 624 172 606 q 185 654 172 642 q 215 667 197 667 q 246 654 233 667 q 258 624 258 642 q 245 593 258 606 q 215 581 232 581 q 185 593 197 581 m 146 499 q 158 530 146 518 q 190 542 171 542 q 221 530 210 542 q 232 499 232 518 q 220 469 232 481 q 190 457 208 457 q 158 469 171 457 q 146 499 146 481 m 801 499 q 813 530 801 518 q 843 542 824 542 q 874 530 861 542 q 888 499 888 518 q 874 469 888 481 q 843 457 861 457 q 813 469 825 457 q 801 499 801 481 m 185 343 q 178 349 185 343 q 172 374 172 356 q 185 404 172 392 q 215 417 197 417 q 245 404 233 417 q 257 374 257 392 q 245 343 257 356 q 215 331 233 331 q 185 343 197 331 m 775 375 q 788 405 775 393 q 818 417 800 417 q 849 405 836 417 q 861 375 861 393 q 849 344 861 356 q 818 332 836 332 q 788 344 800 332 q 775 375 775 356 m 255 238 q 249 244 255 238 q 243 268 243 250 q 255 299 243 286 q 286 311 267 311 q 316 299 304 311 q 328 268 328 288 q 317 238 328 250 q 286 226 306 226 q 255 238 267 226 m 706 268 q 717 299 706 288 q 747 311 729 311 q 778 299 767 311 q 790 268 790 286 q 778 238 790 250 q 747 226 767 226 q 717 238 728 226 q 706 268 706 250 m 349 199 q 361 228 349 217 q 393 240 374 240 q 423 228 411 240 q 435 199 435 217 q 422 167 435 181 q 393 154 410 154 q 361 167 374 154 q 349 199 349 179 m 612 167 q 606 173 612 167 q 600 197 600 179 q 612 228 600 215 q 642 240 624 240 q 673 228 661 240 q 685 197 685 217 q 673 166 685 178 q 642 154 661 154 q 612 167 624 154 m 487 141 q 481 147 487 141 q 475 172 475 153 q 487 203 475 192 q 517 215 499 215 q 547 203 535 215 q 558 172 558 192 q 547 141 558 153 q 517 129 535 129 q 487 141 499 129 z "},"":{"ha":0,"x_min":-294,"x_max":-37,"o":"m -37 1014 l -40 999 q -247 654 -78 801 l -294 699 q -199 1014 -239 789 l -37 1014 z "},"ﬁ":{"ha":831,"x_min":132,"x_max":908,"o":"m 792 794 q 730 819 754 794 q 706 881 706 844 q 741 965 706 929 q 819 1001 776 1001 q 884 976 860 1001 q 908 915 908 951 q 873 831 908 867 q 792 794 838 794 m 407 551 l 310 0 l 132 0 l 229 551 l 138 551 l 165 710 l 257 710 l 276 818 q 323 924 288 883 q 397 978 358 965 q 478 992 435 992 q 622 954 554 992 l 596 807 q 503 831 540 831 q 447 782 457 831 l 435 710 l 572 710 l 544 551 l 407 551 m 561 0 l 686 710 l 865 710 l 740 0 l 561 0 z "},"ﬂ":{"ha":840,"x_min":132,"x_max":917,"o":"m 561 0 l 726 943 l 917 1003 l 739 0 l 561 0 m 407 551 l 310 0 l 132 0 l 229 551 l 138 551 l 165 710 l 257 710 l 276 818 q 323 924 288 883 q 397 978 358 965 q 478 992 435 992 q 622 954 554 992 l 596 807 q 503 831 540 831 q 447 782 457 831 l 435 710 l 572 710 l 544 551 l 407 551 z "}}}
